<?xml version="1.0" encoding="UTF-8"?>
<!DOCTYPE svg PUBLIC "-//W3C//DTD SVG 1.1//EN" "http://www.w3.org/Graphics/SVG/1.1/DTD/svg11.dtd">
<svg xmlns="http://www.w3.org/2000/svg" version="1.1" width="160px" height="160px" style="shape-rendering:geometricPrecision; text-rendering:geometricPrecision; image-rendering:optimizeQuality; fill-rule:evenodd; clip-rule:evenodd" xmlns:xlink="http://www.w3.org/1999/xlink">
<g><path style="opacity:0.91" fill="#f5f5f5" d="M 80.5,27.5 C 83.4734,28.9867 86.4734,30.4867 89.5,32C 89.9133,36.4747 87.9133,39.808 83.5,42C 80.1667,43.3333 76.8333,44.6667 73.5,46C 69.9281,48.6258 69.5948,51.6258 72.5,55C 77.2545,56.1959 81.9212,57.6959 86.5,59.5C 86.9312,60.2935 87.2645,61.1268 87.5,62C 86.7819,65.4605 86.2819,68.9605 86,72.5C 80.4381,76.0334 74.6047,79.2 68.5,82C 66.2406,83.7146 64.0739,85.5479 62,87.5C 59.3659,92.1466 56.6992,96.8133 54,101.5C 53.0526,111.395 57.5526,117.061 67.5,118.5C 70.7143,117.095 74.0476,116.095 77.5,115.5C 81.9581,116.272 86.2914,116.272 90.5,115.5C 93.4149,114.024 96.4149,113.19 99.5,113C 101.442,111.028 101.776,108.861 100.5,106.5C 105.434,102.385 110.934,99.3849 117,97.5C 118.555,99.4434 119.722,101.61 120.5,104C 117.506,110.992 113.506,117.325 108.5,123C 99.396,124.024 90.396,126.191 81.5,129.5C 72.9614,128.901 64.2948,128.401 55.5,128C 35.5812,118.104 32.0812,103.938 45,85.5C 50.4053,79.424 56.4053,74.0907 63,69.5C 63.6667,67.5 63.6667,65.5 63,63.5C 57.3259,59.156 54.6592,53.4893 55,46.5C 62.2945,38.3481 70.7945,32.0147 80.5,27.5 Z"/></g>
<g><path style="opacity:1" fill="#1c1c1c" d="M 81.5,33.5 C 83.604,33.2011 85.604,33.5344 87.5,34.5C 86.6519,35.9911 85.3186,36.6578 83.5,36.5C 80.7614,36.4526 80.0947,35.4526 81.5,33.5 Z"/></g>
<g><path style="opacity:1" fill="#121212" d="M 75.5,34.5 C 76.4778,34.811 77.1445,35.4777 77.5,36.5C 75.7597,38.2108 73.7597,39.0442 71.5,39C 71.0426,38.586 70.7093,38.086 70.5,37.5C 72.3596,36.6751 74.0262,35.6751 75.5,34.5 Z"/></g>
<g><path style="opacity:1" fill="#181818" d="M 66.5,40.5 C 67.4972,40.4701 68.1639,40.9701 68.5,42C 67.8883,44.0577 66.8883,45.891 65.5,47.5C 64.5,47.1667 63.8333,46.5 63.5,45.5C 64.7629,43.9713 65.7629,42.3046 66.5,40.5 Z"/></g>
<g><path style="opacity:1" fill="#161616" d="M 61.5,50.5 C 62.5,50.5 63.5,50.5 64.5,50.5C 65.3635,52.8954 65.3635,55.2287 64.5,57.5C 62.7556,55.5736 61.7556,53.2403 61.5,50.5 Z"/></g>
<g><path style="opacity:1" fill="#1c1c1c" d="M 67.5,59.5 C 70.3576,59.5954 72.6909,60.7621 74.5,63C 72.5415,64.579 70.5415,64.4124 68.5,62.5C 67.6143,61.675 67.281,60.675 67.5,59.5 Z"/></g>
<g><path style="opacity:1" fill="#141414" d="M 79.5,61.5 C 80.4959,61.4142 81.3292,61.7476 82,62.5C 82.4935,64.1341 82.6602,65.8008 82.5,67.5C 81.5,67.5 80.5,67.5 79.5,67.5C 79.5,65.5 79.5,63.5 79.5,61.5 Z"/></g>
<g><path style="opacity:1" fill="#1d1d1d" d="M 73.5,67.5 C 75.2252,67.8425 75.7252,68.8425 75,70.5C 73.414,71.376 71.914,72.376 70.5,73.5C 69.4173,72.635 69.2506,71.635 70,70.5C 71.1451,69.3636 72.3117,68.3636 73.5,67.5 Z"/></g>
<g><path style="opacity:1" fill="#1f1f1f" d="M 64.5,73.5 C 65.7562,73.4614 66.7562,73.9614 67.5,75C 65.9825,76.6851 64.3159,78.1851 62.5,79.5C 61.5,79.1667 60.8333,78.5 60.5,77.5C 61.8665,76.16 63.1999,74.8267 64.5,73.5 Z"/></g>
<g><path style="opacity:1" fill="#1a1a1a" d="M 57.5,80.5 C 58.4778,80.811 59.1445,81.4777 59.5,82.5C 58.396,84.3885 57.0627,86.0552 55.5,87.5C 54.6919,87.1924 54.0253,86.6924 53.5,86C 54.6647,84.0083 55.998,82.175 57.5,80.5 Z"/></g>
<g><path style="opacity:1" fill="#1f1f1f" d="M 50.5,89.5 C 51.675,89.281 52.675,89.6143 53.5,90.5C 52.5857,92.6641 51.419,94.6641 50,96.5C 48.2662,94.1372 48.4329,91.8039 50.5,89.5 Z"/></g>
<g><path style="opacity:1" fill="#141414" d="M 45.5,99.5 C 46.5,99.5 47.5,99.5 48.5,99.5C 48.5,101.5 48.5,103.5 48.5,105.5C 47.5,105.5 46.5,105.5 45.5,105.5C 45.5,103.5 45.5,101.5 45.5,99.5 Z"/></g>
<g><path style="opacity:1" fill="#141414" d="M 112.5,104.5 C 113.497,104.47 114.164,104.97 114.5,106C 113.379,109.555 111.379,110.555 108.5,109C 110.041,107.629 111.375,106.129 112.5,104.5 Z"/></g>
<g><path style="opacity:1" fill="#161616" d="M 45.5,109.5 C 49.1815,110.857 50.0148,113.19 48,116.5C 46.0972,114.559 45.2639,112.226 45.5,109.5 Z"/></g>
<g><path style="opacity:1" fill="#1b1b1b" d="M 105.5,111.5 C 107.085,112.002 107.585,113.002 107,114.5C 105.078,117.089 102.911,117.589 100.5,116C 102.24,114.483 103.906,112.983 105.5,111.5 Z"/></g>
<g><path style="opacity:1" fill="#1c1c1c" d="M 51.5,117.5 C 53.4258,118.242 55.2591,119.242 57,120.5C 57.7494,121.635 57.5827,122.635 56.5,123.5C 53.3284,122.669 51.6617,120.669 51.5,117.5 Z"/></g>
<g><path style="opacity:1" fill="#181818" d="M 96.5,117.5 C 98.4646,117.948 98.7979,118.948 97.5,120.5C 95.677,121.747 93.677,122.414 91.5,122.5C 91.5,121.5 91.5,120.5 91.5,119.5C 93.5529,119.598 95.2196,118.931 96.5,117.5 Z"/></g>
<g><path style="opacity:1" fill="#1f1f1f" d="M 60.5,122.5 C 63.3795,122.033 65.7129,122.866 67.5,125C 67.1667,125.5 66.8333,126 66.5,126.5C 64.8849,125.846 63.2182,125.346 61.5,125C 60.7476,124.329 60.4142,123.496 60.5,122.5 Z"/></g>
<g><path style="opacity:1" fill="#141414" d="M 86.5,121.5 C 88.0481,121.821 88.7148,122.821 88.5,124.5C 86.2478,125.333 84.0811,125.333 82,124.5C 81.8333,124.167 81.6667,123.833 81.5,123.5C 83.2914,122.83 84.9581,122.163 86.5,121.5 Z"/></g>
<g><path style="opacity:1" fill="#0e0e0e" d="M 71.5,123.5 C 73.8333,123.5 76.1667,123.5 78.5,123.5C 78.5,124.5 78.5,125.5 78.5,126.5C 76.1667,126.5 73.8333,126.5 71.5,126.5C 71.5,125.5 71.5,124.5 71.5,123.5 Z"/></g>
</svg>
