<?xml version="1.0" encoding="UTF-8"?>
<!DOCTYPE svg PUBLIC "-//W3C//DTD SVG 1.1//EN" "http://www.w3.org/Graphics/SVG/1.1/DTD/svg11.dtd">
<svg xmlns="http://www.w3.org/2000/svg" version="1.1" width="160px" height="160px" style="shape-rendering:geometricPrecision; text-rendering:geometricPrecision; image-rendering:optimizeQuality; fill-rule:evenodd; clip-rule:evenodd" xmlns:xlink="http://www.w3.org/1999/xlink">
<g><path style="opacity:0.904" fill="#f5f5f5" d="M 74.5,21.5 C 79.1511,21.4102 82.3177,23.4102 84,27.5C 83.4285,35.5659 83.9285,43.3992 85.5,51C 85.0598,56.1264 85.0598,61.1264 85.5,66C 84.0687,70.3443 83.402,74.8443 83.5,79.5C 84.2919,99.4096 84.6252,119.743 84.5,140.5C 81.3115,140.681 77.9782,140.181 74.5,139C 71.9357,137.938 70.269,136.104 69.5,133.5C 71.8834,126.65 71.8834,119.816 69.5,113C 69.9574,112.586 70.2907,112.086 70.5,111.5C 69.062,108.483 68.062,105.316 67.5,102C 68.4396,86.9965 69.4396,71.9965 70.5,57C 70.5721,54.258 70.2388,51.4247 69.5,48.5C 70.754,41.8718 72.4207,35.3718 74.5,29C 73.2215,26.5024 73.2215,24.0024 74.5,21.5 Z"/></g>
<g><path style="opacity:1" fill="#222222" d="M 75.5,25.5 C 76.5,25.5 77.5,25.5 78.5,25.5C 78.5,27.8333 78.5,30.1667 78.5,32.5C 77.5,32.5 76.5,32.5 75.5,32.5C 75.5,30.1667 75.5,27.8333 75.5,25.5 Z"/></g>
<g><path style="opacity:1" fill="#000000" d="M 77.5,40.5 C 77.5,41.8333 76.8333,42.5 75.5,42.5C 75.2011,40.396 75.5344,38.396 76.5,36.5C 77.4287,37.6888 77.762,39.0222 77.5,40.5 Z"/></g>
<g><path style="opacity:1" fill="#727272" d="M 77.5,40.5 C 77.762,39.0222 77.4287,37.6888 76.5,36.5C 75.5344,38.396 75.2011,40.396 75.5,42.5C 74.5318,40.3926 74.1984,38.0593 74.5,35.5C 75.8333,35.5 77.1667,35.5 78.5,35.5C 78.7845,37.4147 78.4511,39.0813 77.5,40.5 Z"/></g>
<g><path style="opacity:1" fill="#0d0d0d" d="M 74.5,46.5 C 75.5,46.5 76.5,46.5 77.5,46.5C 77.5,48.8333 77.5,51.1667 77.5,53.5C 76.5,53.5 75.5,53.5 74.5,53.5C 74.5,51.1667 74.5,48.8333 74.5,46.5 Z"/></g>
<g><path style="opacity:1" fill="#858585" d="M 76.5,63.5 C 75.8333,55.5 75.1667,55.5 74.5,63.5C 73.5318,61.3926 73.1984,59.0593 73.5,56.5C 74.8333,56.5 76.1667,56.5 77.5,56.5C 77.8016,59.0593 77.4682,61.3926 76.5,63.5 Z"/></g>
<g><path style="opacity:1" fill="#000000" d="M 76.5,63.5 C 75.8333,63.5 75.1667,63.5 74.5,63.5C 75.1667,55.5 75.8333,55.5 76.5,63.5 Z"/></g>
<g><path style="opacity:1" fill="#888888" d="M 74.5,67.5 C 75.1667,75.5 75.8333,75.5 76.5,67.5C 77.4682,69.6074 77.8016,71.9407 77.5,74.5C 76.1667,74.5 74.8333,74.5 73.5,74.5C 73.1984,71.9407 73.5318,69.6074 74.5,67.5 Z"/></g>
<g><path style="opacity:1" fill="#000000" d="M 74.5,67.5 C 75.1667,67.5 75.8333,67.5 76.5,67.5C 75.8333,75.5 75.1667,75.5 74.5,67.5 Z"/></g>
<g><path style="opacity:1" fill="#1e1e1e" d="M 73.5,77.5 C 74.5,77.5 75.5,77.5 76.5,77.5C 76.5,79.8333 76.5,82.1667 76.5,84.5C 75.5,84.5 74.5,84.5 73.5,84.5C 73.5,82.1667 73.5,79.8333 73.5,77.5 Z"/></g>
<g><path style="opacity:1" fill="#000000" d="M 76.5,88.5 C 76.9746,91.0821 76.3079,93.0821 74.5,94.5C 74.0254,91.9179 74.6921,89.9179 76.5,88.5 Z"/></g>
<g><path style="opacity:1" fill="#686868" d="M 76.5,88.5 C 77.4682,90.6074 77.8016,92.9407 77.5,95.5C 76.209,95.7373 75.209,95.404 74.5,94.5C 76.3079,93.0821 76.9746,91.0821 76.5,88.5 Z"/></g>
<g><path style="opacity:1" fill="#1d1d1d" d="M 74.5,98.5 C 75.5,98.5 76.5,98.5 77.5,98.5C 77.5,100.833 77.5,103.167 77.5,105.5C 76.5,105.5 75.5,105.5 74.5,105.5C 74.5,103.167 74.5,100.833 74.5,98.5 Z"/></g>
<g><path style="opacity:1" fill="#1e1e1e" d="M 75.5,109.5 C 76.5,109.5 77.5,109.5 78.5,109.5C 78.8076,111.924 78.4742,114.257 77.5,116.5C 76.914,116.291 76.414,115.957 76,115.5C 75.5045,113.527 75.3379,111.527 75.5,109.5 Z"/></g>
<g><path style="opacity:1" fill="#0c0c0c" d="M 76.5,119.5 C 77.5,119.5 78.5,119.5 79.5,119.5C 79.5,121.833 79.5,124.167 79.5,126.5C 78.5,126.5 77.5,126.5 76.5,126.5C 76.5,124.167 76.5,121.833 76.5,119.5 Z"/></g>
<g><path style="opacity:1" fill="#1a1a1a" d="M 77.5,129.5 C 78.5,129.5 79.5,129.5 80.5,129.5C 80.5,131.833 80.5,134.167 80.5,136.5C 79.5,136.5 78.5,136.5 77.5,136.5C 77.5,134.167 77.5,131.833 77.5,129.5 Z"/></g>
</svg>
