<?xml version="1.0" encoding="UTF-8"?>
<!DOCTYPE svg PUBLIC "-//W3C//DTD SVG 1.1//EN" "http://www.w3.org/Graphics/SVG/1.1/DTD/svg11.dtd">
<svg xmlns="http://www.w3.org/2000/svg" version="1.1" width="160px" height="160px" style="shape-rendering:geometricPrecision; text-rendering:geometricPrecision; image-rendering:optimizeQuality; fill-rule:evenodd; clip-rule:evenodd" xmlns:xlink="http://www.w3.org/1999/xlink">
<g><path style="opacity:0.9" fill="#f4f4f4" d="M 82.5,86.5 C 82.5,85.5 82.5,84.5 82.5,83.5C 80.1667,83.5 77.8333,83.5 75.5,83.5C 75.5,84.8333 75.5,86.1667 75.5,87.5C 69.5383,87.4816 64.5383,89.6483 60.5,94C 56.1667,94.6667 51.8333,94.6667 47.5,94C 40.3839,91.2754 33.3839,88.2754 26.5,85C 18.3119,79.7914 13.8119,72.2914 13,62.5C 12.5014,58.8484 12.3347,55.1817 12.5,51.5C 23.3462,50.5218 28.5129,55.5218 28,66.5C 33.6245,73.0477 40.7912,76.5477 49.5,77C 56.4137,77.186 63.2471,77.686 70,78.5C 75.312,77.9624 80.312,77.6291 85,77.5C 89.1348,79.1776 93.3015,79.8443 97.5,79.5C 95.2367,80.5896 95.07,81.9229 97,83.5C 99.1761,83.0116 101.009,82.0116 102.5,80.5C 101.311,79.5713 99.9778,79.238 98.5,79.5C 104.672,76.1983 111.006,73.0317 117.5,70C 129.296,62.579 134.13,52.079 132,38.5C 132.113,36.0261 133.113,34.0261 135,32.5C 140.86,34.3595 144.693,38.1928 146.5,44C 144.624,49.7052 143.124,55.5385 142,61.5C 140.587,64.6612 138.92,67.6612 137,70.5C 132.457,74.3419 128.291,78.5086 124.5,83C 118.882,85.588 113.048,87.4214 107,88.5C 98.9046,87.5815 90.738,86.9148 82.5,86.5 Z"/></g>
<g><path style="opacity:1" fill="#1c1c1c" d="M 136.5,38.5 C 137.5,38.5 138.5,38.5 139.5,38.5C 139.5,40.8333 139.5,43.1667 139.5,45.5C 138.5,45.5 137.5,45.5 136.5,45.5C 136.5,43.1667 136.5,40.8333 136.5,38.5 Z"/></g>
<g><path style="opacity:1" fill="#242424" d="M 137.5,49.5 C 138.5,49.5 139.5,49.5 140.5,49.5C 140.5,51.8333 140.5,54.1667 140.5,56.5C 139.5,56.5 138.5,56.5 137.5,56.5C 137.5,54.1667 137.5,51.8333 137.5,49.5 Z"/></g>
<g><path style="opacity:1" fill="#202020" d="M 15.5,56.5 C 16.5,56.5 17.5,56.5 18.5,56.5C 18.5,58.8333 18.5,61.1667 18.5,63.5C 17.5,63.5 16.5,63.5 15.5,63.5C 15.5,61.1667 15.5,58.8333 15.5,56.5 Z"/></g>
<g><path style="opacity:1" fill="#1e1e1e" d="M 136.5,59.5 C 137.756,59.4614 138.756,59.9614 139.5,61C 138.521,63.1373 137.188,64.9706 135.5,66.5C 134.692,66.1924 134.025,65.6924 133.5,65C 134.639,63.2196 135.639,61.3863 136.5,59.5 Z"/></g>
<g><path style="opacity:1" fill="#1b1b1b" d="M 19.5,65.5 C 21.0542,66.9142 22.3875,68.5808 23.5,70.5C 23.1667,71.5 22.5,72.1667 21.5,72.5C 18.7655,70.6428 18.0989,68.3094 19.5,65.5 Z"/></g>
<g><path style="opacity:1" fill="#181818" d="M 129.5,67.5 C 130.756,67.4614 131.756,67.9614 132.5,69C 130.627,71.6225 128.293,72.4558 125.5,71.5C 126.549,69.7844 127.882,68.4511 129.5,67.5 Z"/></g>
<g><path style="opacity:1" fill="#202020" d="M 120.5,71.5 C 122.225,71.8425 122.725,72.8425 122,74.5C 119.993,75.6687 117.827,76.3354 115.5,76.5C 115.5,75.5 115.5,74.5 115.5,73.5C 117.553,73.5979 119.22,72.9313 120.5,71.5 Z"/></g>
<g><path style="opacity:1" fill="#202020" d="M 25.5,73.5 C 27.8863,74.3733 29.8863,75.8733 31.5,78C 30.9747,78.6924 30.3081,79.1924 29.5,79.5C 28.2997,78.4688 26.9663,77.6355 25.5,77C 24.3157,75.8545 24.3157,74.6879 25.5,73.5 Z"/></g>
<g><path style="opacity:1" fill="#1f1f1f" d="M 110.5,75.5 C 112.465,75.9483 112.798,76.9483 111.5,78.5C 109.922,79.6405 108.256,80.1405 106.5,80C 106.043,79.586 105.709,79.086 105.5,78.5C 107.145,77.3037 108.811,76.3037 110.5,75.5 Z"/></g>
<g><path style="opacity:1" fill="#1b1b1b" d="M 34.5,79.5 C 36.258,79.8769 37.9246,80.5435 39.5,81.5C 40.8333,82.5 40.8333,83.5 39.5,84.5C 37.4899,83.4981 35.4899,82.4981 33.5,81.5C 33.8627,80.8165 34.1961,80.1499 34.5,79.5 Z"/></g>
<g><path style="opacity:0.999" fill="#1a1a1a" d="M 97.5,79.5 C 97.8333,79.5 98.1667,79.5 98.5,79.5C 99.9778,79.238 101.311,79.5713 102.5,80.5C 101.009,82.0116 99.1761,83.0116 97,83.5C 95.07,81.9229 95.2367,80.5896 97.5,79.5 Z"/></g>
<g><path style="opacity:1" fill="#0e0e0e" d="M 88.5,81.5 C 89.8333,81.5 91.1667,81.5 92.5,81.5C 92.5,82.5 92.5,83.5 92.5,84.5C 90.076,84.8076 87.7427,84.4742 85.5,83.5C 86.6016,82.8243 87.6016,82.1577 88.5,81.5 Z"/></g>
<g><path style="opacity:1" fill="#0b0b0b" d="M 44.5,82.5 C 52.297,83.949 52.297,84.949 44.5,85.5C 44.5,84.5 44.5,83.5 44.5,82.5 Z"/></g>
<g><path style="opacity:0.862" fill="#111111" d="M 82.5,86.5 C 80.0971,86.448 77.7638,86.7814 75.5,87.5C 75.5,86.1667 75.5,84.8333 75.5,83.5C 77.8333,83.5 80.1667,83.5 82.5,83.5C 82.5,84.5 82.5,85.5 82.5,86.5 Z"/></g>
<g><path style="opacity:1" fill="#191919" d="M 54.5,83.5 C 56.8333,83.5 59.1667,83.5 61.5,83.5C 61.5,84.5 61.5,85.5 61.5,86.5C 59.1667,86.5 56.8333,86.5 54.5,86.5C 54.5,85.5 54.5,84.5 54.5,83.5 Z"/></g>
<g><path style="opacity:1" fill="#000000" d="M 65.5,84.5 C 68.0821,84.0254 70.0821,84.6921 71.5,86.5C 68.9179,86.9746 66.9179,86.3079 65.5,84.5 Z"/></g>
<g><path style="opacity:1" fill="#515151" d="M 65.5,84.5 C 66.9179,86.3079 68.9179,86.9746 71.5,86.5C 69.3926,87.4682 67.0593,87.8016 64.5,87.5C 64.2627,86.209 64.596,85.209 65.5,84.5 Z"/></g>
<g><path style="opacity:0.839" fill="#ededed" d="M 81.5,107.5 C 83.1789,107.892 84.8455,108.392 86.5,109C 87.4009,111.571 88.7342,113.904 90.5,116C 86.1395,119.685 81.1395,121.352 75.5,121C 73.718,118.757 73.218,116.257 74,113.5C 76.1337,110.847 78.6337,108.847 81.5,107.5 Z"/></g>
<g><path style="opacity:1" fill="#141414" d="M 82.5,113.5 C 83.675,113.281 84.675,113.614 85.5,114.5C 84.1851,116.316 82.6851,117.983 81,119.5C 80.3076,118.975 79.8076,118.308 79.5,117.5C 80.5244,116.148 81.5244,114.815 82.5,113.5 Z"/></g>
</svg>
