<?xml version="1.0" encoding="UTF-8"?>
<!DOCTYPE svg PUBLIC "-//W3C//DTD SVG 1.1//EN" "http://www.w3.org/Graphics/SVG/1.1/DTD/svg11.dtd">
<svg xmlns="http://www.w3.org/2000/svg" version="1.1" width="160px" height="160px" style="shape-rendering:geometricPrecision; text-rendering:geometricPrecision; image-rendering:optimizeQuality; fill-rule:evenodd; clip-rule:evenodd" xmlns:xlink="http://www.w3.org/1999/xlink">
<g><path style="opacity:0.903" fill="#f6f6f6" d="M 41.5,25.5 C 47.011,25.2049 52.3443,26.0382 57.5,28C 66.5234,33.1783 75.8567,37.845 85.5,42C 93.6601,47.914 101.993,53.5807 110.5,59C 120.693,71.5265 123.193,85.3599 118,100.5C 116.527,104.779 114.527,108.779 112,112.5C 93.6915,130.702 71.8582,136.536 46.5,130C 44.481,129.55 42.6477,128.717 41,127.5C 40.7457,124.805 40.579,122.305 40.5,120C 50.9101,118.097 61.5768,116.264 72.5,114.5C 82.9595,117.179 92.1261,114.846 100,107.5C 101.968,104.187 103.968,100.854 106,97.5C 106.167,96.3333 106.333,95.1667 106.5,94C 105.367,89.799 105.367,85.6323 106.5,81.5C 103.62,75.7817 100.12,70.4483 96,65.5C 87.8333,60 79.6667,54.5 71.5,49C 61.1667,45.3333 50.8333,41.6667 40.5,38C 38.9557,33.6202 39.289,29.4536 41.5,25.5 Z"/></g>
<g><path style="opacity:1" fill="#262626" d="M 42.5,29.5 C 44.861,29.6741 47.1944,30.0074 49.5,30.5C 49.5,31.5 49.5,32.5 49.5,33.5C 47.4086,33.6816 45.4086,33.3482 43.5,32.5C 42.6143,31.675 42.281,30.675 42.5,29.5 Z"/></g>
<g><path style="opacity:1" fill="#171717" d="M 53.5,32.5 C 55.5,32.8333 57.5,33.1667 59.5,33.5C 59.5,34.5 59.5,35.5 59.5,36.5C 57.4357,36.313 55.4357,35.813 53.5,35C 52.4019,34.2303 52.4019,33.397 53.5,32.5 Z"/></g>
<g><path style="opacity:1" fill="#1a1a1a" d="M 62.5,36.5 C 65.1398,36.954 67.4732,38.1207 69.5,40C 68.4071,41.3654 67.0738,41.6987 65.5,41C 63.5614,40.0922 62.5614,38.5922 62.5,36.5 Z"/></g>
<g><path style="opacity:1" fill="#1e1e1e" d="M 72.5,41.5 C 75.2817,42.4593 77.1151,44.126 78,46.5C 77.586,46.9574 77.086,47.2907 76.5,47.5C 75.2997,46.4688 73.9663,45.6355 72.5,45C 71.3157,43.8545 71.3157,42.6879 72.5,41.5 Z"/></g>
<g><path style="opacity:1" fill="#1a1a1a" d="M 80.5,47.5 C 82.4258,48.2423 84.2591,49.2423 86,50.5C 86.7494,51.635 86.5827,52.635 85.5,53.5C 82.4665,52.518 80.7998,50.518 80.5,47.5 Z"/></g>
<g><path style="opacity:1" fill="#181818" d="M 90.5,52.5 C 91.8853,53.6138 93.3853,54.6138 95,55.5C 95.7494,56.635 95.5827,57.635 94.5,58.5C 90.9007,57.6302 89.5674,55.6302 90.5,52.5 Z"/></g>
<g><path style="opacity:1" fill="#0f0f0f" d="M 97.5,59.5 C 99.9032,59.393 101.736,60.393 103,62.5C 103.563,63.7248 103.23,64.7248 102,65.5C 99.8733,63.8863 98.3733,61.8863 97.5,59.5 Z"/></g>
<g><path style="opacity:1" fill="#1a1a1a" d="M 105.5,66.5 C 107.624,67.0312 109.124,68.3645 110,70.5C 110.563,71.7248 110.23,72.7248 109,73.5C 106.091,71.6919 104.925,69.3586 105.5,66.5 Z"/></g>
<g><path style="opacity:1" fill="#161616" d="M 111.5,75.5 C 115.181,76.8569 116.015,79.1902 114,82.5C 112.097,80.559 111.264,78.2257 111.5,75.5 Z"/></g>
<g><path style="opacity:1" fill="#141414" d="M 114.5,85.5 C 115.5,85.5 116.5,85.5 117.5,85.5C 117.5,87.8333 117.5,90.1667 117.5,92.5C 116.5,92.5 115.5,92.5 114.5,92.5C 114.5,90.1667 114.5,87.8333 114.5,85.5 Z"/></g>
<g><path style="opacity:1" fill="#1a1a1a" d="M 113.5,95.5 C 114.756,95.4614 115.756,95.9614 116.5,97C 115.88,99.2123 114.713,101.046 113,102.5C 112.5,102.167 112,101.833 111.5,101.5C 112.372,99.5504 113.039,97.5504 113.5,95.5 Z"/></g>
<g><path style="opacity:1" fill="#181818" d="M 109.5,105.5 C 110.756,105.461 111.756,105.961 112.5,107C 110.978,109.305 108.978,110.805 106.5,111.5C 106.615,109.053 107.615,107.053 109.5,105.5 Z"/></g>
<g><path style="opacity:1" fill="#1f1f1f" d="M 101.5,112.5 C 102.995,112.415 103.995,113.081 104.5,114.5C 102.807,116.027 100.973,117.36 99,118.5C 98.3076,117.975 97.8076,117.308 97.5,116.5C 98.8665,115.16 100.2,113.827 101.5,112.5 Z"/></g>
<g><path style="opacity:1" fill="#1c1c1c" d="M 92.5,117.5 C 93.9953,117.415 94.9953,118.081 95.5,119.5C 93.5128,121.327 91.1795,122.327 88.5,122.5C 88.281,121.325 88.6143,120.325 89.5,119.5C 90.7387,119.058 91.7387,118.391 92.5,117.5 Z"/></g>
<g><path style="opacity:1" fill="#161616" d="M 83.5,121.5 C 85.0481,121.821 85.7148,122.821 85.5,124.5C 83.1944,124.993 80.861,125.326 78.5,125.5C 78.5,124.5 78.5,123.5 78.5,122.5C 80.4147,122.784 82.0813,122.451 83.5,121.5 Z"/></g>
<g><path style="opacity:1" fill="#000000" d="M 53.5,124.5 C 52.0821,126.308 50.0821,126.975 47.5,126.5C 48.9179,124.692 50.9179,124.025 53.5,124.5 Z"/></g>
<g><path style="opacity:1" fill="#111111" d="M 57.5,124.5 C 59.8333,124.5 62.1667,124.5 64.5,124.5C 64.5,125.5 64.5,126.5 64.5,127.5C 62.1667,127.5 59.8333,127.5 57.5,127.5C 57.5,126.5 57.5,125.5 57.5,124.5 Z"/></g>
<g><path style="opacity:1" fill="#2c2c2c" d="M 70.5,123.5 C 72.1667,123.5 73.8333,123.5 75.5,123.5C 75.67,124.822 75.3366,125.989 74.5,127C 72.5273,127.495 70.5273,127.662 68.5,127.5C 68.5271,125.801 69.1938,124.467 70.5,123.5 Z"/></g>
<g><path style="opacity:1" fill="#676767" d="M 53.5,124.5 C 54.404,125.209 54.7373,126.209 54.5,127.5C 51.9407,127.802 49.6074,127.468 47.5,126.5C 50.0821,126.975 52.0821,126.308 53.5,124.5 Z"/></g>
</svg>
