<?xml version="1.0" encoding="UTF-8"?>
<!DOCTYPE svg PUBLIC "-//W3C//DTD SVG 1.1//EN" "http://www.w3.org/Graphics/SVG/1.1/DTD/svg11.dtd">
<svg xmlns="http://www.w3.org/2000/svg" version="1.1" width="160px" height="160px" style="shape-rendering:geometricPrecision; text-rendering:geometricPrecision; image-rendering:optimizeQuality; fill-rule:evenodd; clip-rule:evenodd" xmlns:xlink="http://www.w3.org/1999/xlink">
<g><path style="opacity:0.875" fill="#f7f7f7" d="M 77.5,26.5 C 84.1177,27.4582 89.1177,30.7915 92.5,36.5C 87.2913,48.7376 80.2913,49.7376 71.5,39.5C 74.4756,35.2414 76.4756,30.9081 77.5,26.5 Z"/></g>
<g><path style="opacity:1" fill="#131313" d="M 80.5,33.5 C 81.675,33.281 82.675,33.6143 83.5,34.5C 82.1851,36.3159 80.6851,37.9825 79,39.5C 78.3076,38.9747 77.8076,38.3081 77.5,37.5C 78.5244,36.1482 79.5244,34.8149 80.5,33.5 Z"/></g>
<g><path style="opacity:0.914" fill="#f5f5f5" d="M 122.5,42.5 C 128.93,41.6041 134.764,42.9375 140,46.5C 141.022,48.7017 141.522,51.0351 141.5,53.5C 140.394,66.1214 135.728,77.2881 127.5,87C 121.144,91.0111 114.144,93.0111 106.5,93C 97.0488,94.4555 92.8821,99.9555 94,109.5C 92.6274,112.412 91.1274,115.246 89.5,118C 84.672,121.581 79.672,124.915 74.5,128C 66.2559,130.068 57.5892,131.568 48.5,132.5C 40.6667,131.367 33,129.533 25.5,127C 20.1622,124.993 16.9956,121.159 16,115.5C 13.1308,105.457 13.1308,95.457 16,85.5C 16.2735,83.6711 17.1068,82.1711 18.5,81C 21.343,80.5539 24.1764,80.0539 27,79.5C 28.8951,79.6148 30.5618,80.2815 32,81.5C 32.8333,84 33.6667,86.5 34.5,89C 27.1024,98.618 28.1024,107.285 37.5,115C 42.3822,116.555 47.3822,116.888 52.5,116C 59.4866,114.574 66.4866,113.24 73.5,112C 81.8149,106.553 83.6482,99.3867 79,90.5C 76.3333,87.8333 73.6667,85.1667 71,82.5C 68.8657,80.4216 69.0323,78.5883 71.5,77C 75.8317,76.0845 80.1651,75.2511 84.5,74.5C 92.3941,64.1048 101.727,55.2714 112.5,48C 115.767,45.8703 119.1,44.037 122.5,42.5 Z M 120.5,57.5 C 127.241,57.3902 129.408,60.3902 127,66.5C 121.969,71.922 116.469,76.7553 110.5,81C 105.949,84.2281 102.949,82.8948 101.5,77C 101.862,75.7753 102.362,74.6086 103,73.5C 109.628,69.0383 115.462,63.7049 120.5,57.5 Z"/></g>
<g><path style="opacity:1" fill="#0f0f0f" d="M 127.5,46.5 C 130.061,46.4469 132.061,47.4469 133.5,49.5C 131.048,50.3142 128.715,49.8142 126.5,48C 127.056,47.6174 127.389,47.1174 127.5,46.5 Z"/></g>
<g><path style="opacity:1" fill="#1b1b1b" d="M 120.5,47.5 C 121.5,47.5 122.5,47.5 123.5,47.5C 123.719,48.675 123.386,49.675 122.5,50.5C 120.941,51.0736 119.441,51.7402 118,52.5C 117.308,51.9747 116.808,51.3081 116.5,50.5C 117.624,49.1408 118.958,48.1408 120.5,47.5 Z"/></g>
<g><path style="opacity:1" fill="#141414" d="M 111.5,53.5 C 112.675,53.281 113.675,53.6143 114.5,54.5C 113.185,56.3159 111.685,57.9825 110,59.5C 109.308,58.9747 108.808,58.3081 108.5,57.5C 109.524,56.1482 110.524,54.8149 111.5,53.5 Z"/></g>
<g><path style="opacity:1" fill="#181818" d="M 134.5,53.5 C 135.5,53.5 136.5,53.5 137.5,53.5C 137.808,55.924 137.474,58.2573 136.5,60.5C 134.829,58.4902 134.162,56.1569 134.5,53.5 Z"/></g>
<g><path style="opacity:1" fill="#222222" d="M 104.5,60.5 C 105.675,60.281 106.675,60.6143 107.5,61.5C 106.167,63.5 104.5,65.1667 102.5,66.5C 101.5,66.1667 100.833,65.5 100.5,64.5C 102.188,63.4787 103.521,62.1454 104.5,60.5 Z"/></g>
<g><path style="opacity:1" fill="#1c1c1c" d="M 133.5,64.5 C 134.675,64.281 135.675,64.6143 136.5,65.5C 135.877,67.7105 134.877,69.7105 133.5,71.5C 132.5,71.1667 131.833,70.5 131.5,69.5C 132.456,67.9246 133.123,66.258 133.5,64.5 Z"/></g>
<g><path style="opacity:1" fill="#151515" d="M 97.5,67.5 C 98.4778,67.811 99.1445,68.4777 99.5,69.5C 98.7515,71.3325 97.7515,72.9991 96.5,74.5C 95.5,74.1667 94.8333,73.5 94.5,72.5C 95.7629,70.9713 96.7629,69.3046 97.5,67.5 Z"/></g>
<g><path style="opacity:1" fill="#131313" d="M 129.5,73.5 C 130.497,73.4701 131.164,73.9701 131.5,75C 130.379,78.5548 128.379,79.5548 125.5,78C 127.041,76.6288 128.375,75.1288 129.5,73.5 Z"/></g>
<g><path style="opacity:1" fill="#131313" d="M 92.5,77.5 C 93.675,77.281 94.675,77.6143 95.5,78.5C 94.8153,80.5473 93.6486,82.2139 92,83.5C 91.5,83.1667 91,82.8333 90.5,82.5C 91.1744,80.8045 91.8411,79.1379 92.5,77.5 Z"/></g>
<g><path style="opacity:1" fill="#121212" d="M 78.5,80.5 C 81.4598,80.6621 83.2931,81.9954 84,84.5C 83.6667,84.8333 83.3333,85.1667 83,85.5C 81.5806,84.5399 80.0806,83.7065 78.5,83C 77.4019,82.2303 77.4019,81.397 78.5,80.5 Z"/></g>
<g><path style="opacity:1" fill="#191919" d="M 120.5,80.5 C 121.5,80.5 122.5,80.5 123.5,80.5C 122.757,83.5696 120.757,85.2363 117.5,85.5C 117.721,83.3364 118.721,81.6697 120.5,80.5 Z"/></g>
<g><path style="opacity:1" fill="#171717" d="M 23.5,82.5 C 24.4972,82.4701 25.1639,82.9701 25.5,84C 24.8037,85.8928 23.9704,87.7262 23,89.5C 22.0754,88.9535 21.2421,88.2868 20.5,87.5C 21.7629,85.9713 22.7629,84.3046 23.5,82.5 Z"/></g>
<g><path style="opacity:1" fill="#101010" d="M 87.5,84.5 C 89.8543,84.9104 91.8543,85.9104 93.5,87.5C 89.2883,87.8056 88.6217,89.3056 91.5,92C 90.9747,92.6924 90.3081,93.1924 89.5,93.5C 86.4633,91.0204 85.7966,88.0204 87.5,84.5 Z"/></g>
<g><path style="opacity:1" fill="#1d1d1d" d="M 110.5,85.5 C 111.833,85.5 113.167,85.5 114.5,85.5C 114.5,86.5 114.5,87.5 114.5,88.5C 112.194,88.9926 109.861,89.3259 107.5,89.5C 107.5,88.5 107.5,87.5 107.5,86.5C 108.791,86.7373 109.791,86.404 110.5,85.5 Z"/></g>
<g><path style="opacity:1" fill="#292929" d="M 97.5,87.5 C 99.8333,87.5 102.167,87.5 104.5,87.5C 104.5,88.5 104.5,89.5 104.5,90.5C 102.167,90.5 99.8333,90.5 97.5,90.5C 97.5,89.5 97.5,88.5 97.5,87.5 Z"/></g>
<g><path style="opacity:1" fill="#202020" d="M 19.5,91.5 C 20.5,91.5 21.5,91.5 22.5,91.5C 22.6621,93.5273 22.4955,95.5273 22,97.5C 20.8173,98.731 19.6507,98.731 18.5,97.5C 19.3482,95.5914 19.6816,93.5914 19.5,91.5 Z"/></g>
<g><path style="opacity:1" fill="#000000" d="M 89.5,97.5 C 91.3079,98.9179 91.9746,100.918 91.5,103.5C 89.6921,102.082 89.0254,100.082 89.5,97.5 Z"/></g>
<g><path style="opacity:1" fill="#666666" d="M 89.5,97.5 C 90.209,96.596 91.209,96.2627 92.5,96.5C 92.8016,99.0593 92.4682,101.393 91.5,103.5C 91.9746,100.918 91.3079,98.9179 89.5,97.5 Z"/></g>
<g><path style="opacity:1" fill="#0d0d0d" d="M 18.5,102.5 C 19.5,102.5 20.5,102.5 21.5,102.5C 21.0984,111.698 20.0984,111.698 18.5,102.5 Z"/></g>
<g><path style="opacity:1" fill="#1a1a1a" d="M 87.5,107.5 C 88.675,107.281 89.675,107.614 90.5,108.5C 89.396,110.389 88.0627,112.055 86.5,113.5C 85.6919,113.192 85.0253,112.692 84.5,112C 85.3862,110.385 86.3862,108.885 87.5,107.5 Z"/></g>
<g><path style="opacity:1" fill="#1a1a1a" d="M 20.5,112.5 C 21.4959,112.414 22.3292,112.748 23,113.5C 23.7065,115.081 24.5399,116.581 25.5,118C 23.536,119.794 22.036,119.294 21,116.5C 19.6658,115.122 19.4991,113.789 20.5,112.5 Z"/></g>
<g><path style="opacity:1" fill="#1b1b1b" d="M 81.5,114.5 C 83.0847,115.002 83.5847,116.002 83,117.5C 81.0782,120.089 78.9115,120.589 76.5,119C 78.2395,117.483 79.9062,115.983 81.5,114.5 Z"/></g>
<g><path style="opacity:1" fill="#1b1b1b" d="M 27.5,120.5 C 29.3863,121.361 31.2196,122.361 33,123.5C 33.5628,124.725 33.2295,125.725 32,126.5C 30.0266,125.36 28.1933,124.027 26.5,122.5C 26.8627,121.817 27.1961,121.15 27.5,120.5 Z"/></g>
<g><path style="opacity:1" fill="#121212" d="M 70.5,121.5 C 71.9778,121.238 73.3112,121.571 74.5,122.5C 73.2318,124.047 71.5652,125.047 69.5,125.5C 68.6919,125.192 68.0253,124.692 67.5,124C 68.5707,123.148 69.5707,122.315 70.5,121.5 Z"/></g>
<g><path style="opacity:1" fill="#161616" d="M 36.5,124.5 C 38.8333,124.5 41.1667,124.5 43.5,124.5C 43.5,125.5 43.5,126.5 43.5,127.5C 41.1667,127.5 38.8333,127.5 36.5,127.5C 36.5,126.5 36.5,125.5 36.5,124.5 Z"/></g>
<g><path style="opacity:1" fill="#6d6d6d" d="M 47.5,125.5 C 49.6074,124.532 51.9407,124.198 54.5,124.5C 54.7373,125.791 54.404,126.791 53.5,127.5C 52.0821,125.692 50.0821,125.025 47.5,125.5 Z"/></g>
<g><path style="opacity:1" fill="#111111" d="M 57.5,124.5 C 59.924,124.192 62.2573,124.526 64.5,125.5C 62.4902,127.171 60.1569,127.838 57.5,127.5C 57.5,126.5 57.5,125.5 57.5,124.5 Z"/></g>
<g><path style="opacity:1" fill="#000000" d="M 47.5,125.5 C 50.0821,125.025 52.0821,125.692 53.5,127.5C 50.9179,127.975 48.9179,127.308 47.5,125.5 Z"/></g>
</svg>
