<?xml version="1.0" encoding="UTF-8"?>
<!DOCTYPE svg PUBLIC "-//W3C//DTD SVG 1.1//EN" "http://www.w3.org/Graphics/SVG/1.1/DTD/svg11.dtd">
<svg xmlns="http://www.w3.org/2000/svg" version="1.1" width="160px" height="160px" style="shape-rendering:geometricPrecision; text-rendering:geometricPrecision; image-rendering:optimizeQuality; fill-rule:evenodd; clip-rule:evenodd" xmlns:xlink="http://www.w3.org/1999/xlink">
<g><path style="opacity:0.872" fill="#f9f9f9" d="M 62.5,7.5 C 69.6467,6.47288 73.3134,9.63954 73.5,17C 72.9653,24.051 69.2986,26.3843 62.5,24C 53.3086,20.7002 51.9753,15.7002 58.5,9C 60.0581,8.78997 61.3915,8.28997 62.5,7.5 Z"/></g>
<g><path style="opacity:1" fill="#171717" d="M 64.5,14.5 C 65.675,14.281 66.675,14.6143 67.5,15.5C 66.396,17.3885 65.0627,19.0552 63.5,20.5C 62.6919,20.1924 62.0253,19.6924 61.5,19C 62.3862,17.3853 63.3862,15.8853 64.5,14.5 Z"/></g>
<g><path style="opacity:0.91" fill="#f7f7f7" d="M 39.5,42.5 C 51.9506,42.8931 63.6172,45.3931 74.5,50C 81.5929,54.7638 88.9263,59.0972 96.5,63C 101.29,69.4592 106.457,75.6259 112,81.5C 114.667,88.1667 117.333,94.8333 120,101.5C 121.424,107.776 121.758,114.109 121,120.5C 115.696,130.473 107.862,137.639 97.5,142C 80.9344,148.957 63.6011,151.291 45.5,149C 34.7161,144.163 35.0495,139.83 46.5,136C 59.4877,134.068 72.4877,132.735 85.5,132C 107.942,125.62 113.775,112.12 103,91.5C 97.828,85.995 92.328,80.8283 86.5,76C 76.6401,72.4034 67.3068,67.7367 58.5,62C 51.1613,60.0878 44.1613,57.4212 37.5,54C 36.7402,52.5589 36.0736,51.0589 35.5,49.5C 37.0981,47.3021 38.4314,44.9687 39.5,42.5 Z"/></g>
<g><path style="opacity:1" fill="#242424" d="M 42.5,47.5 C 44.5273,47.3379 46.5273,47.5045 48.5,48C 49.3366,49.0113 49.67,50.1779 49.5,51.5C 47.4357,51.313 45.4357,50.813 43.5,50C 42.7476,49.3292 42.4142,48.4959 42.5,47.5 Z"/></g>
<g><path style="opacity:1" fill="#151515" d="M 53.5,49.5 C 55.1789,49.8923 56.8455,50.3923 58.5,51C 59.731,52.1827 59.731,53.3493 58.5,54.5C 55.5943,53.9132 53.9276,52.2465 53.5,49.5 Z"/></g>
<g><path style="opacity:1" fill="#181818" d="M 62.5,54.5 C 65.8048,54.5414 67.9715,55.8748 69,58.5C 68.2825,59.4506 67.4491,59.6172 66.5,59C 64.3645,58.1237 63.0312,56.6237 62.5,54.5 Z"/></g>
<g><path style="opacity:1" fill="#191919" d="M 71.5,59.5 C 74.1398,59.954 76.4732,61.1207 78.5,63C 76.5415,64.579 74.5415,64.4124 72.5,62.5C 71.6143,61.675 71.281,60.675 71.5,59.5 Z"/></g>
<g><path style="opacity:1" fill="#111111" d="M 80.5,65.5 C 82.4835,65.3832 84.1502,66.0499 85.5,67.5C 86.8333,68.5 86.8333,69.5 85.5,70.5C 82.7877,69.788 81.1211,68.1213 80.5,65.5 Z"/></g>
<g><path style="opacity:1" fill="#1e1e1e" d="M 89.5,70.5 C 92.1398,70.954 94.4732,72.1207 96.5,74C 95.4071,75.3654 94.0738,75.6987 92.5,75C 90.5614,74.0922 89.5614,72.5922 89.5,70.5 Z"/></g>
<g><path style="opacity:1" fill="#1c1c1c" d="M 98.5,76.5 C 100.886,77.3733 102.886,78.8733 104.5,81C 103.725,82.2295 102.725,82.5628 101.5,82C 100.315,80.647 98.9814,79.4803 97.5,78.5C 97.8627,77.8165 98.1961,77.1499 98.5,76.5 Z"/></g>
<g><path style="opacity:1" fill="#181818" d="M 105.5,84.5 C 108.621,85.2876 110.288,87.2876 110.5,90.5C 108.022,89.8051 106.022,88.3051 104.5,86C 105.056,85.6174 105.389,85.1174 105.5,84.5 Z"/></g>
<g><path style="opacity:1" fill="#181818" d="M 111.5,92.5 C 114.95,93.7366 115.95,96.07 114.5,99.5C 112.151,97.7962 111.151,95.4629 111.5,92.5 Z"/></g>
<g><path style="opacity:1" fill="#1a1a1a" d="M 114.5,102.5 C 115.5,102.5 116.5,102.5 117.5,102.5C 117.5,104.833 117.5,107.167 117.5,109.5C 116.5,109.5 115.5,109.5 114.5,109.5C 114.5,107.167 114.5,104.833 114.5,102.5 Z"/></g>
<g><path style="opacity:1" fill="#1b1b1b" d="M 113.5,113.5 C 114.675,113.281 115.675,113.614 116.5,114.5C 115.877,116.711 114.877,118.711 113.5,120.5C 112.692,120.192 112.025,119.692 111.5,119C 112.244,117.185 112.911,115.352 113.5,113.5 Z"/></g>
<g><path style="opacity:1" fill="#1b1b1b" d="M 109.5,122.5 C 110.586,122.62 111.253,123.287 111.5,124.5C 110.952,126.556 109.786,128.223 108,129.5C 107.308,128.975 106.808,128.308 106.5,127.5C 107.763,125.971 108.763,124.305 109.5,122.5 Z"/></g>
<g><path style="opacity:1" fill="#191919" d="M 102.5,129.5 C 104.085,130.002 104.585,131.002 104,132.5C 102.29,133.945 100.456,134.778 98.5,135C 98.0426,134.586 97.7093,134.086 97.5,133.5C 99.4192,132.388 101.086,131.054 102.5,129.5 Z"/></g>
<g><path style="opacity:1" fill="#161616" d="M 91.5,135.5 C 96.5731,136.881 96.2397,138.215 90.5,139.5C 89.8333,139.167 89.1667,138.833 88.5,138.5C 89.3398,137.265 90.3398,136.265 91.5,135.5 Z"/></g>
<g><path style="opacity:1" fill="#1c1c1c" d="M 80.5,139.5 C 82.1667,139.5 83.8333,139.5 85.5,139.5C 85.5,140.5 85.5,141.5 85.5,142.5C 83.139,142.674 80.8056,143.007 78.5,143.5C 78.5271,141.801 79.1938,140.467 80.5,139.5 Z"/></g>
<g><path style="opacity:1" fill="#111111" d="M 47.5,141.5 C 49.8333,141.5 52.1667,141.5 54.5,141.5C 54.5,142.5 54.5,143.5 54.5,144.5C 52.1667,144.5 49.8333,144.5 47.5,144.5C 47.5,143.5 47.5,142.5 47.5,141.5 Z"/></g>
<g><path style="opacity:1" fill="#161616" d="M 68.5,141.5 C 70.8333,141.5 73.1667,141.5 75.5,141.5C 75.5,142.5 75.5,143.5 75.5,144.5C 73.1667,144.5 70.8333,144.5 68.5,144.5C 68.5,143.5 68.5,142.5 68.5,141.5 Z"/></g>
<g><path style="opacity:1" fill="#1b1b1b" d="M 57.5,141.5 C 59.8333,141.5 62.1667,141.5 64.5,141.5C 64.5,142.5 64.5,143.5 64.5,144.5C 62.1667,144.5 59.8333,144.5 57.5,144.5C 57.5,143.5 57.5,142.5 57.5,141.5 Z"/></g>
</svg>
