<?xml version="1.0" encoding="UTF-8"?>
<!DOCTYPE svg PUBLIC "-//W3C//DTD SVG 1.1//EN" "http://www.w3.org/Graphics/SVG/1.1/DTD/svg11.dtd">
<svg xmlns="http://www.w3.org/2000/svg" version="1.1" width="160px" height="160px" style="shape-rendering:geometricPrecision; text-rendering:geometricPrecision; image-rendering:optimizeQuality; fill-rule:evenodd; clip-rule:evenodd" xmlns:xlink="http://www.w3.org/1999/xlink">
<g><path style="opacity:0.83" fill="#f6f6f6" d="M 100.5,12.5 C 104.661,14.0628 108.995,14.7295 113.5,14.5C 113.023,21.6839 109.19,26.0173 102,27.5C 98.2899,27.0309 96.4565,24.8643 96.5,21C 97.1873,17.8275 98.5206,14.9942 100.5,12.5 Z"/></g>
<g><path style="opacity:1" fill="#1f1f1f" d="M 105.5,17.5 C 106.995,17.4148 107.995,18.0815 108.5,19.5C 106.513,21.3274 104.179,22.3274 101.5,22.5C 101.281,21.325 101.614,20.325 102.5,19.5C 103.739,19.0576 104.739,18.3909 105.5,17.5 Z"/></g>
<g><path style="opacity:0.925" fill="#f7f7f7" d="M 105.5,49.5 C 124.31,47.4778 135.143,55.8111 138,74.5C 140.684,85.9747 139.35,96.9747 134,107.5C 131.512,109.743 128.846,111.743 126,113.5C 125.04,117.298 123.706,120.965 122,124.5C 115.917,128.459 109.751,132.292 103.5,136C 93.0886,138.789 82.922,142.289 73,146.5C 67.3601,144.567 61.6935,144.233 56,145.5C 47.5962,144.351 39.4295,142.184 31.5,139C 23.2174,128.254 18.2174,116.421 16.5,103.5C 17.2288,95.4169 18.3954,87.4169 20,79.5C 23.1322,71.5564 27.9656,64.8897 34.5,59.5C 37.1332,60.3001 39.1332,61.8001 40.5,64C 38.6899,75.1418 35.8565,85.9751 32,96.5C 30.4726,108.981 34.6392,119.148 44.5,127C 46.7173,128.275 49.0506,129.275 51.5,130C 56.5348,130.384 61.3682,130.551 66,130.5C 76.4799,126.87 87.1465,123.87 98,121.5C 109.537,119.013 118.037,112.18 123.5,101C 122.203,91.3607 117.203,89.1941 108.5,94.5C 103.105,93.7167 98.1045,92.5501 93.5,91C 84.296,76.9635 85.9626,63.9635 98.5,52C 100.927,51.0977 103.26,50.2644 105.5,49.5 Z M 110.5,66.5 C 113.386,67.0483 115.386,68.715 116.5,71.5C 113.859,73.3717 111.193,74.3717 108.5,74.5C 107.015,71.2476 107.682,68.581 110.5,66.5 Z"/></g>
<g><path style="opacity:1" fill="#0c0c0c" d="M 108.5,53.5 C 110.833,53.5 113.167,53.5 115.5,53.5C 115.5,54.5 115.5,55.5 115.5,56.5C 113.167,56.5 110.833,56.5 108.5,56.5C 108.5,55.5 108.5,54.5 108.5,53.5 Z"/></g>
<g><path style="opacity:1" fill="#1d1d1d" d="M 103.5,55.5 C 105.085,56.0024 105.585,57.0024 105,58.5C 103.29,59.9448 101.456,60.7782 99.5,61C 99.0426,60.586 98.7093,60.086 98.5,59.5C 100.21,58.1128 101.877,56.7794 103.5,55.5 Z"/></g>
<g><path style="opacity:1" fill="#272727" d="M 119.5,56.5 C 122.621,57.2876 124.288,59.2876 124.5,62.5C 120.438,62.1312 118.771,60.1312 119.5,56.5 Z"/></g>
<g><path style="opacity:1" fill="#1d1d1d" d="M 94.5,63.5 C 95.5,63.5 96.5,63.5 97.5,63.5C 97.3274,66.1795 96.3274,68.5128 94.5,70.5C 93.5,70.1667 92.8333,69.5 92.5,68.5C 93.9501,67.1502 94.6168,65.4835 94.5,63.5 Z"/></g>
<g><path style="opacity:0.738" fill="#0a0a0a" d="M 108.5,64.5 C 114.155,63.9768 117.822,66.4768 119.5,72C 118.249,74.3029 116.249,75.6362 113.5,76C 110.518,76.498 107.518,76.6646 104.5,76.5C 104.056,71.8311 105.39,67.8311 108.5,64.5 Z M 110.5,66.5 C 107.682,68.581 107.015,71.2476 108.5,74.5C 111.193,74.3717 113.859,73.3717 116.5,71.5C 115.386,68.715 113.386,67.0483 110.5,66.5 Z"/></g>
<g><path style="opacity:1" fill="#171717" d="M 33.5,64.5 C 34.9953,64.4148 35.9953,65.0815 36.5,66.5C 35.8153,68.5473 34.6486,70.2139 33,71.5C 32.5,71.1667 32,70.8333 31.5,70.5C 32.7472,68.677 33.4139,66.677 33.5,64.5 Z"/></g>
<g><path style="opacity:1" fill="#131313" d="M 124.5,65.5 C 125.5,65.5 126.5,65.5 127.5,65.5C 127.519,67.0603 127.852,68.5603 128.5,70C 128.37,71.0588 127.87,71.8921 127,72.5C 125.477,70.4308 124.643,68.0974 124.5,65.5 Z"/></g>
<g><path style="opacity:1" fill="#1c1c1c" d="M 92.5,73.5 C 93.5,73.5 94.5,73.5 95.5,73.5C 95.5,75.8333 95.5,78.1667 95.5,80.5C 94.5,80.5 93.5,80.5 92.5,80.5C 92.5,78.1667 92.5,75.8333 92.5,73.5 Z"/></g>
<g><path style="opacity:1" fill="#1a1a1a" d="M 29.5,74.5 C 30.675,74.281 31.675,74.6143 32.5,75.5C 31.4981,77.5101 30.4981,79.5101 29.5,81.5C 28.5,81.1667 27.8333,80.5 27.5,79.5C 28.1744,77.8045 28.8411,76.1379 29.5,74.5 Z"/></g>
<g><path style="opacity:1" fill="#151515" d="M 126.5,75.5 C 127.5,75.5 128.5,75.5 129.5,75.5C 129.343,76.8734 129.51,78.2068 130,79.5C 131.131,78.3961 131.965,78.7295 132.5,80.5C 130.707,83.1973 128.374,83.864 125.5,82.5C 126.374,80.2534 126.708,77.9201 126.5,75.5 Z"/></g>
<g><path style="opacity:1" fill="#1c1c1c" d="M 96.5,83.5 C 98.679,83.84 100.512,84.84 102,86.5C 102.563,87.7248 102.23,88.7248 101,89.5C 99.0748,88.1196 97.2415,86.6196 95.5,85C 96.056,84.6174 96.3893,84.1174 96.5,83.5 Z"/></g>
<g><path style="opacity:1" fill="#1f1f1f" d="M 24.5,84.5 C 25.5,84.5 26.5,84.5 27.5,84.5C 28.4015,88.2407 27.0681,90.2407 23.5,90.5C 23.8333,88.5 24.1667,86.5 24.5,84.5 Z"/></g>
<g><path style="opacity:1" fill="#1b1b1b" d="M 120.5,83.5 C 121.995,83.4148 122.995,84.0815 123.5,85.5C 121.51,86.4981 119.51,87.4981 117.5,88.5C 116.417,87.635 116.251,86.635 117,85.5C 118.302,84.9152 119.469,84.2485 120.5,83.5 Z"/></g>
<g><path style="opacity:1" fill="#020202" d="M 127.5,86.5 C 128.5,86.5 129.5,86.5 130.5,86.5C 130.5,88.5 130.5,90.5 130.5,92.5C 129.5,92.5 128.5,92.5 127.5,92.5C 127.5,90.5 127.5,88.5 127.5,86.5 Z"/></g>
<g><path style="opacity:1" fill="#282828" d="M 105.5,87.5 C 107.833,87.5 110.167,87.5 112.5,87.5C 112.5,88.5 112.5,89.5 112.5,90.5C 110.473,90.6621 108.473,90.4955 106.5,90C 105.748,89.3292 105.414,88.4959 105.5,87.5 Z"/></g>
<g><path style="opacity:1" fill="#1e1e1e" d="M 22.5,94.5 C 23.5,94.5 24.5,94.5 25.5,94.5C 25.5,96.8333 25.5,99.1667 25.5,101.5C 24.5,101.5 23.5,101.5 22.5,101.5C 22.5,99.1667 22.5,96.8333 22.5,94.5 Z"/></g>
<g><path style="opacity:1" fill="#0f0f0f" d="M 127.5,96.5 C 128.5,96.5 129.5,96.5 130.5,96.5C 130.007,98.8056 129.674,101.139 129.5,103.5C 128.5,103.5 127.5,103.5 126.5,103.5C 126.993,101.194 127.326,98.861 127.5,96.5 Z"/></g>
<g><path style="opacity:1" fill="#191919" d="M 23.5,104.5 C 24.5,104.5 25.5,104.5 26.5,104.5C 26.9926,106.806 27.3259,109.139 27.5,111.5C 26.5,111.5 25.5,111.5 24.5,111.5C 24.3259,109.139 23.9926,106.806 23.5,104.5 Z"/></g>
<g><path style="opacity:1" fill="#161616" d="M 124.5,106.5 C 125.497,106.47 126.164,106.97 126.5,108C 126.16,111.548 124.493,112.714 121.5,111.5C 122.26,109.64 123.26,107.973 124.5,106.5 Z"/></g>
<g><path style="opacity:1" fill="#181818" d="M 27.5,114.5 C 29.8337,116.176 30.8337,118.509 30.5,121.5C 29.5,121.5 28.5,121.5 27.5,121.5C 26.5615,119.09 26.5615,116.756 27.5,114.5 Z"/></g>
<g><path style="opacity:1" fill="#212121" d="M 118.5,114.5 C 119.497,114.47 120.164,114.97 120.5,116C 119.964,118.24 118.797,120.073 117,121.5C 116.13,120.892 115.63,120.059 115.5,119C 116.315,117.357 117.315,115.857 118.5,114.5 Z"/></g>
<g><path style="opacity:1" fill="#1c1c1c" d="M 111.5,121.5 C 113.085,122.002 113.585,123.002 113,124.5C 111.263,127.533 109.097,128.033 106.5,126C 108.618,124.951 110.284,123.451 111.5,121.5 Z"/></g>
<g><path style="opacity:1" fill="#191919" d="M 30.5,124.5 C 34.7701,125.543 35.9368,127.877 34,131.5C 32.1207,129.473 30.954,127.14 30.5,124.5 Z"/></g>
<g><path style="opacity:1" fill="#191919" d="M 102.5,128.5 C 103.756,128.461 104.756,128.961 105.5,130C 103.473,131.879 101.14,133.046 98.5,133.5C 98.281,132.325 98.6143,131.325 99.5,130.5C 100.739,130.058 101.739,129.391 102.5,128.5 Z"/></g>
<g><path style="opacity:1" fill="#1a1a1a" d="M 38.5,131.5 C 40.3863,132.361 42.2196,133.361 44,134.5C 44.5628,135.725 44.2295,136.725 43,137.5C 41.0266,136.36 39.1933,135.027 37.5,133.5C 37.8627,132.817 38.1961,132.15 38.5,131.5 Z"/></g>
<g><path style="opacity:1" fill="#151515" d="M 92.5,133.5 C 93.5,133.5 94.5,133.5 95.5,133.5C 95.5,134.5 95.5,135.5 95.5,136.5C 93.4884,137.014 91.4884,137.18 89.5,137C 89.1667,136.667 88.8333,136.333 88.5,136C 89.8584,135.066 91.1917,134.232 92.5,133.5 Z"/></g>
<g><path style="opacity:1" fill="#171717" d="M 47.5,136.5 C 49.8056,136.993 52.139,137.326 54.5,137.5C 54.5,138.5 54.5,139.5 54.5,140.5C 52.1944,140.007 49.861,139.674 47.5,139.5C 47.5,138.5 47.5,137.5 47.5,136.5 Z"/></g>
<g><path style="opacity:1" fill="#1b1b1b" d="M 78.5,136.5 C 80.8333,136.5 83.1667,136.5 85.5,136.5C 85.5,137.5 85.5,138.5 85.5,139.5C 83.1667,139.5 80.8333,139.5 78.5,139.5C 78.5,138.5 78.5,137.5 78.5,136.5 Z"/></g>
<g><path style="opacity:1" fill="#101010" d="M 68.5,137.5 C 70.8333,137.5 73.1667,137.5 75.5,137.5C 75.5,138.5 75.5,139.5 75.5,140.5C 73.1667,140.5 70.8333,140.5 68.5,140.5C 68.5,139.5 68.5,138.5 68.5,137.5 Z"/></g>
<g><path style="opacity:1" fill="#0f0f0f" d="M 57.5,137.5 C 59.8333,137.5 62.1667,137.5 64.5,137.5C 64.5,138.5 64.5,139.5 64.5,140.5C 62.1667,140.5 59.8333,140.5 57.5,140.5C 57.5,139.5 57.5,138.5 57.5,137.5 Z"/></g>
</svg>
