<?xml version="1.0" encoding="UTF-8"?>
<!DOCTYPE svg PUBLIC "-//W3C//DTD SVG 1.1//EN" "http://www.w3.org/Graphics/SVG/1.1/DTD/svg11.dtd">
<svg xmlns="http://www.w3.org/2000/svg" version="1.1" width="160px" height="160px" style="shape-rendering:geometricPrecision; text-rendering:geometricPrecision; image-rendering:optimizeQuality; fill-rule:evenodd; clip-rule:evenodd" xmlns:xlink="http://www.w3.org/1999/xlink">
<g><path style="opacity:0.821" fill="#f2f2f2" d="M 79.5,15.5 C 78.5943,16.9649 77.261,17.9649 75.5,18.5C 74.1667,19.5 74.1667,20.5 75.5,21.5C 78.4057,20.9132 80.0724,19.2465 80.5,16.5C 84.417,18.5217 86.0837,21.855 85.5,26.5C 79.2272,25.0162 72.8938,23.6829 66.5,22.5C 68.4266,15.1769 72.76,12.8436 79.5,15.5 Z"/></g>
<g><path style="opacity:0.997" fill="#121212" d="M 79.5,15.5 C 80.1667,15.5 80.5,15.8333 80.5,16.5C 80.0724,19.2465 78.4057,20.9132 75.5,21.5C 74.1667,20.5 74.1667,19.5 75.5,18.5C 77.261,17.9649 78.5943,16.9649 79.5,15.5 Z"/></g>
<g><path style="opacity:0.908" fill="#f6f6f6" d="M 88.5,50.5 C 87.8444,49.7222 87.0111,49.0556 86,48.5C 84.2341,49.2335 82.4008,49.5668 80.5,49.5C 80.5,50.5 80.5,51.5 80.5,52.5C 83.2372,52.5987 85.9039,52.2653 88.5,51.5C 87.7659,52.7079 87.4326,54.0413 87.5,55.5C 83.0154,55.717 79.0154,57.217 75.5,60C 71.9651,62.8384 71.6318,66.0051 74.5,69.5C 80.5912,71.5369 85.5912,75.0369 89.5,80C 88.2567,81.1545 87.2567,82.4878 86.5,84C 75.4208,91.7419 64.9208,100.242 55,109.5C 50.2358,121.809 54.0691,130.309 66.5,135C 70.5,135.667 74.5,135.667 78.5,135C 84.2708,132.949 89.9374,130.616 95.5,128C 100.891,122.276 106.891,117.276 113.5,113C 114.944,112.219 116.277,112.386 117.5,113.5C 118.54,115.523 119.54,117.523 120.5,119.5C 118.772,125.294 115.772,130.294 111.5,134.5C 98.004,145.382 82.6707,149.216 65.5,146C 59.0852,143.528 52.7519,140.862 46.5,138C 38.3651,131.911 35.8651,124.078 39,114.5C 43.5648,102.671 50.5648,92.6715 60,84.5C 62.1177,81.4457 61.7844,78.779 59,76.5C 59.6579,72.7738 58.8246,69.2738 56.5,66C 57.8708,62.06 59.5374,58.2266 61.5,54.5C 68.7548,49.3744 76.4215,45.041 84.5,41.5C 88.7727,43.3791 90.106,46.3791 88.5,50.5 Z"/></g>
<g><path style="opacity:1" fill="#292929" d="M 88.5,50.5 C 88.5,50.8333 88.5,51.1667 88.5,51.5C 85.9039,52.2653 83.2372,52.5987 80.5,52.5C 80.5,51.5 80.5,50.5 80.5,49.5C 82.4008,49.5668 84.2341,49.2335 86,48.5C 87.0111,49.0556 87.8444,49.7222 88.5,50.5 Z"/></g>
<g><path style="opacity:1" fill="#1f1f1f" d="M 74.5,50.5 C 75.5,50.5 76.5,50.5 77.5,50.5C 77.0724,53.2465 75.4057,54.9132 72.5,55.5C 71.5,55.1667 70.8333,54.5 70.5,53.5C 71.9014,52.4793 73.2347,51.4793 74.5,50.5 Z"/></g>
<g><path style="opacity:1" fill="#141414" d="M 66.5,56.5 C 67.4972,56.4701 68.1639,56.9701 68.5,58C 68.16,61.5477 66.4933,62.7144 63.5,61.5C 64.2599,59.6396 65.2599,57.973 66.5,56.5 Z"/></g>
<g><path style="opacity:1" fill="#191919" d="M 61.5,66.5 C 62.8221,66.33 63.9887,66.6634 65,67.5C 65.8077,69.5787 65.641,71.5787 64.5,73.5C 62.9182,71.4229 61.9182,69.0896 61.5,66.5 Z"/></g>
<g><path style="opacity:1" fill="#181818" d="M 67.5,75.5 C 70.8048,75.5414 72.9715,76.8748 74,79.5C 73.2825,80.4506 72.4491,80.6172 71.5,80C 69.3645,79.1237 68.0312,77.6237 67.5,75.5 Z"/></g>
<g><path style="opacity:1" fill="#1e1e1e" d="M 79.5,76.5 C 80.5,76.5 81.5,76.5 82.5,76.5C 82.5,78.8333 82.5,81.1667 82.5,83.5C 81.5,83.5 80.5,83.5 79.5,83.5C 79.5,81.1667 79.5,78.8333 79.5,76.5 Z"/></g>
<g><path style="opacity:1" fill="#1e1e1e" d="M 72.5,83.5 C 73.5,83.5 74.5,83.5 75.5,83.5C 75.1484,86.1141 73.6484,87.7808 71,88.5C 69.9412,88.3699 69.1079,87.8699 68.5,87C 70.0931,86.0513 71.4264,84.8846 72.5,83.5 Z"/></g>
<g><path style="opacity:1" fill="#212121" d="M 63.5,89.5 C 65.1033,89.3118 66.4366,89.8118 67.5,91C 65.7585,92.6196 63.9252,94.1196 62,95.5C 61.3076,94.9747 60.8076,94.3081 60.5,93.5C 61.5244,92.1482 62.5244,90.8149 63.5,89.5 Z"/></g>
<g><path style="opacity:1" fill="#1c1c1c" d="M 57.5,96.5 C 58.4778,96.811 59.1445,97.4777 59.5,98.5C 58.1667,100.167 56.8333,101.833 55.5,103.5C 54.5,103.167 53.8333,102.5 53.5,101.5C 54.8569,99.8144 56.1902,98.1477 57.5,96.5 Z"/></g>
<g><path style="opacity:1" fill="#0c0c0c" d="M 50.5,105.5 C 51.552,105.351 52.552,105.517 53.5,106C 49.3243,113.462 48.3243,113.295 50.5,105.5 Z"/></g>
<g><path style="opacity:1" fill="#1b1b1b" d="M 45.5,114.5 C 46.5,114.5 47.5,114.5 48.5,114.5C 48.5,116.833 48.5,119.167 48.5,121.5C 47.5,121.5 46.5,121.5 45.5,121.5C 45.5,119.167 45.5,116.833 45.5,114.5 Z"/></g>
<g><path style="opacity:1" fill="#1c1c1c" d="M 111.5,120.5 C 112.5,120.5 113.5,120.5 114.5,120.5C 114.405,123.272 113.071,125.272 110.5,126.5C 109.692,126.192 109.025,125.692 108.5,125C 109.883,123.729 110.883,122.229 111.5,120.5 Z"/></g>
<g><path style="opacity:1" fill="#121212" d="M 45.5,125.5 C 49.1815,126.857 50.0148,129.19 48,132.5C 46.4766,130.431 45.6432,128.097 45.5,125.5 Z"/></g>
<g><path style="opacity:1" fill="#1a1a1a" d="M 105.5,127.5 C 107.085,128.002 107.585,129.002 107,130.5C 105.29,131.945 103.456,132.778 101.5,133C 101.167,132.667 100.833,132.333 100.5,132C 102.063,130.264 103.73,128.764 105.5,127.5 Z"/></g>
<g><path style="opacity:1" fill="#1f1f1f" d="M 95.5,133.5 C 96.5,133.5 97.5,133.5 98.5,133.5C 98.0724,136.246 96.4057,137.913 93.5,138.5C 92.5,138.167 91.8333,137.5 91.5,136.5C 92.9014,135.479 94.2347,134.479 95.5,133.5 Z"/></g>
<g><path style="opacity:1" fill="#1d1d1d" d="M 51.5,133.5 C 55.5883,133.891 57.255,135.891 56.5,139.5C 53.4665,138.518 51.7998,136.518 51.5,133.5 Z"/></g>
<g><path style="opacity:1" fill="#161616" d="M 85.5,137.5 C 86.5,137.5 87.5,137.5 88.5,137.5C 88.5,138.5 88.5,139.5 88.5,140.5C 86.139,140.674 83.8056,141.007 81.5,141.5C 81.5,140.5 81.5,139.5 81.5,138.5C 83.099,138.768 84.4324,138.434 85.5,137.5 Z"/></g>
<g><path style="opacity:1" fill="#191919" d="M 61.5,137.5 C 63.3792,138.341 65.3792,138.675 67.5,138.5C 67.5,139.5 67.5,140.5 67.5,141.5C 64.9412,141.61 62.6079,140.944 60.5,139.5C 60.8627,138.817 61.1961,138.15 61.5,137.5 Z"/></g>
<g><path style="opacity:1" fill="#0b0b0b" d="M 71.5,139.5 C 73.8333,139.5 76.1667,139.5 78.5,139.5C 78.5,140.5 78.5,141.5 78.5,142.5C 76.1667,142.5 73.8333,142.5 71.5,142.5C 71.5,141.5 71.5,140.5 71.5,139.5 Z"/></g>
</svg>
