<?xml version="1.0" encoding="UTF-8"?>
<!DOCTYPE svg PUBLIC "-//W3C//DTD SVG 1.1//EN" "http://www.w3.org/Graphics/SVG/1.1/DTD/svg11.dtd">
<svg xmlns="http://www.w3.org/2000/svg" version="1.1" width="160px" height="160px" style="shape-rendering:geometricPrecision; text-rendering:geometricPrecision; image-rendering:optimizeQuality; fill-rule:evenodd; clip-rule:evenodd" xmlns:xlink="http://www.w3.org/1999/xlink">
<g><path style="opacity:0.913" fill="#f8f8f8" d="M 44.5,17.5 C 62.3974,19.1478 80.3974,20.1478 98.5,20.5C 104.256,20.7148 109.756,19.7148 115,17.5C 118.745,18.297 122.579,18.797 126.5,19C 127.967,20.0975 128.801,21.5975 129,23.5C 129.498,26.4816 129.665,29.4816 129.5,32.5C 118.257,35.3193 106.923,37.8193 95.5,40C 73.7992,46.3666 58.2992,59.8666 49,80.5C 48.5657,88.8705 48.399,97.0371 48.5,105C 52.181,115.338 59.5144,121.338 70.5,123C 82.8333,123.667 95.1667,123.667 107.5,123C 112.784,122.188 118.284,121.021 124,119.5C 131.396,120.143 133.396,123.81 130,130.5C 126.291,133.541 122.124,135.708 117.5,137C 101.986,140.248 86.3191,141.248 70.5,140C 62.2707,137.219 54.2707,133.885 46.5,130C 39.4326,123.271 34.4326,115.271 31.5,106C 33.1191,93.7956 35.2858,80.9623 38,67.5C 40.254,63.9934 42.254,60.3267 44,56.5C 46.039,54.1255 48.3723,52.1255 51,50.5C 52.5862,48.3295 53.9196,45.9962 55,43.5C 59.2893,42.4432 63.456,40.9432 67.5,39C 70.633,34.4302 69.4663,31.5969 64,30.5C 50.6129,32.8614 37.4462,34.3614 24.5,35C 20.673,31.9053 20.673,28.9053 24.5,26C 30.6832,21.7338 37.3498,18.9005 44.5,17.5 Z"/></g>
<g><path style="opacity:1" fill="#000000" d="M 60.5,24.5 C 68.5,25.1667 68.5,25.8333 60.5,26.5C 60.5,25.8333 60.5,25.1667 60.5,24.5 Z"/></g>
<g><path style="opacity:1" fill="#1d1d1d" d="M 70.5,24.5 C 72.8333,24.5 75.1667,24.5 77.5,24.5C 77.5,25.5 77.5,26.5 77.5,27.5C 75.1667,27.5 72.8333,27.5 70.5,27.5C 70.5,26.5 70.5,25.5 70.5,24.5 Z"/></g>
<g><path style="opacity:1" fill="#1e1e1e" d="M 41.5,24.5 C 43.1667,24.5 44.8333,24.5 46.5,24.5C 46.5,25.5 46.5,26.5 46.5,27.5C 44.4086,27.3184 42.4086,27.6518 40.5,28.5C 40.1667,28 39.8333,27.5 39.5,27C 40.0556,25.9889 40.7222,25.1556 41.5,24.5 Z"/></g>
<g><path style="opacity:1" fill="#171717" d="M 91.5,24.5 C 93.8333,24.5 96.1667,24.5 98.5,24.5C 98.5,25.5 98.5,26.5 98.5,27.5C 96.1667,27.5 93.8333,27.5 91.5,27.5C 91.5,26.5 91.5,25.5 91.5,24.5 Z"/></g>
<g><path style="opacity:1" fill="#101010" d="M 102.5,25.5 C 104.833,25.5 107.167,25.5 109.5,25.5C 109.265,29.8035 106.931,31.4702 102.5,30.5C 102.5,28.8333 102.5,27.1667 102.5,25.5 Z"/></g>
<g><path style="opacity:1" fill="#111111" d="M 113.5,25.5 C 115.833,25.5 118.167,25.5 120.5,25.5C 120.5,26.5 120.5,27.5 120.5,28.5C 118.167,28.5 115.833,28.5 113.5,28.5C 113.5,27.5 113.5,26.5 113.5,25.5 Z"/></g>
<g><path style="opacity:1" fill="#1f1f1f" d="M 49.5,24.5 C 51.8333,24.5 54.1667,24.5 56.5,24.5C 56.5,25.5 56.5,26.5 56.5,27.5C 54.1667,27.5 51.8333,27.5 49.5,27.5C 49.5,26.5 49.5,25.5 49.5,24.5 Z"/></g>
<g><path style="opacity:1" fill="#757575" d="M 60.5,24.5 C 62.6074,23.5318 64.9407,23.1984 67.5,23.5C 67.5,24.8333 67.5,26.1667 67.5,27.5C 64.9407,27.8016 62.6074,27.4682 60.5,26.5C 68.5,25.8333 68.5,25.1667 60.5,24.5 Z"/></g>
<g><path style="opacity:1" fill="#191919" d="M 81.5,24.5 C 83.8333,24.5 86.1667,24.5 88.5,24.5C 88.5,25.5 88.5,26.5 88.5,27.5C 86.1667,27.5 83.8333,27.5 81.5,27.5C 81.5,26.5 81.5,25.5 81.5,24.5 Z"/></g>
<g><path style="opacity:1" fill="#2c2c2c" d="M 34.5,26.5 C 36.4663,27.2545 36.7996,28.4212 35.5,30C 33.1902,30.4966 30.8568,30.6633 28.5,30.5C 28.5,29.5 28.5,28.5 28.5,27.5C 30.7354,27.7947 32.7354,27.4614 34.5,26.5 Z"/></g>
<g><path style="opacity:1" fill="#1d1d1d" d="M 96.5,28.5 C 98.4646,28.9483 98.7979,29.9483 97.5,31.5C 95.4841,32.7059 93.4841,32.7059 91.5,31.5C 92.9469,30.0652 94.6136,29.0652 96.5,28.5 Z"/></g>
<g><path style="opacity:1" fill="#1b1b1b" d="M 85.5,31.5 C 86.5,31.5 87.5,31.5 88.5,31.5C 88.719,32.675 88.3857,33.675 87.5,34.5C 84.8441,36.5685 82.8441,36.4018 81.5,34C 82.8584,33.0656 84.1917,32.2323 85.5,31.5 Z"/></g>
<g><path style="opacity:1" fill="#131313" d="M 76.5,35.5 C 77.7562,35.4614 78.7562,35.9614 79.5,37C 77.243,39.3687 74.9097,40.0353 72.5,39C 73.6856,37.5879 75.019,36.4212 76.5,35.5 Z"/></g>
<g><path style="opacity:1" fill="#1e1e1e" d="M 67.5,40.5 C 68.9953,40.4148 69.9953,41.0815 70.5,42.5C 68.8067,44.0267 66.9734,45.3601 65,46.5C 64.3076,45.9747 63.8076,45.3081 63.5,44.5C 64.8665,43.16 66.1999,41.8267 67.5,40.5 Z"/></g>
<g><path style="opacity:1" fill="#252525" d="M 58.5,47.5 C 60.1033,47.3118 61.4366,47.8118 62.5,49C 60.9571,50.8783 59.1238,52.3783 57,53.5C 56.3076,52.9747 55.8076,52.3081 55.5,51.5C 56.5244,50.1482 57.5244,48.8149 58.5,47.5 Z"/></g>
<g><path style="opacity:1" fill="#161616" d="M 51.5,54.5 C 52.9953,54.4148 53.9953,55.0815 54.5,56.5C 53.2418,59.4995 51.2418,60.4995 48.5,59.5C 49.9524,58.0603 50.9524,56.3936 51.5,54.5 Z"/></g>
<g><path style="opacity:1" fill="#191919" d="M 45.5,62.5 C 48.0301,64.9967 47.6968,67.33 44.5,69.5C 43.6919,69.1924 43.0253,68.6924 42.5,68C 43.6394,66.2196 44.6394,64.3863 45.5,62.5 Z"/></g>
<g><path style="opacity:1" fill="#181818" d="M 40.5,72.5 C 41.5,72.5 42.5,72.5 43.5,72.5C 43.0074,74.8056 42.6741,77.139 42.5,79.5C 41.5,79.5 40.5,79.5 39.5,79.5C 39.6741,77.139 40.0074,74.8056 40.5,72.5 Z"/></g>
<g><path style="opacity:1" fill="#323232" d="M 38.5,82.5 C 39.5,82.5 40.5,82.5 41.5,82.5C 41.5,85.1667 41.5,87.8333 41.5,90.5C 40.5,90.5 39.5,90.5 38.5,90.5C 38.5,87.8333 38.5,85.1667 38.5,82.5 Z"/></g>
<g><path style="opacity:1" fill="#1e1e1e" d="M 38.5,93.5 C 39.8221,93.33 40.9887,93.6634 42,94.5C 42.4955,96.4727 42.6621,98.4727 42.5,100.5C 41.5,100.5 40.5,100.5 39.5,100.5C 39.552,98.0971 39.2186,95.7638 38.5,93.5 Z"/></g>
<g><path style="opacity:1" fill="#262626" d="M 40.5,103.5 C 41.8221,103.33 42.9887,103.663 44,104.5C 44.813,106.436 45.313,108.436 45.5,110.5C 42.1653,109.539 40.4986,107.206 40.5,103.5 Z"/></g>
<g><path style="opacity:1" fill="#151515" d="M 44.5,113.5 C 45.4959,113.414 46.3292,113.748 47,114.5C 47.7065,116.081 48.5399,117.581 49.5,119C 48.5761,120.489 47.5761,120.656 46.5,119.5C 45.2528,117.677 44.5861,115.677 44.5,113.5 Z"/></g>
<g><path style="opacity:1" fill="#1b1b1b" d="M 49.5,122.5 C 52.0692,123.396 54.0692,125.062 55.5,127.5C 51.8526,128.21 49.8526,126.543 49.5,122.5 Z"/></g>
<g><path style="opacity:1" fill="#161616" d="M 121.5,124.5 C 122.675,124.281 123.675,124.614 124.5,125.5C 123.421,127.543 121.754,128.876 119.5,129.5C 118.417,128.635 118.251,127.635 119,126.5C 119.995,125.934 120.828,125.267 121.5,124.5 Z"/></g>
<g><path style="opacity:1" fill="#191919" d="M 112.5,128.5 C 113.995,128.415 114.995,129.081 115.5,130.5C 113.711,131.877 111.711,132.877 109.5,133.5C 109.167,133 108.833,132.5 108.5,132C 109.686,130.588 111.019,129.421 112.5,128.5 Z"/></g>
<g><path style="opacity:1" fill="#161616" d="M 57.5,129.5 C 59.8525,130.34 61.8525,131.674 63.5,133.5C 61.4122,134.489 59.4122,134.156 57.5,132.5C 56.4376,131.575 56.4376,130.575 57.5,129.5 Z"/></g>
<g><path style="opacity:1" fill="#1c1c1c" d="M 99.5,132.5 C 101.5,132.5 103.5,132.5 105.5,132.5C 105.5,133.5 105.5,134.5 105.5,135.5C 103.409,135.318 101.409,135.652 99.5,136.5C 98.3744,135.192 98.3744,133.858 99.5,132.5 Z"/></g>
<g><path style="opacity:1" fill="#1a1a1a" d="M 66.5,133.5 C 68.8333,133.5 71.1667,133.5 73.5,133.5C 73.5,134.5 73.5,135.5 73.5,136.5C 71.1667,136.5 68.8333,136.5 66.5,136.5C 66.5,135.5 66.5,134.5 66.5,133.5 Z"/></g>
<g><path style="opacity:1" fill="#050505" d="M 77.5,133.5 C 79.8333,133.5 82.1667,133.5 84.5,133.5C 84.5,134.5 84.5,135.5 84.5,136.5C 82.1667,136.5 79.8333,136.5 77.5,136.5C 77.5,135.5 77.5,134.5 77.5,133.5 Z"/></g>
<g><path style="opacity:1" fill="#1e1e1e" d="M 87.5,133.5 C 89.8333,133.5 92.1667,133.5 94.5,133.5C 94.5,134.5 94.5,135.5 94.5,136.5C 92.1667,136.5 89.8333,136.5 87.5,136.5C 87.5,135.5 87.5,134.5 87.5,133.5 Z"/></g>
</svg>
