<?xml version="1.0" encoding="UTF-8"?>
<!DOCTYPE svg PUBLIC "-//W3C//DTD SVG 1.1//EN" "http://www.w3.org/Graphics/SVG/1.1/DTD/svg11.dtd">
<svg xmlns="http://www.w3.org/2000/svg" version="1.1" width="160px" height="160px" style="shape-rendering:geometricPrecision; text-rendering:geometricPrecision; image-rendering:optimizeQuality; fill-rule:evenodd; clip-rule:evenodd" xmlns:xlink="http://www.w3.org/1999/xlink">
<g><path style="opacity:0.92" fill="#f6f6f6" d="M 112.5,58.5 C 118.691,63.1793 124.524,68.5126 130,74.5C 134.106,81.608 137.772,88.9413 141,96.5C 141.667,98.5 141.667,100.5 141,102.5C 139.078,105.415 137.244,108.415 135.5,111.5C 132.362,112.805 130.029,114.971 128.5,118C 121.132,118.948 113.465,119.781 105.5,120.5C 104.106,120.379 102.772,120.046 101.5,119.5C 98.4941,121.353 95.6607,123.353 93,125.5C 85.8956,123.831 79.0622,122.165 72.5,120.5C 67.3438,123.503 62.3438,126.67 57.5,130C 52.917,130.916 48.417,132.082 44,133.5C 35.978,132.661 27.978,130.661 20,127.5C 19.2446,124.312 18.4113,121.145 17.5,118C 19.4769,114.67 22.4769,112.837 26.5,112.5C 30.7133,115.904 35.5466,117.237 41,116.5C 44.6924,116.401 48.359,116.067 52,115.5C 56.2059,114.472 57.5392,111.805 56,107.5C 53.7342,106.044 51.2342,105.21 48.5,105C 47.2062,102.913 46.0395,100.746 45,98.5C 43.4942,91.5667 43.1609,84.5667 44,77.5C 45.8688,69.2268 48.5355,61.2268 52,53.5C 55.9296,47.9084 59.4296,42.0751 62.5,36C 67.2418,33.8804 71.7418,31.3804 76,28.5C 84.2188,29.8513 91.7188,33.3513 98.5,39C 103.798,45.1181 108.465,51.6181 112.5,58.5 Z M 90.5,49.5 C 91.9305,49.4208 93.2638,49.7542 94.5,50.5C 100.32,56.8036 105.154,63.8036 109,71.5C 118.26,79.6931 123.427,89.6931 124.5,101.5C 123.41,103.003 122.243,103.336 121,102.5C 116.897,103.301 113.063,104.801 109.5,107C 102.89,108.441 96.2236,108.774 89.5,108C 84.8848,106.923 83.3848,104.09 85,99.5C 86.6349,98.2744 88.1349,96.941 89.5,95.5C 89.3195,88.2236 90.6528,81.057 93.5,74C 92.9038,69.7119 91.5705,65.3785 89.5,61C 89.8333,60.6667 90.1667,60.3333 90.5,60C 86.6177,56.2514 86.6177,52.7514 90.5,49.5 Z M 67.5,54.5 C 70.1194,54.2317 72.6194,54.565 75,55.5C 76.0106,64.3985 76.5106,73.2318 76.5,82C 75.4137,84.7519 73.9137,87.2519 72,89.5C 71.308,92.9364 70.308,96.2698 69,99.5C 65.1708,103.663 61.8375,103.329 59,98.5C 57.3581,91.09 57.6914,83.4233 60,75.5C 63.4961,68.4902 65.9961,61.4902 67.5,54.5 Z"/></g>
<g><path style="opacity:1" fill="#161616" d="M 72.5,32.5 C 75.2257,32.2639 77.559,33.0972 79.5,35C 76.1902,37.0148 73.8569,36.1815 72.5,32.5 Z"/></g>
<g><path style="opacity:1" fill="#1e1e1e" d="M 82.5,36.5 C 84.3084,36.4914 85.9751,36.9914 87.5,38C 88.731,39.1827 88.731,40.3493 87.5,41.5C 85.8333,40.6667 84.1667,39.8333 82.5,39C 81.4019,38.2303 81.4019,37.397 82.5,36.5 Z"/></g>
<g><path style="opacity:1" fill="#1a1a1a" d="M 67.5,39.5 C 69.2252,39.8425 69.7252,40.8425 69,42.5C 67.4157,43.8613 65.5824,44.528 63.5,44.5C 63.281,43.325 63.6143,42.325 64.5,41.5C 65.7387,41.0576 66.7387,40.3909 67.5,39.5 Z"/></g>
<g><path style="opacity:1" fill="#181818" d="M 74.5,40.5 C 76.6365,41.4026 78.6365,42.5693 80.5,44C 79.8742,44.7504 79.3742,45.5838 79,46.5C 77.0266,45.3601 75.1933,44.0267 73.5,42.5C 73.8627,41.8165 74.1961,41.1499 74.5,40.5 Z"/></g>
<g><path style="opacity:1" fill="#1e1e1e" d="M 91.5,41.5 C 94.2602,42.4366 96.0936,44.1033 97,46.5C 96.586,46.9574 96.086,47.2907 95.5,47.5C 94.1667,46.5 92.8333,45.5 91.5,44.5C 90.4376,43.5754 90.4376,42.5754 91.5,41.5 Z"/></g>
<g><path style="opacity:1" fill="#1c1c1c" d="M 60.5,47.5 C 61.7562,47.4614 62.7562,47.9614 63.5,49C 62.3601,50.9734 61.0267,52.8067 59.5,54.5C 58.5,54.1667 57.8333,53.5 57.5,52.5C 58.7629,50.9713 59.7629,49.3046 60.5,47.5 Z"/></g>
<g><path style="opacity:1" fill="#1f1f1f" d="M 80.5,48.5 C 83.2465,48.9276 84.9132,50.5943 85.5,53.5C 84.8244,55.3535 83.8244,55.6869 82.5,54.5C 81.2528,52.677 80.5861,50.677 80.5,48.5 Z"/></g>
<g><path style="opacity:1" fill="#1d1d1d" d="M 99.5,48.5 C 101.903,48.393 103.736,49.393 105,51.5C 105.563,52.7248 105.23,53.7248 104,54.5C 102.442,52.6411 100.609,51.1411 98.5,50C 99.056,49.6174 99.3893,49.1174 99.5,48.5 Z"/></g>
<g><path style="opacity:1" fill="#111111" d="M 112.5,58.5 C 112.719,59.675 112.386,60.675 111.5,61.5C 109.684,60.1851 108.017,58.6851 106.5,57C 107.025,56.3076 107.692,55.8076 108.5,55.5C 109.852,56.5244 111.185,57.5244 112.5,58.5 Z"/></g>
<g><path style="opacity:1" fill="#1e1e1e" d="M 54.5,56.5 C 55.5,56.5 56.5,56.5 57.5,56.5C 57.3274,59.1795 56.3274,61.5128 54.5,63.5C 53.5,63.1667 52.8333,62.5 52.5,61.5C 53.4565,59.9246 54.1231,58.258 54.5,56.5 Z"/></g>
<g><path style="opacity:1" fill="#191919" d="M 84.5,58.5 C 85.5,58.5 86.5,58.5 87.5,58.5C 87.5,60.8333 87.5,63.1667 87.5,65.5C 86.5,65.5 85.5,65.5 84.5,65.5C 84.5,63.1667 84.5,60.8333 84.5,58.5 Z"/></g>
<g><path style="opacity:1" fill="#181818" d="M 113.5,63.5 C 116.468,63.6261 118.468,65.1261 119.5,68C 118.725,69.2295 117.725,69.5628 116.5,69C 115.242,67.2591 114.242,65.4258 113.5,63.5 Z"/></g>
<g><path style="opacity:1" fill="#1d1d1d" d="M 50.5,66.5 C 51.552,66.3505 52.552,66.5172 53.5,67C 52.5984,69.2016 51.5984,71.3683 50.5,73.5C 49.5,73.1667 48.8333,72.5 48.5,71.5C 49.1744,69.8045 49.8411,68.1379 50.5,66.5 Z"/></g>
<g><path style="opacity:1" fill="#585858" d="M 87.5,69.5 C 86.3065,69.9704 85.6399,70.9704 85.5,72.5C 85.6399,74.0296 86.3065,75.0296 87.5,75.5C 86.791,76.404 85.791,76.7373 84.5,76.5C 84.5,73.8333 84.5,71.1667 84.5,68.5C 85.791,68.2627 86.791,68.596 87.5,69.5 Z"/></g>
<g><path style="opacity:1" fill="#000000" d="M 87.5,69.5 C 87.5,71.5 87.5,73.5 87.5,75.5C 86.3065,75.0296 85.6399,74.0296 85.5,72.5C 85.6399,70.9704 86.3065,69.9704 87.5,69.5 Z"/></g>
<g><path style="opacity:1" fill="#1d1d1d" d="M 120.5,71.5 C 123.443,73.0482 124.443,75.3815 123.5,78.5C 120.49,76.8341 119.49,74.5007 120.5,71.5 Z"/></g>
<g><path style="opacity:1" fill="#181818" d="M 47.5,76.5 C 48.5,76.5 49.5,76.5 50.5,76.5C 50.5,78.8333 50.5,81.1667 50.5,83.5C 49.5,83.5 48.5,83.5 47.5,83.5C 47.5,81.1667 47.5,78.8333 47.5,76.5 Z"/></g>
<g><path style="opacity:1" fill="#262626" d="M 84.5,79.5 C 85.5,79.5 86.5,79.5 87.5,79.5C 87.3259,81.861 86.9926,84.1944 86.5,86.5C 85.5,86.5 84.5,86.5 83.5,86.5C 83.298,84.0504 83.6314,81.717 84.5,79.5 Z"/></g>
<g><path style="opacity:1" fill="#212121" d="M 125.5,80.5 C 128.083,81.985 129.416,84.3183 129.5,87.5C 125.81,86.4488 124.477,84.1155 125.5,80.5 Z"/></g>
<g><path style="opacity:1" fill="#191919" d="M 47.5,86.5 C 48.5,86.5 49.5,86.5 50.5,86.5C 50.6741,88.861 51.0074,91.1944 51.5,93.5C 50.5,93.5 49.5,93.5 48.5,93.5C 48.0074,91.1944 47.6741,88.861 47.5,86.5 Z"/></g>
<g><path style="opacity:1" fill="#0d0d0d" d="M 83.5,89.5 C 84.6946,89.8656 85.3613,90.699 85.5,92C 84.8524,93.4397 84.5191,94.9397 84.5,96.5C 83.325,96.719 82.325,96.3857 81.5,95.5C 82.1717,93.4705 82.8384,91.4705 83.5,89.5 Z"/></g>
<g><path style="opacity:1" fill="#1a1a1a" d="M 129.5,90.5 C 130.5,90.5 131.5,90.5 132.5,90.5C 132.993,92.8056 133.326,95.139 133.5,97.5C 132.5,97.5 131.5,97.5 130.5,97.5C 130.007,95.1944 129.674,92.861 129.5,90.5 Z"/></g>
<g><path style="opacity:1" fill="#202020" d="M 51.5,96.5 C 55.7701,97.5435 56.9368,99.8768 55,103.5C 52.6088,101.394 51.4421,99.0605 51.5,96.5 Z"/></g>
<g><path style="opacity:1" fill="#1d1d1d" d="M 79.5,99.5 C 80.7562,99.4614 81.7562,99.9614 82.5,101C 81.3601,102.973 80.0267,104.807 78.5,106.5C 77.5,106.167 76.8333,105.5 76.5,104.5C 77.7629,102.971 78.7629,101.305 79.5,99.5 Z"/></g>
<g><path style="opacity:1" fill="#1d1d1d" d="M 130.5,101.5 C 131.675,101.281 132.675,101.614 133.5,102.5C 132.877,104.711 131.877,106.711 130.5,108.5C 129.5,108.167 128.833,107.5 128.5,106.5C 129.456,104.925 130.123,103.258 130.5,101.5 Z"/></g>
<g><path style="opacity:1" fill="#151515" d="M 59.5,102.5 C 61.8236,103.33 63.8236,104.663 65.5,106.5C 61.8948,107.692 59.8948,106.359 59.5,102.5 Z"/></g>
<g><path style="opacity:1" fill="#141414" d="M 68.5,107.5 C 70.5273,107.338 72.5273,107.505 74.5,108C 75.576,110.967 74.4094,112.8 71,113.5C 71.0177,111.412 70.1843,109.412 68.5,107.5 Z"/></g>
<g><path style="opacity:1" fill="#1d1d1d" d="M 123.5,109.5 C 125.103,109.312 126.437,109.812 127.5,111C 125.664,112.419 123.664,113.586 121.5,114.5C 120.417,113.635 120.251,112.635 121,111.5C 121.995,110.934 122.828,110.267 123.5,109.5 Z"/></g>
<g><path style="opacity:1" fill="#181818" d="M 79.5,109.5 C 81.3792,110.341 83.3792,110.675 85.5,110.5C 85.5,111.5 85.5,112.5 85.5,113.5C 82.9412,113.61 80.6079,112.944 78.5,111.5C 78.8627,110.817 79.1961,110.15 79.5,109.5 Z"/></g>
<g><path style="opacity:1" fill="#171717" d="M 89.5,112.5 C 91.8333,112.5 94.1667,112.5 96.5,112.5C 96.5,113.5 96.5,114.5 96.5,115.5C 94.4727,115.662 92.4727,115.495 90.5,115C 89.7476,114.329 89.4142,113.496 89.5,112.5 Z"/></g>
<g><path style="opacity:1" fill="#161616" d="M 99.5,113.5 C 101.833,113.5 104.167,113.5 106.5,113.5C 106.5,114.5 106.5,115.5 106.5,116.5C 104.167,116.5 101.833,116.5 99.5,116.5C 99.5,115.5 99.5,114.5 99.5,113.5 Z"/></g>
<g><path style="opacity:1" fill="#141414" d="M 110.5,113.5 C 119.664,113.959 119.664,114.959 110.5,116.5C 110.5,115.5 110.5,114.5 110.5,113.5 Z"/></g>
<g><path style="opacity:1" fill="#181818" d="M 65.5,114.5 C 67.2252,114.843 67.7252,115.843 67,117.5C 65.8455,118.743 64.5122,119.743 63,120.5C 62.3076,119.975 61.8076,119.308 61.5,118.5C 62.8665,117.16 64.1999,115.827 65.5,114.5 Z"/></g>
<g><path style="opacity:1" fill="#1b1b1b" d="M 20.5,118.5 C 23.0588,118.39 25.3921,119.056 27.5,120.5C 25.8244,122.921 23.8244,123.088 21.5,121C 20.7476,120.329 20.4142,119.496 20.5,118.5 Z"/></g>
<g><path style="opacity:1" fill="#202020" d="M 55.5,119.5 C 56.5,119.5 57.5,119.5 58.5,119.5C 58.719,120.675 58.3857,121.675 57.5,122.5C 55.9411,123.074 54.4411,123.74 53,124.5C 52.3076,123.975 51.8076,123.308 51.5,122.5C 52.6243,121.141 53.9577,120.141 55.5,119.5 Z"/></g>
<g><path style="opacity:1" fill="#262626" d="M 30.5,120.5 C 32.861,120.674 35.1944,121.007 37.5,121.5C 37.5,122.5 37.5,123.5 37.5,124.5C 35.4086,124.682 33.4086,124.348 31.5,123.5C 30.6143,122.675 30.281,121.675 30.5,120.5 Z"/></g>
<g><path style="opacity:1" fill="#1f1f1f" d="M 41.5,122.5 C 43.8333,122.5 46.1667,122.5 48.5,122.5C 48.5,123.5 48.5,124.5 48.5,125.5C 46.1667,125.5 43.8333,125.5 41.5,125.5C 41.5,124.5 41.5,123.5 41.5,122.5 Z"/></g>
</svg>
