<?xml version="1.0" encoding="UTF-8"?>
<!DOCTYPE svg PUBLIC "-//W3C//DTD SVG 1.1//EN" "http://www.w3.org/Graphics/SVG/1.1/DTD/svg11.dtd">
<svg xmlns="http://www.w3.org/2000/svg" version="1.1" width="160px" height="160px" style="shape-rendering:geometricPrecision; text-rendering:geometricPrecision; image-rendering:optimizeQuality; fill-rule:evenodd; clip-rule:evenodd" xmlns:xlink="http://www.w3.org/1999/xlink">
<g><path style="opacity:0.911" fill="#f6f6f6" d="M 33.5,36.5 C 32.1225,37.2344 30.6225,37.9011 29,38.5C 27.5949,35.3812 27.0949,32.0479 27.5,28.5C 39.0278,25.4275 50.6945,22.9275 62.5,21C 75.5087,20.214 88.5087,19.3806 101.5,18.5C 106.309,18.8925 110.809,20.2258 115,22.5C 115.85,24.01 116.683,25.51 117.5,27C 116.284,30.2212 114.284,32.8878 111.5,35C 102.693,40.7367 93.3599,45.4034 83.5,49C 78.0104,54.8245 71.6771,59.4912 64.5,63C 59.8507,68.3311 54.6841,72.8311 49,76.5C 44.2619,87.8105 43.9285,99.1438 48,110.5C 48.8333,111.333 49.6667,112.167 50.5,113C 57.9414,115.594 64.9414,118.927 71.5,123C 81.5962,125.244 91.5962,124.91 101.5,122C 107.991,118.922 114.325,115.588 120.5,112C 123.554,111.179 126.554,111.345 129.5,112.5C 129.569,114.278 129.903,116.111 130.5,118C 129.547,119.955 128.213,121.622 126.5,123C 117.265,128.699 107.432,133.199 97,136.5C 96,136.167 95,135.833 94,135.5C 87.921,136.543 81.921,137.877 76,139.5C 65.0552,137.973 54.5552,134.973 44.5,130.5C 36.7645,123.036 31.5978,114.036 29,103.5C 27.7095,98.89 27.3762,94.2233 28,89.5C 29.3333,88.8333 30.6667,88.1667 32,87.5C 33.6815,80.1218 36.3482,73.1218 40,66.5C 47.4614,60.7074 54.6281,54.5407 61.5,48C 64.4326,46.7291 67.0993,45.0624 69.5,43C 72.8346,40.3214 73.3346,37.1547 71,33.5C 69.769,32.8922 68.4357,32.5589 67,32.5C 61.7797,33.5968 56.613,34.9301 51.5,36.5C 45.6616,36.3451 39.6616,36.3451 33.5,36.5 Z"/></g>
<g><path style="opacity:1" fill="#0f0f0f" d="M 72.5,26.5 C 74.8333,26.5 77.1667,26.5 79.5,26.5C 79.5,27.5 79.5,28.5 79.5,29.5C 77.1667,29.5 74.8333,29.5 72.5,29.5C 72.5,28.5 72.5,27.5 72.5,26.5 Z"/></g>
<g><path style="opacity:1" fill="#070707" d="M 93.5,26.5 C 95.8333,26.5 98.1667,26.5 100.5,26.5C 100.5,27.5 100.5,28.5 100.5,29.5C 98.1667,29.5 95.8333,29.5 93.5,29.5C 93.5,28.5 93.5,27.5 93.5,26.5 Z"/></g>
<g><path style="opacity:1" fill="#1e1e1e" d="M 62.5,27.5 C 64.924,27.1924 67.2573,27.5258 69.5,28.5C 69.2907,29.086 68.9574,29.586 68.5,30C 66.5273,30.4955 64.5273,30.6621 62.5,30.5C 62.5,29.5 62.5,28.5 62.5,27.5 Z"/></g>
<g><path style="opacity:1" fill="#101010" d="M 103.5,27.5 C 105.833,27.5 108.167,27.5 110.5,27.5C 110.5,28.5 110.5,29.5 110.5,30.5C 108.167,30.5 105.833,30.5 103.5,30.5C 103.5,29.5 103.5,28.5 103.5,27.5 Z"/></g>
<g><path style="opacity:1" fill="#242424" d="M 54.5,27.5 C 55.8333,27.5 57.1667,27.5 58.5,27.5C 58.5,28.5 58.5,29.5 58.5,30.5C 56.1944,30.9926 53.861,31.3259 51.5,31.5C 51.5,30.5 51.5,29.5 51.5,28.5C 52.791,28.7373 53.791,28.404 54.5,27.5 Z"/></g>
<g><path style="opacity:1" fill="#313131" d="M 83.5,26.5 C 85.8333,26.5 88.1667,26.5 90.5,26.5C 90.5,27.5 90.5,28.5 90.5,29.5C 88.1667,29.5 85.8333,29.5 83.5,29.5C 83.5,28.5 83.5,27.5 83.5,26.5 Z"/></g>
<g><path style="opacity:1" fill="#0a0a0a" d="M 43.5,29.5 C 49.9291,29.7899 50.0958,30.7899 44,32.5C 40.9925,32.0012 40.8259,31.0012 43.5,29.5 Z"/></g>
<g><path style="opacity:1" fill="#1d1d1d" d="M 98.5,30.5 C 99.5,30.5 100.5,30.5 101.5,30.5C 101.072,33.2465 99.4057,34.9132 96.5,35.5C 95.5,35.1667 94.8333,34.5 94.5,33.5C 95.9014,32.4793 97.2347,31.4793 98.5,30.5 Z"/></g>
<g><path style="opacity:1" fill="#191919" d="M 33.5,36.5 C 31.3484,35.9232 31.015,34.7565 32.5,33C 40.1561,32.4794 40.4894,33.6461 33.5,36.5 Z"/></g>
<g><path style="opacity:1" fill="#191919" d="M 88.5,34.5 C 89.5,34.5 90.5,34.5 91.5,34.5C 91.0724,37.2465 89.4057,38.9132 86.5,39.5C 85.4173,38.635 85.2506,37.635 86,36.5C 86.9947,35.9341 87.828,35.2674 88.5,34.5 Z"/></g>
<g><path style="opacity:1" fill="#1d1d1d" d="M 80.5,38.5 C 82.0847,39.0024 82.5847,40.0024 82,41.5C 80.3333,42.5 78.6667,43.5 77,44.5C 75.7705,43.7248 75.4372,42.7248 76,41.5C 77.6516,40.6006 79.1516,39.6006 80.5,38.5 Z"/></g>
<g><path style="opacity:1" fill="#191919" d="M 70.5,44.5 C 72.3547,44.272 73.1881,44.9387 73,46.5C 71.0782,49.0892 68.9115,49.5892 66.5,48C 67.7305,46.5952 69.0639,45.4286 70.5,44.5 Z"/></g>
<g><path style="opacity:1" fill="#181818" d="M 62.5,50.5 C 63.7562,50.4614 64.7562,50.9614 65.5,52C 63.9825,53.6851 62.3159,55.1851 60.5,56.5C 59.5,56.1667 58.8333,55.5 58.5,54.5C 60.188,53.4787 61.5213,52.1454 62.5,50.5 Z"/></g>
<g><path style="opacity:1" fill="#151515" d="M 55.5,57.5 C 56.4778,57.811 57.1445,58.4777 57.5,59.5C 56.1851,61.3159 54.6851,62.9825 53,64.5C 52.3076,63.9747 51.8076,63.3081 51.5,62.5C 52.8569,60.8144 54.1902,59.1477 55.5,57.5 Z"/></g>
<g><path style="opacity:1" fill="#0f0f0f" d="M 48.5,65.5 C 49.4778,65.811 50.1445,66.4777 50.5,67.5C 49.8257,69.5165 48.6591,71.1832 47,72.5C 46.3076,71.9747 45.8076,71.3081 45.5,70.5C 46.7629,68.9713 47.7629,67.3046 48.5,65.5 Z"/></g>
<g><path style="opacity:1" fill="#1f1f1f" d="M 42.5,74.5 C 43.9953,74.4148 44.9953,75.0815 45.5,76.5C 44.9132,79.4057 43.2465,81.0724 40.5,81.5C 40.8782,79.079 41.5448,76.7457 42.5,74.5 Z"/></g>
<g><path style="opacity:0.805" fill="#f0f0f0" d="M 81.5,80.5 C 85.8333,80.5 90.1667,80.5 94.5,80.5C 94.6646,83.5184 94.498,86.5184 94,89.5C 92.9914,90.6582 91.6581,91.3248 90,91.5C 86.5641,91.1508 83.2307,90.4842 80,89.5C 77.6974,85.9387 78.1974,82.9387 81.5,80.5 Z"/></g>
<g><path style="opacity:1" fill="#131313" d="M 88.5,82.5 C 90.332,83.1405 90.6653,84.1405 89.5,85.5C 87.5878,87.1561 85.5878,87.4895 83.5,86.5C 85.0147,84.9178 86.6814,83.5845 88.5,82.5 Z"/></g>
<g><path style="opacity:1" fill="#171717" d="M 38.5,84.5 C 39.675,84.281 40.675,84.6143 41.5,85.5C 41.0879,87.8867 40.0879,89.8867 38.5,91.5C 37.4249,89.1889 37.4249,86.8555 38.5,84.5 Z"/></g>
<g><path style="opacity:1" fill="#212121" d="M 36.5,94.5 C 38.3435,96.2789 39.0102,98.6122 38.5,101.5C 37.5,101.5 36.5,101.5 35.5,101.5C 35.298,99.0504 35.6314,96.717 36.5,94.5 Z"/></g>
<g><path style="opacity:1" fill="#171717" d="M 35.5,105.5 C 36.675,105.281 37.675,105.614 38.5,106.5C 39.3482,108.409 39.6816,110.409 39.5,112.5C 38.5,112.5 37.5,112.5 36.5,112.5C 36.552,110.097 36.2186,107.764 35.5,105.5 Z"/></g>
<g><path style="opacity:1" fill="#191919" d="M 39.5,115.5 C 42.6209,116.288 44.2876,118.288 44.5,121.5C 42.0219,120.805 40.0219,119.305 38.5,117C 39.056,116.617 39.3893,116.117 39.5,115.5 Z"/></g>
<g><path style="opacity:1" fill="#202020" d="M 119.5,117.5 C 123.172,118.466 123.172,119.966 119.5,122C 118.056,122.781 116.723,122.614 115.5,121.5C 116.549,119.784 117.882,118.451 119.5,117.5 Z"/></g>
<g><path style="opacity:1" fill="#181818" d="M 47.5,122.5 C 50.8009,122.792 52.8009,124.459 53.5,127.5C 51.2166,127.392 49.2166,126.559 47.5,125C 46.4019,124.23 46.4019,123.397 47.5,122.5 Z"/></g>
<g><path style="opacity:1" fill="#191919" d="M 111.5,123.5 C 112.497,123.47 113.164,123.97 113.5,125C 111.773,128.359 109.439,129.026 106.5,127C 108.233,125.811 109.9,124.644 111.5,123.5 Z"/></g>
<g><path style="opacity:1" fill="#1c1c1c" d="M 56.5,126.5 C 59.5192,127.045 61.6858,128.379 63,130.5C 61.2302,131.276 59.3969,131.11 57.5,130C 56.6634,128.989 56.33,127.822 56.5,126.5 Z"/></g>
<g><path style="opacity:1" fill="#1c1c1c" d="M 100.5,128.5 C 101.833,128.5 103.167,128.5 104.5,128.5C 104.5,129.5 104.5,130.5 104.5,131.5C 102.194,131.993 99.861,132.326 97.5,132.5C 97.5,131.5 97.5,130.5 97.5,129.5C 98.791,129.737 99.791,129.404 100.5,128.5 Z"/></g>
<g><path style="opacity:1" fill="#1c1c1c" d="M 66.5,130.5 C 68.861,130.674 71.1944,131.007 73.5,131.5C 73.5,132.5 73.5,133.5 73.5,134.5C 71.1944,134.007 68.861,133.674 66.5,133.5C 66.5,132.5 66.5,131.5 66.5,130.5 Z"/></g>
<g><path style="opacity:1" fill="#1c1c1c" d="M 87.5,131.5 C 89.924,131.192 92.2573,131.526 94.5,132.5C 94.2907,133.086 93.9574,133.586 93.5,134C 91.5273,134.495 89.5273,134.662 87.5,134.5C 87.5,133.5 87.5,132.5 87.5,131.5 Z"/></g>
<g><path style="opacity:1" fill="#181818" d="M 76.5,131.5 C 78.8333,131.5 81.1667,131.5 83.5,131.5C 83.5,132.5 83.5,133.5 83.5,134.5C 81.1667,134.5 78.8333,134.5 76.5,134.5C 76.5,133.5 76.5,132.5 76.5,131.5 Z"/></g>
</svg>
