<?xml version="1.0" encoding="UTF-8"?>
<!DOCTYPE svg PUBLIC "-//W3C//DTD SVG 1.1//EN" "http://www.w3.org/Graphics/SVG/1.1/DTD/svg11.dtd">
<svg xmlns="http://www.w3.org/2000/svg" version="1.1" width="160px" height="160px" style="shape-rendering:geometricPrecision; text-rendering:geometricPrecision; image-rendering:optimizeQuality; fill-rule:evenodd; clip-rule:evenodd" xmlns:xlink="http://www.w3.org/1999/xlink">
<g><path style="opacity:0.903" fill="#f6f6f6" d="M 112.5,17.5 C 116.257,17.0708 119.757,17.7375 123,19.5C 127.58,34.1573 130.08,48.6573 130.5,63C 130.587,72.3378 130.42,81.8378 130,91.5C 129.727,93.1012 129.227,94.6012 128.5,96C 128.45,100.939 128.45,105.939 128.5,111C 127.773,113.124 127.106,115.291 126.5,117.5C 115.989,123.39 105.655,129.557 95.5,136C 92.1016,137.916 88.4349,138.916 84.5,139C 75.2562,140.107 66.0895,140.607 57,140.5C 54.3396,139.166 51.5063,138.332 48.5,138C 43.4026,134.567 38.0693,131.567 32.5,129C 31.3468,126.384 30.3468,123.718 29.5,121C 29.6674,114.088 29.6674,107.255 29.5,100.5C 29.9055,92.4469 33.7388,90.1136 41,93.5C 42.9133,99.8535 43.58,106.187 43,112.5C 45.2271,117.06 48.7271,120.226 53.5,122C 67.747,124.8 82.0803,125.133 96.5,123C 101.381,121.893 105.714,119.726 109.5,116.5C 111.683,109.571 113.683,102.571 115.5,95.5C 114.94,84.351 114.94,73.5176 115.5,63C 114.528,50.6037 112.194,38.437 108.5,26.5C 109.087,23.1204 110.421,20.1204 112.5,17.5 Z"/></g>
<g><path style="opacity:1" fill="#1a1a1a" d="M 117.5,22.5 C 118.5,22.5 119.5,22.5 120.5,22.5C 120.5,24.8333 120.5,27.1667 120.5,29.5C 119.5,29.5 118.5,29.5 117.5,29.5C 117.5,27.1667 117.5,24.8333 117.5,22.5 Z"/></g>
<g><path style="opacity:1" fill="#1c1c1c" d="M 118.5,32.5 C 119.496,32.4142 120.329,32.7476 121,33.5C 121.495,35.4727 121.662,37.4727 121.5,39.5C 120.5,39.5 119.5,39.5 118.5,39.5C 118.5,37.1667 118.5,34.8333 118.5,32.5 Z"/></g>
<g><path style="opacity:1" fill="#171717" d="M 119.5,43.5 C 120.5,43.5 121.5,43.5 122.5,43.5C 122.5,45.8333 122.5,48.1667 122.5,50.5C 121.5,50.5 120.5,50.5 119.5,50.5C 119.5,48.1667 119.5,45.8333 119.5,43.5 Z"/></g>
<g><path style="opacity:1" fill="#171717" d="M 120.5,53.5 C 121.5,53.5 122.5,53.5 123.5,53.5C 123.5,55.8333 123.5,58.1667 123.5,60.5C 122.5,60.5 121.5,60.5 120.5,60.5C 120.5,58.1667 120.5,55.8333 120.5,53.5 Z"/></g>
<g><path style="opacity:1" fill="#1d1d1d" d="M 121.5,64.5 C 122.5,64.5 123.5,64.5 124.5,64.5C 124.5,66.8333 124.5,69.1667 124.5,71.5C 123.5,71.5 122.5,71.5 121.5,71.5C 121.5,69.1667 121.5,66.8333 121.5,64.5 Z"/></g>
<g><path style="opacity:0.898" fill="#f5f5f5" d="M 78.5,65.5 C 83.2536,64.5432 86.587,66.2098 88.5,70.5C 86.8208,71.782 84.9874,72.782 83,73.5C 82.3333,75.1667 82.3333,76.8333 83,78.5C 89.5615,81.1021 93.3949,85.9355 94.5,93C 92.4583,98.0384 88.7916,101.372 83.5,103C 78.5,103.667 73.5,103.667 68.5,103C 66.842,102.275 66.342,101.108 67,99.5C 70.2997,97.5336 72.4663,94.7003 73.5,91C 72.9638,88.76 71.7971,86.9266 70,85.5C 69.6745,81.384 68.8412,77.384 67.5,73.5C 70.111,69.2005 73.7776,66.5338 78.5,65.5 Z"/></g>
<g><path style="opacity:1" fill="#303030" d="M 82.5,67.5 C 83.2891,67.7828 83.9558,68.2828 84.5,69C 82.9956,70.7878 81.3289,71.2878 79.5,70.5C 80.3398,69.265 81.3398,68.265 82.5,67.5 Z"/></g>
<g><path style="opacity:1" fill="#1c1c1c" d="M 75.5,71.5 C 76.3764,71.3691 77.0431,71.7025 77.5,72.5C 76.5356,75.0833 75.2022,75.5833 73.5,74C 74.3805,73.2917 75.0472,72.4584 75.5,71.5 Z"/></g>
<g><path style="opacity:1" fill="#1c1c1c" d="M 121.5,74.5 C 122.5,74.5 123.5,74.5 124.5,74.5C 124.5,76.8333 124.5,79.1667 124.5,81.5C 123.5,81.5 122.5,81.5 121.5,81.5C 121.5,79.1667 121.5,76.8333 121.5,74.5 Z"/></g>
<g><path style="opacity:1" fill="#191919" d="M 71.5,77.5 C 72.5862,77.62 73.2528,78.2867 73.5,79.5C 73.1667,80.1667 72.8333,80.8333 72.5,81.5C 71.5713,80.3112 71.238,78.9778 71.5,77.5 Z"/></g>
<g><path style="opacity:1" fill="#212121" d="M 75.5,83.5 C 77.0898,83.6282 78.4231,84.2949 79.5,85.5C 77.1671,86.9415 75.8338,86.2748 75.5,83.5 Z"/></g>
<g><path style="opacity:1" fill="#222222" d="M 81.5,85.5 C 83.456,84.1988 85.1226,84.6988 86.5,87C 84.5048,87.6128 82.8381,87.1128 81.5,85.5 Z"/></g>
<g><path style="opacity:1" fill="#1b1b1b" d="M 121.5,85.5 C 122.5,85.5 123.5,85.5 124.5,85.5C 124.5,87.8333 124.5,90.1667 124.5,92.5C 123.5,92.5 122.5,92.5 121.5,92.5C 121.5,90.1667 121.5,87.8333 121.5,85.5 Z"/></g>
<g><path style="opacity:1" fill="#121212" d="M 85.5,90.5 C 87.8075,91.405 87.8075,92.7383 85.5,94.5C 84.7084,93.3002 84.7084,91.9669 85.5,90.5 Z"/></g>
<g><path style="opacity:1" fill="#191919" d="M 120.5,95.5 C 121.5,95.5 122.5,95.5 123.5,95.5C 123.007,97.8056 122.674,100.139 122.5,102.5C 121.5,102.5 120.5,102.5 119.5,102.5C 119.674,100.139 120.007,97.8056 120.5,95.5 Z"/></g>
<g><path style="opacity:1" fill="#1a1a1a" d="M 33.5,96.5 C 34.675,96.281 35.675,96.6143 36.5,97.5C 35.6518,99.4086 35.3184,101.409 35.5,103.5C 34.5,103.5 33.5,103.5 32.5,103.5C 32.448,101.097 32.7814,98.7638 33.5,96.5 Z"/></g>
<g><path style="opacity:1" fill="#0f0f0f" d="M 80.5,95.5 C 81.3764,95.3691 82.0431,95.7025 82.5,96.5C 81.2954,98.1376 79.9621,98.4709 78.5,97.5C 79.2427,96.8182 79.9094,96.1515 80.5,95.5 Z"/></g>
<g><path style="opacity:1" fill="#121212" d="M 71.5,97.5 C 73.288,97.2148 74.9547,97.5481 76.5,98.5C 75.6667,98.8333 74.8333,99.1667 74,99.5C 72.6244,99.3158 71.7911,98.6491 71.5,97.5 Z"/></g>
<g><path style="opacity:1" fill="#181818" d="M 118.5,105.5 C 119.995,105.415 120.995,106.081 121.5,107.5C 120.815,109.547 119.649,111.214 118,112.5C 117.5,112.167 117,111.833 116.5,111.5C 117.747,109.677 118.414,107.677 118.5,105.5 Z"/></g>
<g><path style="opacity:1" fill="#151515" d="M 32.5,106.5 C 33.5,106.5 34.5,106.5 35.5,106.5C 35.5,108.833 35.5,111.167 35.5,113.5C 34.5,113.5 33.5,113.5 32.5,113.5C 32.5,111.167 32.5,108.833 32.5,106.5 Z"/></g>
<g><path style="opacity:1" fill="#171717" d="M 114.5,114.5 C 115.478,114.811 116.145,115.478 116.5,116.5C 115.185,118.316 113.685,119.983 112,121.5C 111.308,120.975 110.808,120.308 110.5,119.5C 111.857,117.814 113.19,116.148 114.5,114.5 Z"/></g>
<g><path style="opacity:1" fill="#141414" d="M 33.5,117.5 C 36.5696,118.243 38.2363,120.243 38.5,123.5C 35.4589,122.801 33.7922,120.801 33.5,117.5 Z"/></g>
<g><path style="opacity:1" fill="#181818" d="M 105.5,121.5 C 106.756,121.461 107.756,121.961 108.5,123C 106.473,124.879 104.14,126.046 101.5,126.5C 101.281,125.325 101.614,124.325 102.5,123.5C 103.739,123.058 104.739,122.391 105.5,121.5 Z"/></g>
<g><path style="opacity:1" fill="#1f1f1f" d="M 41.5,124.5 C 43.3863,125.361 45.2196,126.361 47,127.5C 47.5628,128.725 47.2295,129.725 46,130.5C 44.3333,129.5 42.6667,128.5 41,127.5C 40.5304,126.423 40.6971,125.423 41.5,124.5 Z"/></g>
<g><path style="opacity:1" fill="#131313" d="M 96.5,125.5 C 98.0481,125.821 98.7148,126.821 98.5,128.5C 96.1046,129.363 93.7713,129.363 91.5,128.5C 92.9469,127.065 94.6136,126.065 96.5,125.5 Z"/></g>
<g><path style="opacity:1" fill="#101010" d="M 85.5,128.5 C 86.5,128.5 87.5,128.5 88.5,128.5C 88.5,129.5 88.5,130.5 88.5,131.5C 86.4086,131.318 84.4086,131.652 82.5,132.5C 81.6143,131.675 81.281,130.675 81.5,129.5C 83.099,129.768 84.4324,129.434 85.5,128.5 Z"/></g>
<g><path style="opacity:1" fill="#181818" d="M 50.5,128.5 C 53.0163,128.755 55.3496,129.589 57.5,131C 53.9313,133.363 51.5979,132.529 50.5,128.5 Z"/></g>
<g><path style="opacity:1" fill="#0b0b0b" d="M 71.5,130.5 C 73.5,130.5 75.5,130.5 77.5,130.5C 77.5,131.5 77.5,132.5 77.5,133.5C 75.5,133.5 73.5,133.5 71.5,133.5C 71.5,132.5 71.5,131.5 71.5,130.5 Z"/></g>
<g><path style="opacity:1" fill="#1d1d1d" d="M 60.5,131.5 C 62.8333,131.5 65.1667,131.5 67.5,131.5C 67.5,132.5 67.5,133.5 67.5,134.5C 65.1667,134.5 62.8333,134.5 60.5,134.5C 60.5,133.5 60.5,132.5 60.5,131.5 Z"/></g>
</svg>
