<?xml version="1.0" encoding="UTF-8"?>
<!DOCTYPE svg PUBLIC "-//W3C//DTD SVG 1.1//EN" "http://www.w3.org/Graphics/SVG/1.1/DTD/svg11.dtd">
<svg xmlns="http://www.w3.org/2000/svg" version="1.1" width="160px" height="160px" style="shape-rendering:geometricPrecision; text-rendering:geometricPrecision; image-rendering:optimizeQuality; fill-rule:evenodd; clip-rule:evenodd" xmlns:xlink="http://www.w3.org/1999/xlink">
<g><path style="opacity:0.831" fill="#f7f7f7" d="M 77.5,5.5 C 78.675,5.28099 79.675,5.61432 80.5,6.5C 81.7404,9.3934 83.0737,12.2267 84.5,15C 83.349,19.811 80.5157,22.9777 76,24.5C 75.1667,24.3333 74.3333,24.1667 73.5,24C 70.2037,21.1575 68.5371,17.8242 68.5,14C 69.3833,10.3813 71.7166,8.38129 75.5,8C 76.3805,7.2917 77.0472,6.45837 77.5,5.5 Z"/></g>
<g><path style="opacity:1" fill="#161616" d="M 77.5,10.5 C 78.4778,10.811 79.1445,11.4777 79.5,12.5C 78.1851,14.3159 76.6851,15.9825 75,17.5C 74.3076,16.9747 73.8076,16.3081 73.5,15.5C 74.8569,13.8144 76.1902,12.1477 77.5,10.5 Z"/></g>
<g><path style="opacity:0.923" fill="#f5f5f5" d="M 102.5,32.5 C 110.34,31.5961 117.673,33.0961 124.5,37C 128.659,41.9007 127.992,46.234 122.5,50C 115.843,50.9968 109.51,52.9968 103.5,56C 97.6576,60.4243 91.3243,64.0909 84.5,67C 75.9436,75.8916 67.1103,84.3916 58,92.5C 56.0655,95.3707 54.3988,98.3707 53,101.5C 47.6115,117.521 53.4449,127.687 70.5,132C 81.6249,134.013 92.9582,135.18 104.5,135.5C 111.118,132.436 117.951,130.103 125,128.5C 127.352,128.305 129.352,128.972 131,130.5C 131.929,134.244 131.429,137.744 129.5,141C 123.022,144.49 116.189,146.99 109,148.5C 106.563,147.521 104.229,147.854 102,149.5C 97.9606,148.613 93.9606,148.946 90,150.5C 86.3134,150.058 82.48,150.058 78.5,150.5C 72.9749,150.733 67.6416,149.899 62.5,148C 49.2434,141.91 39.91,132.076 34.5,118.5C 35.2634,115.692 35.2634,112.692 34.5,109.5C 36.0012,103.495 37.5012,97.4951 39,91.5C 41.2798,87.5533 43.9465,83.8866 47,80.5C 54.4695,74.0316 61.6362,67.1983 68.5,60C 71.328,57.7519 74.328,55.7519 77.5,54C 79.5,53.6667 81.5,53.3333 83.5,53C 86.1667,51 86.1667,49 83.5,47C 69.0075,45.9986 55.0075,48.1653 41.5,53.5C 37.9684,52.1969 34.4684,52.1969 31,53.5C 29,52.8333 27.6667,51.5 27,49.5C 26.1786,46.4459 26.3452,43.4459 27.5,40.5C 33.408,37.801 39.5747,35.801 46,34.5C 49.2601,35.622 52.5934,36.622 56,37.5C 57.8161,36.6705 59.6494,35.8372 61.5,35C 68.1806,34.6658 74.8473,34.1658 81.5,33.5C 83.3749,33.6299 85.2082,33.9633 87,34.5C 92.3128,33.9021 97.4794,33.2354 102.5,32.5 Z"/></g>
<g><path style="opacity:1" fill="#7d7d7d" d="M 89.5,37.5 C 81.5,38.1667 81.5,38.8333 89.5,39.5C 87.3926,40.4682 85.0593,40.8016 82.5,40.5C 82.5,39.1667 82.5,37.8333 82.5,36.5C 85.0593,36.1984 87.3926,36.5318 89.5,37.5 Z"/></g>
<g><path style="opacity:1" fill="#0b0b0b" d="M 62.5,37.5 C 64.5,37.5 66.5,37.5 68.5,37.5C 68.5,38.5 68.5,39.5 68.5,40.5C 66.5,40.5 64.5,40.5 62.5,40.5C 62.5,39.5 62.5,38.5 62.5,37.5 Z"/></g>
<g><path style="opacity:1" fill="#030303" d="M 72.5,37.5 C 74.924,37.1924 77.2573,37.5258 79.5,38.5C 78.3333,38.8333 77.1667,39.1667 76,39.5C 74.3189,39.3917 73.1522,38.7251 72.5,37.5 Z"/></g>
<g><path style="opacity:1" fill="#000000" d="M 89.5,37.5 C 89.5,38.1667 89.5,38.8333 89.5,39.5C 81.5,38.8333 81.5,38.1667 89.5,37.5 Z"/></g>
<g><path style="opacity:1" fill="#040404" d="M 93.5,37.5 C 95.924,37.1924 98.2573,37.5258 100.5,38.5C 99.3333,38.8333 98.1667,39.1667 97,39.5C 95.3189,39.3917 94.1522,38.7251 93.5,37.5 Z"/></g>
<g><path style="opacity:1" fill="#181818" d="M 103.5,37.5 C 105.833,37.5 108.167,37.5 110.5,37.5C 110.5,38.5 110.5,39.5 110.5,40.5C 108.167,40.5 105.833,40.5 103.5,40.5C 103.5,39.5 103.5,38.5 103.5,37.5 Z"/></g>
<g><path style="opacity:1" fill="#1a1a1a" d="M 116.5,36.5 C 117.75,36.5774 118.583,37.244 119,38.5C 119.494,40.1341 119.66,41.8008 119.5,43.5C 118.5,43.5 117.5,43.5 116.5,43.5C 116.15,40.9592 116.15,38.6258 116.5,36.5 Z"/></g>
<g><path style="opacity:1" fill="#141414" d="M 51.5,38.5 C 53.8333,38.5 56.1667,38.5 58.5,38.5C 58.5,39.5 58.5,40.5 58.5,41.5C 56.1667,41.5 53.8333,41.5 51.5,41.5C 51.5,40.5 51.5,39.5 51.5,38.5 Z"/></g>
<g><path style="opacity:1" fill="#222222" d="M 45.5,39.5 C 47.6859,39.5106 48.5192,40.5106 48,42.5C 45.9592,43.4231 43.7925,43.7564 41.5,43.5C 41.5,42.5 41.5,41.5 41.5,40.5C 43.099,40.7678 44.4324,40.4345 45.5,39.5 Z"/></g>
<g><path style="opacity:1" fill="#0b0b0b" d="M 35.5,42.5 C 37.0481,42.8212 37.7148,43.8212 37.5,45.5C 35.5,45.8333 33.5,46.1667 31.5,46.5C 31.5,45.5 31.5,44.5 31.5,43.5C 33.099,43.7678 34.4324,43.4345 35.5,42.5 Z"/></g>
<g><path style="opacity:1" fill="#1d1d1d" d="M 109.5,43.5 C 110.995,43.4148 111.995,44.0815 112.5,45.5C 110.513,47.3274 108.179,48.3274 105.5,48.5C 105.281,47.325 105.614,46.325 106.5,45.5C 107.739,45.0576 108.739,44.3909 109.5,43.5 Z"/></g>
<g><path style="opacity:1" fill="#161616" d="M 97.5,47.5 C 99.4286,47.2308 101.095,47.7308 102.5,49C 100.35,50.4114 98.0163,51.2447 95.5,51.5C 95.5271,49.8007 96.1938,48.4674 97.5,47.5 Z"/></g>
<g><path style="opacity:1" fill="#161616" d="M 88.5,51.5 C 89.9778,51.238 91.3112,51.5713 92.5,52.5C 90.9706,54.1881 89.1373,55.5214 87,56.5C 85.0831,54.2156 85.5831,52.5489 88.5,51.5 Z"/></g>
<g><path style="opacity:1" fill="#181818" d="M 80.5,56.5 C 82.3547,56.272 83.1881,56.9387 83,58.5C 81.0782,61.0892 78.9115,61.5892 76.5,60C 77.7305,58.5952 79.0639,57.4286 80.5,56.5 Z"/></g>
<g><path style="opacity:1" fill="#1c1c1c" d="M 71.5,62.5 C 73.1033,62.3118 74.4366,62.8118 75.5,64C 73.3911,65.1411 71.5578,66.6411 70,68.5C 69.3076,67.9747 68.8076,67.3081 68.5,66.5C 69.5244,65.1482 70.5244,63.8149 71.5,62.5 Z"/></g>
<g><path style="opacity:1" fill="#181818" d="M 64.5,68.5 C 65.4778,68.811 66.1445,69.4777 66.5,70.5C 65.2418,73.4995 63.2418,74.4995 60.5,73.5C 61.8569,71.8144 63.1902,70.1477 64.5,68.5 Z"/></g>
<g><path style="opacity:1" fill="#181818" d="M 56.5,76.5 C 57.5,76.5 58.5,76.5 59.5,76.5C 59.4048,79.2723 58.0715,81.2723 55.5,82.5C 54.6919,82.1924 54.0253,81.6924 53.5,81C 55.1412,79.871 56.1412,78.371 56.5,76.5 Z"/></g>
<g><path style="opacity:1" fill="#1b1b1b" d="M 50.5,84.5 C 51.7562,84.4614 52.7562,84.9614 53.5,86C 52.3601,87.9734 51.0267,89.8067 49.5,91.5C 48.6919,91.1924 48.0253,90.6924 47.5,90C 48.6394,88.2196 49.6394,86.3863 50.5,84.5 Z"/></g>
<g><path style="opacity:1" fill="#191919" d="M 45.5,94.5 C 46.675,94.281 47.675,94.6143 48.5,95.5C 48.1339,97.84 46.9672,99.5067 45,100.5C 44.5,100.333 44,100.167 43.5,100C 44.2444,98.1852 44.9111,96.3519 45.5,94.5 Z"/></g>
<g><path style="opacity:1" fill="#151515" d="M 42.5,104.5 C 43.5,104.5 44.5,104.5 45.5,104.5C 45.5,106.833 45.5,109.167 45.5,111.5C 44.5,111.5 43.5,111.5 42.5,111.5C 42.5,109.167 42.5,106.833 42.5,104.5 Z"/></g>
<g><path style="opacity:1" fill="#131313" d="M 41.5,114.5 C 42.5,114.5 43.5,114.5 44.5,114.5C 44.0821,123.691 43.0821,123.691 41.5,114.5 Z"/></g>
<g><path style="opacity:1" fill="#191919" d="M 43.5,125.5 C 47.0091,125.808 48.6757,127.808 48.5,131.5C 45.4589,130.801 43.7922,128.801 43.5,125.5 Z"/></g>
<g><path style="opacity:1" fill="#1b1b1b" d="M 51.5,132.5 C 53.6491,133.748 55.6491,135.248 57.5,137C 54.5821,138.567 52.2488,137.734 50.5,134.5C 50.8627,133.817 51.1961,133.15 51.5,132.5 Z"/></g>
<g><path style="opacity:1" fill="#191919" d="M 125.5,132.5 C 126.995,132.415 127.995,133.081 128.5,134.5C 126.711,135.877 124.711,136.877 122.5,137.5C 122.167,137 121.833,136.5 121.5,136C 122.686,134.588 124.019,133.421 125.5,132.5 Z"/></g>
<g><path style="opacity:1" fill="#181818" d="M 114.5,136.5 C 115.833,136.5 117.167,136.5 118.5,136.5C 118.5,137.5 118.5,138.5 118.5,139.5C 116.409,139.318 114.409,139.652 112.5,140.5C 111.614,139.675 111.281,138.675 111.5,137.5C 112.791,137.737 113.791,137.404 114.5,136.5 Z"/></g>
<g><path style="opacity:1" fill="#1d1d1d" d="M 59.5,138.5 C 62.3158,138.544 64.6492,139.544 66.5,141.5C 62.7871,143.311 60.4538,142.311 59.5,138.5 Z"/></g>
<g><path style="opacity:1" fill="#1f1f1f" d="M 104.5,138.5 C 105.5,138.5 106.5,138.5 107.5,138.5C 107.523,141.121 106.189,142.455 103.5,142.5C 102,142.547 101,141.881 100.5,140.5C 101.949,139.828 103.282,139.161 104.5,138.5 Z"/></g>
<g><path style="opacity:1" fill="#161616" d="M 91.5,140.5 C 93.5,140.5 95.5,140.5 97.5,140.5C 97.5,141.5 97.5,142.5 97.5,143.5C 95.076,143.808 92.7427,143.474 90.5,142.5C 90.8627,141.817 91.1961,141.15 91.5,140.5 Z"/></g>
<g><path style="opacity:1" fill="#0d0d0d" d="M 69.5,141.5 C 71.8333,141.5 74.1667,141.5 76.5,141.5C 76.5,142.5 76.5,143.5 76.5,144.5C 73.539,144.536 71.2057,143.536 69.5,141.5 Z"/></g>
<g><path style="opacity:1" fill="#0e0e0e" d="M 80.5,141.5 C 82.8333,141.5 85.1667,141.5 87.5,141.5C 87.5,142.5 87.5,143.5 87.5,144.5C 85.1667,144.5 82.8333,144.5 80.5,144.5C 80.5,143.5 80.5,142.5 80.5,141.5 Z"/></g>
</svg>
