<?xml version="1.0" encoding="UTF-8"?>
<!DOCTYPE svg PUBLIC "-//W3C//DTD SVG 1.1//EN" "http://www.w3.org/Graphics/SVG/1.1/DTD/svg11.dtd">
<svg xmlns="http://www.w3.org/2000/svg" version="1.1" width="160px" height="160px" style="shape-rendering:geometricPrecision; text-rendering:geometricPrecision; image-rendering:optimizeQuality; fill-rule:evenodd; clip-rule:evenodd" xmlns:xlink="http://www.w3.org/1999/xlink">
<g><path style="opacity:0.902" fill="#f5f5f5" d="M 103.5,16.5 C 109.252,15.3748 112.419,17.7081 113,23.5C 113.334,27.1991 113.501,30.6991 113.5,34C 111.62,37.9524 111.953,41.9524 114.5,46C 114.167,46.3333 113.833,46.6667 113.5,47C 114.227,48.3988 114.727,49.8988 115,51.5C 115.167,66.9393 116.333,82.106 118.5,97C 119.502,112.363 113.835,125.363 101.5,136C 97.7965,137.9 93.9632,139.4 90,140.5C 82.3333,140.5 74.6667,140.5 67,140.5C 57.6094,140.805 50.276,137.138 45,129.5C 42.951,123.804 41.451,117.971 40.5,112C 42.7439,108.92 45.7439,107.587 49.5,108C 56.6381,123.239 68.6381,129.572 85.5,127C 96.9414,122.135 103.275,113.468 104.5,101C 101.372,81.5276 99.3723,61.8609 98.5,42C 99.2344,34.4888 100.068,26.9888 101,19.5C 102.045,18.6266 102.878,17.6266 103.5,16.5 Z"/></g>
<g><path style="opacity:1" fill="#101010" d="M 104.5,22.5 C 105.5,22.5 106.5,22.5 107.5,22.5C 107.5,24.8333 107.5,27.1667 107.5,29.5C 106.5,29.5 105.5,29.5 104.5,29.5C 104.5,27.1667 104.5,24.8333 104.5,22.5 Z"/></g>
<g><path style="opacity:1" fill="#7b7b7b" d="M 106.5,39.5 C 105.833,31.5 105.167,31.5 104.5,39.5C 103.532,37.3926 103.198,35.0593 103.5,32.5C 104.833,32.5 106.167,32.5 107.5,32.5C 107.802,35.0593 107.468,37.3926 106.5,39.5 Z"/></g>
<g><path style="opacity:1" fill="#000000" d="M 106.5,39.5 C 105.833,39.5 105.167,39.5 104.5,39.5C 105.167,31.5 105.833,31.5 106.5,39.5 Z"/></g>
<g><path style="opacity:1" fill="#191919" d="M 104.5,43.5 C 105.5,43.5 106.5,43.5 107.5,43.5C 107.5,45.8333 107.5,48.1667 107.5,50.5C 106.5,50.5 105.5,50.5 104.5,50.5C 104.5,48.1667 104.5,45.8333 104.5,43.5 Z"/></g>
<g><path style="opacity:1" fill="#191919" d="M 106.5,53.5 C 107.117,53.6107 107.617,53.944 108,54.5C 108.495,56.4727 108.662,58.4727 108.5,60.5C 107.5,60.5 106.5,60.5 105.5,60.5C 105.298,58.0504 105.631,55.717 106.5,53.5 Z"/></g>
<g><path style="opacity:1" fill="#161616" d="M 106.5,64.5 C 107.5,64.5 108.5,64.5 109.5,64.5C 109.5,66.8333 109.5,69.1667 109.5,71.5C 108.5,71.5 107.5,71.5 106.5,71.5C 106.5,69.1667 106.5,66.8333 106.5,64.5 Z"/></g>
<g><path style="opacity:1" fill="#1b1b1b" d="M 107.5,74.5 C 108.5,74.5 109.5,74.5 110.5,74.5C 110.5,76.8333 110.5,79.1667 110.5,81.5C 109.5,81.5 108.5,81.5 107.5,81.5C 107.5,79.1667 107.5,76.8333 107.5,74.5 Z"/></g>
<g><path style="opacity:1" fill="#121212" d="M 107.5,85.5 C 108.5,85.5 109.5,85.5 110.5,85.5C 110.5,87.8333 110.5,90.1667 110.5,92.5C 109.5,92.5 108.5,92.5 107.5,92.5C 107.5,90.1667 107.5,87.8333 107.5,85.5 Z"/></g>
<g><path style="opacity:1" fill="#1c1c1c" d="M 107.5,95.5 C 108.5,95.5 109.5,95.5 110.5,95.5C 110.5,97.8333 110.5,100.167 110.5,102.5C 109.5,102.5 108.5,102.5 107.5,102.5C 107.5,100.167 107.5,97.8333 107.5,95.5 Z"/></g>
<g><path style="opacity:1" fill="#0f0f0f" d="M 108.5,106.5 C 109.5,106.5 110.5,106.5 111.5,106.5C 111.5,108.5 111.5,110.5 111.5,112.5C 110.5,112.5 109.5,112.5 108.5,112.5C 108.5,110.5 108.5,108.5 108.5,106.5 Z"/></g>
<g><path style="opacity:1" fill="#181818" d="M 44.5,111.5 C 45.5,111.5 46.5,111.5 47.5,111.5C 47.9926,113.806 48.3259,116.139 48.5,118.5C 47.5,118.5 46.5,118.5 45.5,118.5C 45.3259,116.139 44.9926,113.806 44.5,111.5 Z"/></g>
<g><path style="opacity:1" fill="#1e1e1e" d="M 107.5,116.5 C 108.756,116.461 109.756,116.961 110.5,118C 109.36,119.973 108.027,121.807 106.5,123.5C 105.5,123.167 104.833,122.5 104.5,121.5C 105.763,119.971 106.763,118.305 107.5,116.5 Z"/></g>
<g><path style="opacity:1" fill="#171717" d="M 48.5,121.5 C 51.8591,121.698 53.6924,123.365 54,126.5C 53.586,126.957 53.086,127.291 52.5,127.5C 50.7224,125.736 49.3891,123.736 48.5,121.5 Z"/></g>
<g><path style="opacity:1" fill="#212121" d="M 100.5,123.5 C 101.922,123.75 102.922,124.583 103.5,126C 101.63,127.366 99.6297,128.533 97.5,129.5C 96.4173,128.635 96.2506,127.635 97,126.5C 98.5185,125.837 99.6851,124.837 100.5,123.5 Z"/></g>
<g><path style="opacity:1" fill="#181818" d="M 56.5,128.5 C 59.8048,128.541 61.9715,129.875 63,132.5C 62.2825,133.451 61.4491,133.617 60.5,133C 58.3645,132.124 57.0312,130.624 56.5,128.5 Z"/></g>
<g><path style="opacity:1" fill="#141414" d="M 89.5,128.5 C 91.1033,128.312 92.4366,128.812 93.5,130C 91.4308,131.523 89.0974,132.357 86.5,132.5C 86.5,131.5 86.5,130.5 86.5,129.5C 87.791,129.737 88.791,129.404 89.5,128.5 Z"/></g>
<g><path style="opacity:1" fill="#191919" d="M 76.5,132.5 C 78.924,132.192 81.2573,132.526 83.5,133.5C 83.2907,134.086 82.9574,134.586 82.5,135C 80.5273,135.495 78.5273,135.662 76.5,135.5C 76.5,134.5 76.5,133.5 76.5,132.5 Z"/></g>
<g><path style="opacity:1" fill="#121212" d="M 66.5,133.5 C 68.5,133.5 70.5,133.5 72.5,133.5C 72.5,134.5 72.5,135.5 72.5,136.5C 70.5,136.5 68.5,136.5 66.5,136.5C 66.5,135.5 66.5,134.5 66.5,133.5 Z"/></g>
</svg>
