<?xml version="1.0" encoding="UTF-8"?>
<!DOCTYPE svg PUBLIC "-//W3C//DTD SVG 1.1//EN" "http://www.w3.org/Graphics/SVG/1.1/DTD/svg11.dtd">
<svg xmlns="http://www.w3.org/2000/svg" version="1.1" width="160px" height="160px" style="shape-rendering:geometricPrecision; text-rendering:geometricPrecision; image-rendering:optimizeQuality; fill-rule:evenodd; clip-rule:evenodd" xmlns:xlink="http://www.w3.org/1999/xlink">
<g><path style="opacity:0.882" fill="#f4f4f4" d="M 60.5,14.5 C 66.9349,14.6913 73.2683,14.6913 79.5,14.5C 92.3982,15.6993 103.232,21.0326 112,30.5C 117.595,41.4513 117.595,52.4513 112,63.5C 101.832,68.2385 91.1657,69.9051 80,68.5C 73.5239,69.5204 67.0239,70.3537 60.5,71C 58.6711,71.2735 57.1711,72.1068 56,73.5C 56.1959,86.9313 56.1959,100.265 56,113.5C 57.5165,121.888 59.3498,130.221 61.5,138.5C 60.2066,143.127 57.2066,146.127 52.5,147.5C 49.6712,147.176 49.0045,145.843 50.5,143.5C 46.2388,122.623 44.4055,100.956 45,78.5C 46.2924,73.6215 47.7924,68.7882 49.5,64C 49.1667,63 48.8333,62 48.5,61C 52.653,56.1644 57.9863,53.8311 64.5,54C 75.7865,55.0708 87.1199,55.4042 98.5,55C 102.68,53.9762 104.68,51.3095 104.5,47C 100.825,32.4965 91.492,24.6632 76.5,23.5C 70.0682,23.032 64.5682,25.032 60,29.5C 57.6267,35.195 54.46,40.3616 50.5,45C 43.379,49.2747 39.0456,47.2747 37.5,39C 39.8851,33.4549 42.8851,28.2883 46.5,23.5C 51.7203,21.2641 56.387,18.2641 60.5,14.5 Z"/></g>
<g><path style="opacity:1" fill="#767676" d="M 77.5,17.5 C 76.0222,17.238 74.6888,17.5713 73.5,18.5C 75.2914,19.1698 76.9581,19.8365 78.5,20.5C 76.5,20.5 74.5,20.5 72.5,20.5C 72.5,19.1667 72.5,17.8333 72.5,16.5C 74.4147,16.2155 76.0813,16.5489 77.5,17.5 Z"/></g>
<g><path style="opacity:1" fill="#1e1e1e" d="M 64.5,17.5 C 66.1667,17.5 67.8333,17.5 69.5,17.5C 69.5,18.5 69.5,19.5 69.5,20.5C 67.1944,20.9926 64.861,21.3259 62.5,21.5C 62.5271,19.8007 63.1938,18.4674 64.5,17.5 Z"/></g>
<g><path style="opacity:1" fill="#030303" d="M 77.5,17.5 C 79.5518,18.0527 79.8852,19.0527 78.5,20.5C 76.9581,19.8365 75.2914,19.1698 73.5,18.5C 74.6888,17.5713 76.0222,17.238 77.5,17.5 Z"/></g>
<g><path style="opacity:1" fill="#151515" d="M 83.5,18.5 C 86.7951,18.7905 88.7951,20.4572 89.5,23.5C 85.8079,23.6757 83.8079,22.0091 83.5,18.5 Z"/></g>
<g><path style="opacity:1" fill="#181818" d="M 57.5,20.5 C 58.4778,20.811 59.1445,21.4777 59.5,22.5C 58.0552,24.0627 56.3885,25.396 54.5,26.5C 53.4173,25.635 53.2506,24.635 54,23.5C 55.1451,22.3636 56.3117,21.3636 57.5,20.5 Z"/></g>
<g><path style="opacity:1" fill="#1c1c1c" d="M 92.5,23.5 C 94.4258,24.2423 96.2591,25.2423 98,26.5C 98.7494,27.635 98.5827,28.635 97.5,29.5C 94.3284,28.6686 92.6617,26.6686 92.5,23.5 Z"/></g>
<g><path style="opacity:1" fill="#181818" d="M 48.5,27.5 C 49.9953,27.4148 50.9953,28.0815 51.5,29.5C 50.2418,32.4995 48.2418,33.4995 45.5,32.5C 46.9524,31.0603 47.9524,29.3936 48.5,27.5 Z"/></g>
<g><path style="opacity:1" fill="#1d1d1d" d="M 100.5,30.5 C 101.552,30.3505 102.552,30.5172 103.5,31C 104.257,32.5122 105.257,33.8455 106.5,35C 105.725,36.2295 104.725,36.5628 103.5,36C 101.393,34.7365 100.393,32.9032 100.5,30.5 Z"/></g>
<g><path style="opacity:1" fill="#1c1c1c" d="M 43.5,36.5 C 44.7562,36.4614 45.7562,36.9614 46.5,38C 45.0443,39.7448 43.711,41.5781 42.5,43.5C 41.5,43.1667 40.8333,42.5 40.5,41.5C 41.7629,39.9713 42.7629,38.3046 43.5,36.5 Z"/></g>
<g><path style="opacity:1" fill="#1c1c1c" d="M 106.5,39.5 C 109.656,39.5291 111.322,41.1957 111.5,44.5C 110.635,45.5827 109.635,45.7494 108.5,45C 107.536,43.2745 106.869,41.4412 106.5,39.5 Z"/></g>
<g><path style="opacity:1" fill="#0e0e0e" d="M 109.5,49.5 C 110.675,49.281 111.675,49.6143 112.5,50.5C 109.316,58.4911 108.316,58.1577 109.5,49.5 Z"/></g>
<g><path style="opacity:1" fill="#121212" d="M 68.5,58.5 C 70.8333,58.5 73.1667,58.5 75.5,58.5C 75.5,59.5 75.5,60.5 75.5,61.5C 73.1667,61.5 70.8333,61.5 68.5,61.5C 68.5,60.5 68.5,59.5 68.5,58.5 Z"/></g>
<g><path style="opacity:1" fill="#1c1c1c" d="M 79.5,58.5 C 81.8333,58.5 84.1667,58.5 86.5,58.5C 86.5,59.5 86.5,60.5 86.5,61.5C 84.1667,61.5 81.8333,61.5 79.5,61.5C 79.5,60.5 79.5,59.5 79.5,58.5 Z"/></g>
<g><path style="opacity:1" fill="#060606" d="M 89.5,59.5 C 91.8333,59.5 94.1667,59.5 96.5,59.5C 96.5,60.5 96.5,61.5 96.5,62.5C 94.1667,62.5 91.8333,62.5 89.5,62.5C 89.5,61.5 89.5,60.5 89.5,59.5 Z"/></g>
<g><path style="opacity:1" fill="#121212" d="M 104.5,58.5 C 105.497,58.4701 106.164,58.9701 106.5,60C 105.214,61.6486 103.547,62.8153 101.5,63.5C 100.417,62.635 100.251,61.635 101,60.5C 102.302,59.9152 103.469,59.2485 104.5,58.5 Z"/></g>
<g><path style="opacity:1" fill="#181818" d="M 60.5,60.5 C 62.4286,60.2308 64.0953,60.7308 65.5,62C 63.4308,63.5234 61.0974,64.3568 58.5,64.5C 58.5271,62.8007 59.1938,61.4674 60.5,60.5 Z"/></g>
<g><path style="opacity:1" fill="#181818" d="M 52.5,64.5 C 53.675,64.281 54.675,64.6143 55.5,65.5C 54.8763,67.754 53.543,69.4206 51.5,70.5C 50.6919,70.1924 50.0253,69.6924 49.5,69C 50.8825,67.7292 51.8825,66.2292 52.5,64.5 Z"/></g>
<g><path style="opacity:1" fill="#161616" d="M 48.5,73.5 C 49.1174,73.6107 49.6174,73.944 50,74.5C 50.4955,76.4727 50.6621,78.4727 50.5,80.5C 49.5,80.5 48.5,80.5 47.5,80.5C 47.298,78.0504 47.6314,75.717 48.5,73.5 Z"/></g>
<g><path style="opacity:1" fill="#202020" d="M 47.5,84.5 C 48.5,84.5 49.5,84.5 50.5,84.5C 50.5,86.8333 50.5,89.1667 50.5,91.5C 49.5,91.5 48.5,91.5 47.5,91.5C 47.5,89.1667 47.5,86.8333 47.5,84.5 Z"/></g>
<g><path style="opacity:1" fill="#757575" d="M 50.5,101.5 C 49.8333,93.5 49.1667,93.5 48.5,101.5C 47.5318,99.3926 47.1984,97.0593 47.5,94.5C 48.8333,94.5 50.1667,94.5 51.5,94.5C 51.8016,97.0593 51.4682,99.3926 50.5,101.5 Z"/></g>
<g><path style="opacity:1" fill="#000000" d="M 50.5,101.5 C 49.8333,101.5 49.1667,101.5 48.5,101.5C 49.1667,93.5 49.8333,93.5 50.5,101.5 Z"/></g>
<g><path style="opacity:1" fill="#272727" d="M 48.5,105.5 C 49.5,105.5 50.5,105.5 51.5,105.5C 51.5,107.833 51.5,110.167 51.5,112.5C 50.5,112.5 49.5,112.5 48.5,112.5C 48.5,110.167 48.5,107.833 48.5,105.5 Z"/></g>
<g><path style="opacity:1" fill="#161616" d="M 49.5,115.5 C 50.5,115.5 51.5,115.5 52.5,115.5C 52.5,117.833 52.5,120.167 52.5,122.5C 51.5,122.5 50.5,122.5 49.5,122.5C 49.5,120.167 49.5,117.833 49.5,115.5 Z"/></g>
<g><path style="opacity:1" fill="#030303" d="M 53.5,127.5 C 53.9227,129.781 53.256,131.448 51.5,132.5C 51.7394,130.533 51.4061,128.699 50.5,127C 51.7494,126.26 52.7494,126.427 53.5,127.5 Z"/></g>
<g><path style="opacity:1" fill="#555555" d="M 53.5,127.5 C 54.4614,129.265 54.7947,131.265 54.5,133.5C 53.209,133.737 52.209,133.404 51.5,132.5C 53.256,131.448 53.9227,129.781 53.5,127.5 Z"/></g>
<g><path style="opacity:1" fill="#131313" d="M 52.5,136.5 C 53.5,136.5 54.5,136.5 55.5,136.5C 55.5,138.833 55.5,141.167 55.5,143.5C 54.5,143.5 53.5,143.5 52.5,143.5C 52.5,141.167 52.5,138.833 52.5,136.5 Z"/></g>
</svg>
