<?xml version="1.0" encoding="UTF-8"?>
<!DOCTYPE svg PUBLIC "-//W3C//DTD SVG 1.1//EN" "http://www.w3.org/Graphics/SVG/1.1/DTD/svg11.dtd">
<svg xmlns="http://www.w3.org/2000/svg" version="1.1" width="160px" height="160px" style="shape-rendering:geometricPrecision; text-rendering:geometricPrecision; image-rendering:optimizeQuality; fill-rule:evenodd; clip-rule:evenodd" xmlns:xlink="http://www.w3.org/1999/xlink">
<g><path style="opacity:0.859" fill="#f5f5f5" d="M 69.5,29.5 C 73.803,28.8827 77.6363,30.216 81,33.5C 84.233,41.6888 81.3997,46.0221 72.5,46.5C 70.8129,46.2395 69.3129,45.5728 68,44.5C 67.7931,40.9106 67.2931,37.4106 66.5,34C 67.3862,32.3853 68.3862,30.8853 69.5,29.5 Z"/></g>
<g><path style="opacity:1" fill="#1d1d1d" d="M 74.5,34.5 C 76.2726,35.3143 76.7726,36.6476 76,38.5C 75.0922,40.4386 73.5922,41.4386 71.5,41.5C 72.0115,38.9785 73.0115,36.6451 74.5,34.5 Z"/></g>
<g><path style="opacity:0.906" fill="#f5f5f5" d="M 26.5,96.5 C 27.7079,97.2341 29.0413,97.5674 30.5,97.5C 30.5,95.1667 30.5,92.8333 30.5,90.5C 29.1667,90.5 27.8333,90.5 26.5,90.5C 26.2874,82.3502 28.1207,74.6836 32,67.5C 33.3894,65.7727 35.0561,64.4394 37,63.5C 37.9454,63.9054 38.6121,64.572 39,65.5C 39.5643,68.1547 40.0643,70.8214 40.5,73.5C 36.6435,84.9773 38.3102,95.4773 45.5,105C 49.9474,108.391 54.9474,110.391 60.5,111C 69.139,112.248 77.8057,112.582 86.5,112C 95.0106,109.572 103.011,105.572 110.5,100C 115.746,95.3427 118.746,89.5094 119.5,82.5C 117.352,75.5988 115.519,68.5988 114,61.5C 113.204,58.9615 113.371,56.6282 114.5,54.5C 114.899,56.9661 116.065,58.9661 118,60.5C 118.5,60.1667 119,59.8333 119.5,59.5C 118.628,57.5504 117.961,55.5504 117.5,53.5C 122.417,51.4962 125.583,53.1629 127,58.5C 128.177,68.5824 129.01,78.5824 129.5,88.5C 128.492,92.8665 127.325,97.1998 126,101.5C 120.532,107.969 114.699,114.136 108.5,120C 96.1592,126.517 83.3259,129.35 70,128.5C 56.7088,125.511 44.0421,120.845 32,114.5C 28.1198,109.217 26.2864,103.217 26.5,96.5 Z"/></g>
<g><path style="opacity:0.914" fill="#141414" d="M 117.5,53.5 C 117.961,55.5504 118.628,57.5504 119.5,59.5C 119,59.8333 118.5,60.1667 118,60.5C 116.065,58.9661 114.899,56.9661 114.5,54.5C 115.391,53.8902 116.391,53.5569 117.5,53.5 Z"/></g>
<g><path style="opacity:1" fill="#171717" d="M 119.5,63.5 C 120.496,63.4142 121.329,63.7476 122,64.5C 122.813,66.4357 123.313,68.4357 123.5,70.5C 122.5,70.5 121.5,70.5 120.5,70.5C 120.007,68.1944 119.674,65.861 119.5,63.5 Z"/></g>
<g><path style="opacity:1" fill="#1f1f1f" d="M 33.5,69.5 C 34.9953,69.4148 35.9953,70.0815 36.5,71.5C 35.9132,74.4057 34.2465,76.0724 31.5,76.5C 31.8782,74.079 32.5448,71.7457 33.5,69.5 Z"/></g>
<g><path style="opacity:1" fill="#040404" d="M 121.5,74.5 C 122.5,74.5 123.5,74.5 124.5,74.5C 124.038,82.3326 123.038,82.3326 121.5,74.5 Z"/></g>
<g><path style="opacity:1" fill="#222222" d="M 29.5,79.5 C 30.5,79.5 31.5,79.5 32.5,79.5C 32.6816,81.5914 32.3482,83.5914 31.5,85.5C 30.675,86.3857 29.675,86.719 28.5,86.5C 28.6741,84.139 29.0074,81.8056 29.5,79.5 Z"/></g>
<g><path style="opacity:1" fill="#1f1f1f" d="M 122.5,84.5 C 123.5,84.5 124.5,84.5 125.5,84.5C 125.5,86.8333 125.5,89.1667 125.5,91.5C 124.5,91.5 123.5,91.5 122.5,91.5C 122.5,89.1667 122.5,86.8333 122.5,84.5 Z"/></g>
<g><path style="opacity:0.999" fill="#272727" d="M 26.5,90.5 C 27.8333,90.5 29.1667,90.5 30.5,90.5C 30.5,92.8333 30.5,95.1667 30.5,97.5C 29.0413,97.5674 27.7079,97.2341 26.5,96.5C 26.5,94.5 26.5,92.5 26.5,90.5 Z"/></g>
<g><path style="opacity:1" fill="#141414" d="M 122.5,94.5 C 123.478,94.811 124.145,95.4777 124.5,96.5C 124.047,98.5652 123.047,100.232 121.5,101.5C 120.692,101.192 120.025,100.692 119.5,100C 120.639,98.2196 121.639,96.3863 122.5,94.5 Z"/></g>
<g><path style="opacity:1" fill="#1c1c1c" d="M 29.5,100.5 C 32.5409,100.379 34.2076,101.879 34.5,105C 34.3699,106.059 33.8699,106.892 33,107.5C 31.295,105.423 30.1283,103.09 29.5,100.5 Z"/></g>
<g><path style="opacity:1" fill="#161616" d="M 116.5,103.5 C 117.756,103.461 118.756,103.961 119.5,105C 117.983,106.685 116.316,108.185 114.5,109.5C 113.692,109.192 113.025,108.692 112.5,108C 114.041,106.629 115.375,105.129 116.5,103.5 Z"/></g>
<g><path style="opacity:1" fill="#151515" d="M 36.5,108.5 C 38.4788,109.812 40.1455,111.479 41.5,113.5C 38.7582,114.5 36.7582,113.5 35.5,110.5C 35.8627,109.817 36.1961,109.15 36.5,108.5 Z"/></g>
<g><path style="opacity:1" fill="#202020" d="M 109.5,110.5 C 111.085,111.002 111.585,112.002 111,113.5C 109.29,114.945 107.456,115.778 105.5,116C 105.043,115.586 104.709,115.086 104.5,114.5C 106.21,113.113 107.877,111.779 109.5,110.5 Z"/></g>
<g><path style="opacity:1" fill="#181818" d="M 44.5,115.5 C 46.258,115.877 47.9246,116.544 49.5,117.5C 50.8333,118.5 50.8333,119.5 49.5,120.5C 47.4899,119.498 45.4899,118.498 43.5,117.5C 43.8627,116.817 44.1961,116.15 44.5,115.5 Z"/></g>
<g><path style="opacity:1" fill="#191919" d="M 98.5,116.5 C 99.9778,116.238 101.311,116.571 102.5,117.5C 100.649,119.456 98.3158,120.456 95.5,120.5C 95.5,119.5 95.5,118.5 95.5,117.5C 96.791,117.737 97.791,117.404 98.5,116.5 Z"/></g>
<g><path style="opacity:1" fill="#1d1d1d" d="M 53.5,119.5 C 55.8333,119.5 58.1667,119.5 60.5,119.5C 60.5,120.5 60.5,121.5 60.5,122.5C 58.1667,122.5 55.8333,122.5 53.5,122.5C 53.5,121.5 53.5,120.5 53.5,119.5 Z"/></g>
<g><path style="opacity:1" fill="#0e0e0e" d="M 74.5,119.5 C 76.8333,119.5 79.1667,119.5 81.5,119.5C 81.5,120.5 81.5,121.5 81.5,122.5C 79.1667,122.5 76.8333,122.5 74.5,122.5C 74.5,121.5 74.5,120.5 74.5,119.5 Z"/></g>
<g><path style="opacity:1" fill="#2d2d2d" d="M 86.5,118.5 C 88.5,118.5 90.5,118.5 92.5,118.5C 92.67,119.822 92.3366,120.989 91.5,122C 89.5273,122.495 87.5273,122.662 85.5,122.5C 85.4326,121.041 85.7659,119.708 86.5,118.5 Z"/></g>
<g><path style="opacity:1" fill="#111111" d="M 64.5,119.5 C 66.8333,119.5 69.1667,119.5 71.5,119.5C 71.5,120.5 71.5,121.5 71.5,122.5C 69.1667,122.5 66.8333,122.5 64.5,122.5C 64.5,121.5 64.5,120.5 64.5,119.5 Z"/></g>
</svg>
