<?xml version="1.0" encoding="UTF-8"?>
<!DOCTYPE svg PUBLIC "-//W3C//DTD SVG 1.1//EN" "http://www.w3.org/Graphics/SVG/1.1/DTD/svg11.dtd">
<svg xmlns="http://www.w3.org/2000/svg" version="1.1" width="160px" height="160px" style="shape-rendering:geometricPrecision; text-rendering:geometricPrecision; image-rendering:optimizeQuality; fill-rule:evenodd; clip-rule:evenodd" xmlns:xlink="http://www.w3.org/1999/xlink">
<g><path style="opacity:0.798" fill="#f5f5f5" d="M 84.5,24.5 C 88.819,23.8537 90.819,25.687 90.5,30C 90.4169,39.8284 86.4169,41.9951 78.5,36.5C 76.5225,33.8004 76.1891,30.967 77.5,28C 80.0691,27.1016 82.4024,25.935 84.5,24.5 Z"/></g>
<g><path style="opacity:0.984" fill="#b4b4b4" d="M 112.5,29.5 C 111.817,27.8235 110.483,27.1568 108.5,27.5C 108.987,26.5266 109.487,25.5266 110,24.5C 111.41,25.7875 112.91,26.9542 114.5,28C 113.956,28.7172 113.289,29.2172 112.5,29.5 Z"/></g>
<g><path style="opacity:0.879" fill="#1c1c1c" d="M 108.5,27.5 C 110.483,27.1568 111.817,27.8235 112.5,29.5C 111.163,30.3149 110.163,31.4815 109.5,33C 108.423,33.4696 107.423,33.3029 106.5,32.5C 106.062,32.5654 105.728,32.3988 105.5,32C 106.883,30.7292 107.883,29.2292 108.5,27.5 Z"/></g>
<g><path style="opacity:1" fill="#111111" d="M 82.5,28.5 C 83.675,28.281 84.675,28.6143 85.5,29.5C 84.8763,31.754 83.543,33.4206 81.5,34.5C 81.1667,34 80.8333,33.5 80.5,33C 81.4138,31.5936 82.0805,30.0936 82.5,28.5 Z"/></g>
<g><path style="opacity:0.361" fill="#dbdbdb" d="M 112.5,29.5 C 111.863,34.4563 109.863,35.4563 106.5,32.5C 107.423,33.3029 108.423,33.4696 109.5,33C 110.163,31.4815 111.163,30.3149 112.5,29.5 Z"/></g>
<g><path style="opacity:0.931" fill="#f7f7f7" d="M 100.5,54.5 C 110.391,55.0263 117.558,59.693 122,68.5C 122.965,73.7419 124.132,78.9085 125.5,84C 125.683,90.0609 125.183,96.2276 124,102.5C 120.713,108.121 116.379,112.788 111,116.5C 107.581,124.016 101.914,128.016 94,128.5C 86.1716,132.162 78.005,134.829 69.5,136.5C 55.3306,132.677 43.8306,125.01 35,113.5C 30.4986,102.15 29.4986,90.4837 32,78.5C 32.7703,72.5383 34.437,66.5383 37,60.5C 38,59.8333 39,59.1667 40,58.5C 42.3604,60.8604 44.6937,63.1937 47,65.5C 46.8312,75.86 45.9978,86.1933 44.5,96.5C 50.2129,115.342 62.5463,122.842 81.5,119C 87.442,117.682 93.2754,116.182 99,114.5C 102.613,107.058 100.279,102.391 92,100.5C 89.1035,101.466 86.4368,102.132 84,102.5C 80.6667,97.8333 77.3333,93.1667 74,88.5C 74.1781,74.3077 80.3448,63.4744 92.5,56C 95.3647,55.8171 98.0314,55.3171 100.5,54.5 Z M 98.5,75.5 C 102.213,76.0416 104.546,78.2083 105.5,82C 102.794,83.5475 99.9603,84.7142 97,85.5C 95.6026,84.7741 94.7692,83.6075 94.5,82C 95.2073,79.4131 96.5406,77.2464 98.5,75.5 Z"/></g>
<g><path style="opacity:1" fill="#0e0e0e" d="M 92.5,61.5 C 101.691,61.9179 101.691,62.9179 92.5,64.5C 92.5,63.5 92.5,62.5 92.5,61.5 Z"/></g>
<g><path style="opacity:1" fill="#1c1c1c" d="M 102.5,62.5 C 105.805,62.5414 107.971,63.8748 109,66.5C 107.119,67.3544 105.286,67.0211 103.5,65.5C 102.614,64.675 102.281,63.675 102.5,62.5 Z"/></g>
<g><path style="opacity:1" fill="#181818" d="M 38.5,65.5 C 39.5,65.5 40.5,65.5 41.5,65.5C 41.6104,68.0588 40.9438,70.3921 39.5,72.5C 38.6919,72.1924 38.0253,71.6924 37.5,71C 38.4061,69.3005 38.7394,67.4672 38.5,65.5 Z"/></g>
<g><path style="opacity:1" fill="#151515" d="M 86.5,65.5 C 87.675,65.281 88.675,65.6143 89.5,66.5C 88.1851,68.3159 86.6851,69.9825 85,71.5C 84.3076,70.9747 83.8076,70.3081 83.5,69.5C 84.5244,68.1482 85.5244,66.8149 86.5,65.5 Z"/></g>
<g><path style="opacity:1" fill="#191919" d="M 111.5,68.5 C 115.433,69.6958 116.6,72.0291 115,75.5C 112.762,73.6909 111.595,71.3576 111.5,68.5 Z"/></g>
<g><path style="opacity:1" fill="#232323" d="M 80.5,73.5 C 81.675,73.281 82.675,73.6143 83.5,74.5C 83.0879,76.8867 82.0879,78.8867 80.5,80.5C 79.5,80.1667 78.8333,79.5 78.5,78.5C 79.1744,76.8045 79.8411,75.1379 80.5,73.5 Z"/></g>
<g><path style="opacity:0.732" fill="#0f0f0f" d="M 96.5,73.5 C 99.3198,73.2475 101.986,73.7475 104.5,75C 105.961,77.4206 107.294,79.9206 108.5,82.5C 103.555,87.4456 98.0551,88.4456 92,85.5C 90.9764,80.5482 92.4764,76.5482 96.5,73.5 Z M 98.5,75.5 C 96.5406,77.2464 95.2073,79.4131 94.5,82C 94.7692,83.6075 95.6026,84.7741 97,85.5C 99.9603,84.7142 102.794,83.5475 105.5,82C 104.546,78.2083 102.213,76.0416 98.5,75.5 Z"/></g>
<g><path style="opacity:1" fill="#1e1e1e" d="M 36.5,75.5 C 37.5,75.5 38.5,75.5 39.5,75.5C 39.0074,77.8056 38.6741,80.139 38.5,82.5C 37.5,82.5 36.5,82.5 35.5,82.5C 35.298,80.0504 35.6314,77.717 36.5,75.5 Z"/></g>
<g><path style="opacity:1" fill="#1a1a1a" d="M 115.5,78.5 C 116.5,78.5 117.5,78.5 118.5,78.5C 118.5,80.8333 118.5,83.1667 118.5,85.5C 117.5,85.5 116.5,85.5 115.5,85.5C 115.5,83.1667 115.5,80.8333 115.5,78.5 Z"/></g>
<g><path style="opacity:1" fill="#181818" d="M 79.5,83.5 C 80.4959,83.4142 81.3292,83.7476 82,84.5C 82.813,86.4357 83.313,88.4357 83.5,90.5C 82.5,90.5 81.5,90.5 80.5,90.5C 80.0074,88.1944 79.6741,85.861 79.5,83.5 Z"/></g>
<g><path style="opacity:1" fill="#0f0f0f" d="M 116.5,87.5 C 118.103,87.3118 119.437,87.8118 120.5,89C 118.771,90.7889 118.104,92.9556 118.5,95.5C 117.5,95.5 116.5,95.5 115.5,95.5C 115.374,93.8002 114.707,92.3002 113.5,91C 114.544,89.8261 115.544,88.6594 116.5,87.5 Z"/></g>
<g><path style="opacity:1" fill="#232323" d="M 34.5,86.5 C 35.5,86.5 36.5,86.5 37.5,86.5C 37.5,88.8333 37.5,91.1667 37.5,93.5C 36.5,93.5 35.5,93.5 34.5,93.5C 34.5,91.1667 34.5,88.8333 34.5,86.5 Z"/></g>
<g><path style="opacity:1" fill="#1c1c1c" d="M 108.5,92.5 C 109.995,92.4148 110.995,93.0815 111.5,94.5C 109.51,95.4981 107.51,96.4981 105.5,97.5C 104.417,96.635 104.251,95.635 105,94.5C 106.302,93.9152 107.469,93.2485 108.5,92.5 Z"/></g>
<g><path style="opacity:1" fill="#1e1e1e" d="M 84.5,93.5 C 87.7571,93.7637 89.7571,95.4304 90.5,98.5C 88.2166,98.3921 86.2166,97.5588 84.5,96C 83.4019,95.2303 83.4019,94.397 84.5,93.5 Z"/></g>
<g><path style="opacity:1" fill="#191919" d="M 35.5,96.5 C 36.5,96.5 37.5,96.5 38.5,96.5C 38.5,98.8333 38.5,101.167 38.5,103.5C 37.5,103.5 36.5,103.5 35.5,103.5C 35.5,101.167 35.5,98.8333 35.5,96.5 Z"/></g>
<g><path style="opacity:1" fill="#666666" d="M 94.5,96.5 C 94.9704,97.6935 95.9704,98.3601 97.5,98.5C 99.0296,98.3601 100.03,97.6935 100.5,96.5C 101.404,97.209 101.737,98.209 101.5,99.5C 98.8333,99.5 96.1667,99.5 93.5,99.5C 93.2627,98.209 93.596,97.209 94.5,96.5 Z"/></g>
<g><path style="opacity:1" fill="#000000" d="M 94.5,96.5 C 96.5,96.5 98.5,96.5 100.5,96.5C 100.03,97.6935 99.0296,98.3601 97.5,98.5C 95.9704,98.3601 94.9704,97.6935 94.5,96.5 Z"/></g>
<g><path style="opacity:1" fill="#0f0f0f" d="M 114.5,99.5 C 115.675,99.281 116.675,99.6143 117.5,100.5C 117.134,102.84 115.967,104.507 114,105.5C 113.5,105.333 113,105.167 112.5,105C 113.861,103.416 114.528,101.582 114.5,99.5 Z"/></g>
<g><path style="opacity:1" fill="#202020" d="M 37.5,106.5 C 40.0827,107.985 41.416,110.318 41.5,113.5C 37.8099,112.449 36.4766,110.115 37.5,106.5 Z"/></g>
<g><path style="opacity:1" fill="#1d1d1d" d="M 110.5,108.5 C 111.995,108.415 112.995,109.081 113.5,110.5C 112.396,112.389 111.063,114.055 109.5,115.5C 108.692,115.192 108.025,114.692 107.5,114C 108.758,112.259 109.758,110.426 110.5,108.5 Z"/></g>
<g><path style="opacity:1" fill="#111111" d="M 43.5,115.5 C 47.0187,116.309 48.352,118.309 47.5,121.5C 44.6282,120.059 43.2948,118.059 43.5,115.5 Z"/></g>
<g><path style="opacity:1" fill="#1e1e1e" d="M 104.5,116.5 C 105.995,116.415 106.995,117.081 107.5,118.5C 105.833,119.833 104.167,121.167 102.5,122.5C 101.692,122.192 101.025,121.692 100.5,121C 102.041,119.629 103.375,118.129 104.5,116.5 Z"/></g>
<g><path style="opacity:1" fill="#191919" d="M 51.5,121.5 C 54.8009,121.792 56.8009,123.459 57.5,126.5C 53.8079,126.676 51.8079,125.009 51.5,121.5 Z"/></g>
<g><path style="opacity:1" fill="#1c1c1c" d="M 95.5,122.5 C 96.9953,122.415 97.9953,123.081 98.5,124.5C 96.7105,125.877 94.7105,126.877 92.5,127.5C 92.1667,127 91.8333,126.5 91.5,126C 92.6856,124.588 94.019,123.421 95.5,122.5 Z"/></g>
<g><path style="opacity:1" fill="#292929" d="M 60.5,125.5 C 64.2059,125.499 66.5392,127.165 67.5,130.5C 65.4357,130.313 63.4357,129.813 61.5,129C 60.6634,127.989 60.33,126.822 60.5,125.5 Z"/></g>
<g><path style="opacity:1" fill="#1d1d1d" d="M 84.5,126.5 C 85.8333,126.5 87.1667,126.5 88.5,126.5C 88.5,127.5 88.5,128.5 88.5,129.5C 86.1944,129.993 83.861,130.326 81.5,130.5C 81.5,129.5 81.5,128.5 81.5,127.5C 82.791,127.737 83.791,127.404 84.5,126.5 Z"/></g>
<g><path style="opacity:1" fill="#000000" d="M 77.5,128.5 C 76.0821,130.308 74.0821,130.975 71.5,130.5C 72.9179,128.692 74.9179,128.025 77.5,128.5 Z"/></g>
<g><path style="opacity:1" fill="#606060" d="M 77.5,128.5 C 78.404,129.209 78.7373,130.209 78.5,131.5C 75.9407,131.802 73.6074,131.468 71.5,130.5C 74.0821,130.975 76.0821,130.308 77.5,128.5 Z"/></g>
</svg>
