<?xml version="1.0" encoding="UTF-8"?>
<!DOCTYPE svg PUBLIC "-//W3C//DTD SVG 1.1//EN" "http://www.w3.org/Graphics/SVG/1.1/DTD/svg11.dtd">
<svg xmlns="http://www.w3.org/2000/svg" version="1.1" width="160px" height="160px" style="shape-rendering:geometricPrecision; text-rendering:geometricPrecision; image-rendering:optimizeQuality; fill-rule:evenodd; clip-rule:evenodd" xmlns:xlink="http://www.w3.org/1999/xlink">
<g><path style="opacity:0.902" fill="#f6f6f6" d="M 111.5,31.5 C 114.325,31.0807 116.491,32.0807 118,34.5C 119.944,38.1099 122.277,41.4432 125,44.5C 134.856,76.5308 123.689,97.6975 91.5,108C 88.328,109.752 85.328,111.752 82.5,114C 70.9736,117.459 59.1403,119.626 47,120.5C 43.1734,121.869 39.5067,123.536 36,125.5C 33.9307,124.736 31.764,124.236 29.5,124C 24.4909,121.777 23.3243,118.277 26,113.5C 26.3333,113.833 26.6667,114.167 27,114.5C 41.5697,112.313 55.7364,108.479 69.5,103C 77.7933,98.2335 86.4599,94.2335 95.5,91C 106.54,84.1011 113.54,74.2678 116.5,61.5C 116.242,52.5897 111.908,46.9231 103.5,44.5C 103.357,42.7376 103.691,41.0709 104.5,39.5C 106.856,36.8136 109.189,34.147 111.5,31.5 Z"/></g>
<g><path style="opacity:1" fill="#151515" d="M 108.5,40.5 C 111.168,40.8337 113.168,42.1671 114.5,44.5C 114,44.8333 113.5,45.1667 113,45.5C 111.51,44.6831 110.01,43.8498 108.5,43C 107.402,42.2303 107.402,41.397 108.5,40.5 Z"/></g>
<g><path style="opacity:1" fill="#1d1d1d" d="M 117.5,45.5 C 121.77,46.5435 122.937,48.8768 121,52.5C 118.762,50.6909 117.595,48.3576 117.5,45.5 Z"/></g>
<g><path style="opacity:1" fill="#1a1a1a" d="M 122.5,55.5 C 123.5,55.5 124.5,55.5 125.5,55.5C 125.5,57.8333 125.5,60.1667 125.5,62.5C 124.5,62.5 123.5,62.5 122.5,62.5C 122.5,60.1667 122.5,57.8333 122.5,55.5 Z"/></g>
<g><path style="opacity:1" fill="#161616" d="M 121.5,65.5 C 122.5,65.5 123.5,65.5 124.5,65.5C 124.007,67.8056 123.674,70.139 123.5,72.5C 122.5,72.5 121.5,72.5 120.5,72.5C 120.674,70.139 121.007,67.8056 121.5,65.5 Z"/></g>
<g><path style="opacity:1" fill="#191919" d="M 117.5,75.5 C 118.5,75.5 119.5,75.5 120.5,75.5C 120.597,78.3136 119.431,80.3136 117,81.5C 116.5,81.1667 116,80.8333 115.5,80.5C 116.456,78.9246 117.123,77.258 117.5,75.5 Z"/></g>
<g><path style="opacity:1" fill="#131313" d="M 112.5,84.5 C 113.675,84.281 114.675,84.6143 115.5,85.5C 114.185,87.3159 112.685,88.9825 111,90.5C 110.308,89.9747 109.808,89.3081 109.5,88.5C 110.524,87.1482 111.524,85.8149 112.5,84.5 Z"/></g>
<g><path style="opacity:1" fill="#171717" d="M 105.5,91.5 C 107.225,91.8425 107.725,92.8425 107,94.5C 105.846,95.7433 104.512,96.7433 103,97.5C 102.308,96.9747 101.808,96.3081 101.5,95.5C 102.867,94.16 104.2,92.8267 105.5,91.5 Z"/></g>
<g><path style="opacity:1" fill="#1d1d1d" d="M 96.5,97.5 C 97.7562,97.4614 98.7562,97.9614 99.5,99C 97.6909,101.238 95.3576,102.405 92.5,102.5C 92.281,101.325 92.6143,100.325 93.5,99.5C 94.7387,99.0576 95.7387,98.3909 96.5,97.5 Z"/></g>
<g><path style="opacity:1" fill="#1c1c1c" d="M 86.5,102.5 C 87.5,102.5 88.5,102.5 89.5,102.5C 89.0724,105.246 87.4057,106.913 84.5,107.5C 83.4173,106.635 83.2506,105.635 84,104.5C 84.9947,103.934 85.828,103.267 86.5,102.5 Z"/></g>
<g><path style="opacity:1" fill="#1a1a1a" d="M 77.5,106.5 C 78.9953,106.415 79.9953,107.081 80.5,108.5C 78.5101,109.498 76.5101,110.498 74.5,111.5C 73.4173,110.635 73.2506,109.635 74,108.5C 75.3024,107.915 76.469,107.249 77.5,106.5 Z"/></g>
<g><path style="opacity:1" fill="#181818" d="M 66.5,110.5 C 67.8333,110.5 69.1667,110.5 70.5,110.5C 70.5,111.5 70.5,112.5 70.5,113.5C 68.139,113.674 65.8056,114.007 63.5,114.5C 63.5,113.5 63.5,112.5 63.5,111.5C 64.791,111.737 65.791,111.404 66.5,110.5 Z"/></g>
<g><path style="opacity:1" fill="#161616" d="M 57.5,112.5 C 58.5,112.5 59.5,112.5 60.5,112.5C 60.5,113.5 60.5,114.5 60.5,115.5C 58.1944,115.993 55.861,116.326 53.5,116.5C 53.5,115.5 53.5,114.5 53.5,113.5C 55.099,113.768 56.4324,113.434 57.5,112.5 Z"/></g>
<g><path style="opacity:1" fill="#1b1b1b" d="M 42.5,114.5 C 44.8333,114.5 47.1667,114.5 49.5,114.5C 49.5,115.5 49.5,116.5 49.5,117.5C 47.1667,117.5 44.8333,117.5 42.5,117.5C 42.5,116.5 42.5,115.5 42.5,114.5 Z"/></g>
<g><path style="opacity:1" fill="#171717" d="M 32.5,115.5 C 34.8333,115.5 37.1667,115.5 39.5,115.5C 39.5,116.5 39.5,117.5 39.5,118.5C 37.1667,118.5 34.8333,118.5 32.5,118.5C 32.5,117.5 32.5,116.5 32.5,115.5 Z"/></g>
</svg>
