<?xml version="1.0" encoding="UTF-8"?>
<!DOCTYPE svg PUBLIC "-//W3C//DTD SVG 1.1//EN" "http://www.w3.org/Graphics/SVG/1.1/DTD/svg11.dtd">
<svg xmlns="http://www.w3.org/2000/svg" version="1.1" width="160px" height="160px" style="shape-rendering:geometricPrecision; text-rendering:geometricPrecision; image-rendering:optimizeQuality; fill-rule:evenodd; clip-rule:evenodd" xmlns:xlink="http://www.w3.org/1999/xlink">
<g><path style="opacity:0.929" fill="#f6f6f6" d="M 121.5,34.5 C 126.179,34.3342 130.845,34.5008 135.5,35C 137.293,37.7953 139.46,40.2953 142,42.5C 143.043,46.0552 144.209,49.5552 145.5,53C 146.176,59.9451 143.843,65.9451 138.5,71C 126.906,79.9627 113.906,85.9627 99.5,89C 96.839,94.3045 94.6723,99.8045 93,105.5C 88.4509,114.379 81.2842,119.879 71.5,122C 66.5,123 61.5,124 56.5,125C 40.49,127.55 26.99,122.716 16,110.5C 14.8289,107.65 13.6623,104.816 12.5,102C 12.2678,92.3105 13.9344,82.8105 17.5,73.5C 30.2276,70.184 33.8942,74.3507 28.5,86C 28.8333,86.3333 29.1667,86.6667 29.5,87C 23.7064,102.07 29.0398,109.236 45.5,108.5C 58.2107,108.033 70.0441,104.699 81,98.5C 84.9786,91.8734 83.8119,85.7067 77.5,80C 74.5875,78.6274 71.7542,77.1274 69,75.5C 66.7966,72.4466 67.2966,69.9466 70.5,68C 74.8874,67.774 79.2207,67.274 83.5,66.5C 90.6642,56.5042 98.9976,47.6708 108.5,40C 112.707,37.6598 117.041,35.8264 121.5,34.5 Z M 124.5,48.5 C 128.264,49.4231 129.764,51.7565 129,55.5C 122.167,61.6667 115.333,67.8333 108.5,74C 103,75.1667 100.833,73 102,67.5C 109.333,60.7819 116.833,54.4486 124.5,48.5 Z"/></g>
<g><path style="opacity:1" fill="#131313" d="M 127.5,38.5 C 129.853,39.3403 131.853,40.6736 133.5,42.5C 131.412,43.4895 129.412,43.1561 127.5,41.5C 126.438,40.5754 126.438,39.5754 127.5,38.5 Z"/></g>
<g><path style="opacity:1" fill="#191919" d="M 119.5,40.5 C 121.346,40.2222 122.68,40.8888 123.5,42.5C 121.303,44.306 118.97,44.6393 116.5,43.5C 117.34,42.265 118.34,41.265 119.5,40.5 Z"/></g>
<g><path style="opacity:1" fill="#1f1f1f" d="M 112.5,45.5 C 114.085,46.0024 114.585,47.0024 114,48.5C 112.263,51.5335 110.097,52.0335 107.5,50C 109.24,48.483 110.906,46.983 112.5,45.5 Z"/></g>
<g><path style="opacity:1" fill="#101010" d="M 134.5,46.5 C 136.821,48.0897 137.821,50.4231 137.5,53.5C 136.5,53.5 135.5,53.5 134.5,53.5C 134.5,51.1667 134.5,48.8333 134.5,46.5 Z"/></g>
<g><path style="opacity:1" fill="#1c1c1c" d="M 104.5,52.5 C 105.478,52.811 106.145,53.4777 106.5,54.5C 105.167,56.1667 103.833,57.8333 102.5,59.5C 101.5,59.1667 100.833,58.5 100.5,57.5C 101.857,55.8144 103.19,54.1477 104.5,52.5 Z"/></g>
<g><path style="opacity:1" fill="#0f0f0f" d="M 133.5,57.5 C 134.552,57.3505 135.552,57.5172 136.5,58C 135.88,60.2123 134.713,62.0456 133,63.5C 132.5,63.1667 132,62.8333 131.5,62.5C 132.174,60.8045 132.841,59.1379 133.5,57.5 Z"/></g>
<g><path style="opacity:1" fill="#141414" d="M 97.5,60.5 C 98.4778,60.811 99.1445,61.4777 99.5,62.5C 98.8257,64.5165 97.6591,66.1832 96,67.5C 95.3076,66.9747 94.8076,66.3081 94.5,65.5C 95.2599,63.6396 96.2599,61.973 97.5,60.5 Z"/></g>
<g><path style="opacity:1" fill="#1c1c1c" d="M 128.5,66.5 C 129.675,66.281 130.675,66.6143 131.5,67.5C 130.396,69.3885 129.063,71.0552 127.5,72.5C 126.5,72.1667 125.833,71.5 125.5,70.5C 126.524,69.1482 127.524,67.8149 128.5,66.5 Z"/></g>
<g><path style="opacity:1" fill="#090909" d="M 92.5,70.5 C 93.4972,70.4701 94.1639,70.9701 94.5,72C 94.1123,73.9514 93.1123,75.4514 91.5,76.5C 90.5307,74.3835 90.864,72.3835 92.5,70.5 Z"/></g>
<g><path style="opacity:1" fill="#1e1e1e" d="M 78.5,72.5 C 81.2817,73.4593 83.1151,75.126 84,77.5C 83.586,77.9574 83.086,78.2907 82.5,78.5C 81.2997,77.4688 79.9663,76.6355 78.5,76C 77.3157,74.8545 77.3157,73.6879 78.5,72.5 Z"/></g>
<g><path style="opacity:1" fill="#1b1b1b" d="M 120.5,73.5 C 122.355,73.272 123.188,73.9387 123,75.5C 120.88,78.3861 118.713,78.7194 116.5,76.5C 117.901,75.4793 119.235,74.4793 120.5,73.5 Z"/></g>
<g><path style="opacity:1" fill="#191919" d="M 22.5,75.5 C 23.5,75.5 24.5,75.5 25.5,75.5C 25.5973,78.3136 24.4307,80.3136 22,81.5C 21.5,81.1667 21,80.8333 20.5,80.5C 21.4565,78.9246 22.1231,77.258 22.5,75.5 Z"/></g>
<g><path style="opacity:1" fill="#191919" d="M 86.5,77.5 C 88.8056,77.9926 91.139,78.3259 93.5,78.5C 93.5,79.5 93.5,80.5 93.5,81.5C 89.0453,79.8921 88.3787,81.0588 91.5,85C 90.7248,86.2295 89.7248,86.5628 88.5,86C 86.0715,83.3924 85.4049,80.5591 86.5,77.5 Z"/></g>
<g><path style="opacity:1" fill="#111111" d="M 110.5,78.5 C 112.103,78.3118 113.437,78.8118 114.5,80C 112.431,81.5234 110.097,82.3568 107.5,82.5C 107.5,81.5 107.5,80.5 107.5,79.5C 108.791,79.7373 109.791,79.404 110.5,78.5 Z"/></g>
<g><path style="opacity:1" fill="#080808" d="M 97.5,80.5 C 99.5,80.5 101.5,80.5 103.5,80.5C 103.5,81.5 103.5,82.5 103.5,83.5C 101.5,83.5 99.5,83.5 97.5,83.5C 97.5,82.5 97.5,81.5 97.5,80.5 Z"/></g>
<g><path style="opacity:1" fill="#222222" d="M 19.5,84.5 C 20.5,84.5 21.5,84.5 22.5,84.5C 22.3259,86.861 21.9926,89.1944 21.5,91.5C 20.5,91.5 19.5,91.5 18.5,91.5C 18.298,89.0504 18.6314,86.717 19.5,84.5 Z"/></g>
<g><path style="opacity:1" fill="#1b1b1b" d="M 88.5,89.5 C 89.5,89.5 90.5,89.5 91.5,89.5C 91.5,91.8333 91.5,94.1667 91.5,96.5C 90.5,96.5 89.5,96.5 88.5,96.5C 88.5,94.1667 88.5,91.8333 88.5,89.5 Z"/></g>
<g><path style="opacity:1" fill="#1a1a1a" d="M 18.5,95.5 C 19.5,95.5 20.5,95.5 21.5,95.5C 21.5,97.8333 21.5,100.167 21.5,102.5C 20.5,102.5 19.5,102.5 18.5,102.5C 18.5,100.167 18.5,97.8333 18.5,95.5 Z"/></g>
<g><path style="opacity:1" fill="#141414" d="M 87.5,99.5 C 88.6946,99.8656 89.3613,100.699 89.5,102C 88.7113,103.626 87.7113,105.126 86.5,106.5C 85.6919,106.192 85.0253,105.692 84.5,105C 85.6394,103.22 86.6394,101.386 87.5,99.5 Z"/></g>
<g><path style="opacity:1" fill="#1c1c1c" d="M 20.5,105.5 C 21.4959,105.414 22.3292,105.748 23,106.5C 23.7065,108.081 24.5399,109.581 25.5,111C 24.2396,112.113 23.073,112.28 22,111.5C 20.4382,109.496 19.9382,107.496 20.5,105.5 Z"/></g>
<g><path style="opacity:1" fill="#1a1a1a" d="M 80.5,107.5 C 81.9953,107.415 82.9953,108.081 83.5,109.5C 81.8333,110.833 80.1667,112.167 78.5,113.5C 77.6919,113.192 77.0253,112.692 76.5,112C 78.0414,110.629 79.3747,109.129 80.5,107.5 Z"/></g>
<g><path style="opacity:1" fill="#171717" d="M 26.5,113.5 C 29.09,114.128 31.4234,115.295 33.5,117C 32.4071,118.365 31.0738,118.699 29.5,118C 27.5614,117.092 26.5614,115.592 26.5,113.5 Z"/></g>
<g><path style="opacity:1" fill="#171717" d="M 72.5,113.5 C 73.4778,113.811 74.1445,114.478 74.5,115.5C 72.5128,117.327 70.1795,118.327 67.5,118.5C 67.281,117.325 67.6143,116.325 68.5,115.5C 70.0255,115.006 71.3588,114.339 72.5,113.5 Z"/></g>
<g><path style="opacity:1" fill="#171717" d="M 36.5,117.5 C 38.8333,117.5 41.1667,117.5 43.5,117.5C 43.5,118.5 43.5,119.5 43.5,120.5C 41.1667,120.5 38.8333,120.5 36.5,120.5C 36.5,119.5 36.5,118.5 36.5,117.5 Z"/></g>
<g><path style="opacity:1" fill="#1e1e1e" d="M 59.5,116.5 C 61.1667,116.5 62.8333,116.5 64.5,116.5C 64.5,117.5 64.5,118.5 64.5,119.5C 62.139,119.674 59.8056,120.007 57.5,120.5C 57.5271,118.801 58.1938,117.467 59.5,116.5 Z"/></g>
<g><path style="opacity:1" fill="#161616" d="M 46.5,117.5 C 48.8333,117.5 51.1667,117.5 53.5,117.5C 53.5,118.5 53.5,119.5 53.5,120.5C 51.1667,120.5 48.8333,120.5 46.5,120.5C 46.5,119.5 46.5,118.5 46.5,117.5 Z"/></g>
</svg>
