<?xml version="1.0" encoding="UTF-8"?>
<!DOCTYPE svg PUBLIC "-//W3C//DTD SVG 1.1//EN" "http://www.w3.org/Graphics/SVG/1.1/DTD/svg11.dtd">
<svg xmlns="http://www.w3.org/2000/svg" version="1.1" width="160px" height="160px" style="shape-rendering:geometricPrecision; text-rendering:geometricPrecision; image-rendering:optimizeQuality; fill-rule:evenodd; clip-rule:evenodd" xmlns:xlink="http://www.w3.org/1999/xlink">
<g><path style="opacity:0.912" fill="#f6f6f6" d="M 135.5,28.5 C 137.989,28.2978 140.323,28.7978 142.5,30C 145.057,32.8922 147.224,36.0589 149,39.5C 149.667,40.8333 149.667,42.1667 149,43.5C 146.449,47.9346 144.449,52.6012 143,57.5C 141.399,59.9724 139.399,60.9724 137,60.5C 130.871,62.3144 125.038,64.8144 119.5,68C 114.167,72.6667 108.833,77.3333 103.5,82C 99.7091,84.3864 95.7091,85.0531 91.5,84C 89.9716,85.6477 89.3049,87.6477 89.5,90C 90.1654,93.3372 90.4987,96.5038 90.5,99.5C 89.9639,101.942 89.1306,104.275 88,106.5C 84.4636,109.701 81.2969,113.201 78.5,117C 58.5804,129.826 37.9137,131.326 16.5,121.5C 12.9118,115.99 9.07848,110.657 5,105.5C 3.50128,96.7322 4.66794,88.3989 8.5,80.5C 11.8806,78.8798 14.5473,79.7132 16.5,83C 18.4727,83.4955 20.4727,83.6621 22.5,83.5C 22.1021,88.0811 21.7688,92.4144 21.5,96.5C 22.8092,99.7359 23.8092,103.069 24.5,106.5C 25.545,108.205 26.8783,109.705 28.5,111C 39.0607,114.197 49.394,114.197 59.5,111C 65.9003,107.934 71.067,103.434 75,97.5C 75.6667,92.5 75.6667,87.5 75,82.5C 72.2582,76.6868 68.7582,71.3535 64.5,66.5C 65.6071,63.0589 67.9404,61.0589 71.5,60.5C 76.1549,62.4924 80.4882,64.9924 84.5,68C 90.2066,70.3825 95.5399,69.7158 100.5,66C 103.993,62.0152 106.993,57.6819 109.5,53C 115.601,51.7842 121.434,51.6176 127,52.5C 129.172,51.4147 131.172,50.0814 133,48.5C 133.573,44.314 133.406,40.1473 132.5,36C 132.821,33.1955 133.821,30.6955 135.5,28.5 Z"/></g>
<g><path style="opacity:1" fill="#171717" d="M 137.5,34.5 C 141.529,35.5979 142.363,37.9313 140,41.5C 138.477,39.4308 137.643,37.0974 137.5,34.5 Z"/></g>
<g><path style="opacity:1" fill="#1e1e1e" d="M 140.5,43.5 C 141.995,43.4148 142.995,44.0815 143.5,45.5C 143.047,47.5652 142.047,49.2318 140.5,50.5C 139.425,48.1889 139.425,45.8555 140.5,43.5 Z"/></g>
<g><path style="opacity:1" fill="#141414" d="M 134.5,52.5 C 135.756,52.4614 136.756,52.9614 137.5,54C 135.522,56.864 133.189,57.5307 130.5,56C 131.731,54.5952 133.064,53.4286 134.5,52.5 Z"/></g>
<g><path style="opacity:1" fill="#1b1b1b" d="M 125.5,57.5 C 126.995,57.4148 127.995,58.0815 128.5,59.5C 126.513,61.3274 124.179,62.3274 121.5,62.5C 121.281,61.325 121.614,60.325 122.5,59.5C 123.739,59.0576 124.739,58.3909 125.5,57.5 Z"/></g>
<g><path style="opacity:1" fill="#191919" d="M 111.5,59.5 C 115.049,60.3317 116.382,62.3317 115.5,65.5C 114.086,64.376 112.586,63.376 111,62.5C 110.53,61.4232 110.697,60.4232 111.5,59.5 Z"/></g>
<g><path style="opacity:1" fill="#131313" d="M 110.5,67.5 C 111.478,67.811 112.145,68.4777 112.5,69.5C 111.185,71.3159 109.685,72.9825 108,74.5C 107.308,73.9747 106.808,73.3081 106.5,72.5C 107.857,70.8144 109.19,69.1477 110.5,67.5 Z"/></g>
<g><path style="opacity:1" fill="#191919" d="M 76.5,72.5 C 78.9052,73.3981 80.9052,74.8981 82.5,77C 81.9747,77.6924 81.3081,78.1924 80.5,78.5C 79.2997,77.4688 77.9663,76.6355 76.5,76C 75.3157,74.8545 75.3157,73.6879 76.5,72.5 Z"/></g>
<g><path style="opacity:1" fill="#191919" d="M 100.5,73.5 C 101.5,73.5 102.5,73.5 103.5,73.5C 103.5,74.5 103.5,75.5 103.5,76.5C 101.418,76.472 99.5843,77.1387 98,78.5C 97.3076,77.9747 96.8076,77.3081 96.5,76.5C 97.6243,75.1408 98.9577,74.1408 100.5,73.5 Z"/></g>
<g><path style="opacity:1" fill="#202020" d="M 86.5,76.5 C 88.8333,76.5 91.1667,76.5 93.5,76.5C 93.5,77.5 93.5,78.5 93.5,79.5C 91.1667,79.5 88.8333,79.5 86.5,79.5C 86.5,78.5 86.5,77.5 86.5,76.5 Z"/></g>
<g><path style="opacity:1" fill="#171717" d="M 10.5,82.5 C 11.5,82.5 12.5,82.5 13.5,82.5C 13.0074,84.8056 12.6741,87.139 12.5,89.5C 11.325,89.719 10.325,89.3857 9.5,88.5C 10.3482,86.5914 10.6816,84.5914 10.5,82.5 Z"/></g>
<g><path style="opacity:1" fill="#1b1b1b" d="M 80.5,83.5 C 81.5,83.5 82.5,83.5 83.5,83.5C 83.5,85.5 83.5,87.5 83.5,89.5C 82.5,89.5 81.5,89.5 80.5,89.5C 80.5,87.5 80.5,85.5 80.5,83.5 Z"/></g>
<g><path style="opacity:1" fill="#0f0f0f" d="M 9.5,92.5 C 10.5,92.5 11.5,92.5 12.5,92.5C 12.5,94.8333 12.5,97.1667 12.5,99.5C 11.5,99.5 10.5,99.5 9.5,99.5C 9.5,97.1667 9.5,94.8333 9.5,92.5 Z"/></g>
<g><path style="opacity:1" fill="#181818" d="M 80.5,93.5 C 81.5,93.5 82.5,93.5 83.5,93.5C 83.0074,95.8056 82.6741,98.139 82.5,100.5C 81.5,100.5 80.5,100.5 79.5,100.5C 79.6741,98.139 80.0074,95.8056 80.5,93.5 Z"/></g>
<g><path style="opacity:1" fill="#141414" d="M 10.5,103.5 C 13.7756,104.122 15.1089,106.122 14.5,109.5C 13.5,109.5 12.5,109.5 11.5,109.5C 11.1667,107.5 10.8333,105.5 10.5,103.5 Z"/></g>
<g><path style="opacity:1" fill="#191919" d="M 76.5,102.5 C 77.9953,102.415 78.9953,103.081 79.5,104.5C 78.1851,106.316 76.6851,107.983 75,109.5C 74.3076,108.975 73.8076,108.308 73.5,107.5C 74.9524,106.06 75.9524,104.394 76.5,102.5 Z"/></g>
<g><path style="opacity:1" fill="#161616" d="M 68.5,110.5 C 69.5,110.5 70.5,110.5 71.5,110.5C 71.0724,113.246 69.4057,114.913 66.5,115.5C 66.1667,115 65.8333,114.5 65.5,114C 66.5442,112.826 67.5442,111.659 68.5,110.5 Z"/></g>
<g><path style="opacity:1" fill="#191919" d="M 15.5,112.5 C 18.2602,113.437 20.0936,115.103 21,117.5C 20.2825,118.451 19.4491,118.617 18.5,118C 17.1667,116.667 15.8333,115.333 14.5,114C 15.056,113.617 15.3893,113.117 15.5,112.5 Z"/></g>
<g><path style="opacity:1" fill="#1f1f1f" d="M 59.5,114.5 C 60.5,114.5 61.5,114.5 62.5,114.5C 62.5,115.5 62.5,116.5 62.5,117.5C 60.1944,117.993 57.861,118.326 55.5,118.5C 55.5,117.5 55.5,116.5 55.5,115.5C 57.099,115.768 58.4324,115.434 59.5,114.5 Z"/></g>
<g><path style="opacity:1" fill="#171717" d="M 45.5,117.5 C 47.5,117.5 49.5,117.5 51.5,117.5C 51.5,118.5 51.5,119.5 51.5,120.5C 49.5,120.5 47.5,120.5 45.5,120.5C 45.5,119.5 45.5,118.5 45.5,117.5 Z"/></g>
<g><path style="opacity:1" fill="#1d1d1d" d="M 24.5,117.5 C 26.5,117.833 28.5,118.167 30.5,118.5C 30.5,119.5 30.5,120.5 30.5,121.5C 26.7593,122.401 24.7593,121.068 24.5,117.5 Z"/></g>
<g><path style="opacity:1" fill="#080808" d="M 34.5,118.5 C 36.8333,118.5 39.1667,118.5 41.5,118.5C 41.5,119.5 41.5,120.5 41.5,121.5C 39.1667,121.5 36.8333,121.5 34.5,121.5C 34.5,120.5 34.5,119.5 34.5,118.5 Z"/></g>
</svg>
