<?xml version="1.0" encoding="UTF-8"?>
<!DOCTYPE svg PUBLIC "-//W3C//DTD SVG 1.1//EN" "http://www.w3.org/Graphics/SVG/1.1/DTD/svg11.dtd">
<svg xmlns="http://www.w3.org/2000/svg" version="1.1" width="160px" height="160px" style="shape-rendering:geometricPrecision; text-rendering:geometricPrecision; image-rendering:optimizeQuality; fill-rule:evenodd; clip-rule:evenodd" xmlns:xlink="http://www.w3.org/1999/xlink">
<g><path style="opacity:0.873" fill="#f8f8f8" d="M 82.5,12.5 C 85.8333,12.5 89.1667,12.5 92.5,12.5C 93.5466,17.9488 92.7132,23.2822 90,28.5C 86.458,33.232 82.458,33.5653 78,29.5C 76.5569,22.9322 78.0569,17.2655 82.5,12.5 Z"/></g>
<g><path style="opacity:1" fill="#0e0e0e" d="M 85.5,18.5 C 86.7562,18.4614 87.7562,18.9614 88.5,20C 82.6361,26.1673 81.6361,25.6673 85.5,18.5 Z"/></g>
<g><path style="opacity:0.858" fill="#f8f8f8" d="M 107.5,34.5 C 115.103,32.4184 117.936,35.0851 116,42.5C 115.422,45.9033 114.255,49.0699 112.5,52C 109.344,52.6029 106.344,52.1029 103.5,50.5C 102.007,46.8444 100.007,43.5111 97.5,40.5C 101.129,38.8446 104.463,36.8446 107.5,34.5 Z"/></g>
<g><path style="opacity:1" fill="#111111" d="M 110.5,40.5 C 111.675,40.281 112.675,40.6143 113.5,41.5C 112.185,43.3159 110.685,44.9825 109,46.5C 108.308,45.9747 107.808,45.3081 107.5,44.5C 108.524,43.1482 109.524,41.8149 110.5,40.5 Z"/></g>
<g><path style="opacity:0.896" fill="#f7f7f7" d="M 78.5,41.5 C 84.6204,43.7057 89.287,47.539 92.5,53C 91.8957,55.4675 90.5624,57.4675 88.5,59C 83.8036,59.9141 79.3036,59.4141 75,57.5C 70.8465,50.7936 72.0132,45.4603 78.5,41.5 Z"/></g>
<g><path style="opacity:1" fill="#1c1c1c" d="M 81.5,48.5 C 82.7562,48.4614 83.7562,48.9614 84.5,50C 83.5214,52.1373 82.1881,53.9706 80.5,55.5C 79.3679,53.0097 79.7012,50.6763 81.5,48.5 Z"/></g>
<g><path style="opacity:0.902" fill="#f4f4f4" d="M 83.5,112.5 C 82.325,112.281 81.325,112.614 80.5,113.5C 79.6518,115.409 79.3184,117.409 79.5,119.5C 80.5,119.5 81.5,119.5 82.5,119.5C 81.5991,127.902 77.5991,134.402 70.5,139C 66.686,140.571 62.8526,141.071 59,140.5C 46.8073,141.461 34.6406,142.795 22.5,144.5C 17.1818,144.022 13.3485,141.355 11,136.5C 6.17629,127.048 4.17629,117.048 5,106.5C 6.65678,101.178 9.32344,96.5115 13,92.5C 15.3333,95.8333 17.6667,99.1667 20,102.5C 20.2069,106.089 20.7069,109.589 21.5,113C 20.9415,113.725 20.6082,114.558 20.5,115.5C 21.6502,119.434 22.4835,123.434 23,127.5C 25.1641,129.803 27.8308,131.137 31,131.5C 36.5767,130.665 42.0767,130.665 47.5,131.5C 76.0186,127.039 83.6852,111.706 70.5,85.5C 71.2421,84.7132 72.0754,84.0465 73,83.5C 77.7906,85.7252 82.7906,87.3918 88,88.5C 93.8813,86.2031 99.7146,83.7031 105.5,81C 106.87,79.5587 107.87,77.892 108.5,76C 115.03,72.394 121.697,70.0607 128.5,69C 133.128,65.2436 135.795,60.4103 136.5,54.5C 138.074,56.1016 138.741,58.1016 138.5,60.5C 139.5,60.5 140.5,60.5 141.5,60.5C 141.983,56.4231 140.316,54.0897 136.5,53.5C 136.461,51.6412 137.294,50.3079 139,49.5C 149.014,54.5145 152.014,62.1812 148,72.5C 146.127,74.7089 143.96,76.5422 141.5,78C 134.489,80.337 127.489,82.6703 120.5,85C 115.833,89 111.167,93 106.5,97C 96.0423,98.2153 88.3756,103.382 83.5,112.5 Z"/></g>
<g><path style="opacity:0.999" fill="#191919" d="M 136.5,54.5 C 136.5,54.1667 136.5,53.8333 136.5,53.5C 140.316,54.0897 141.983,56.4231 141.5,60.5C 140.5,60.5 139.5,60.5 138.5,60.5C 138.741,58.1016 138.074,56.1016 136.5,54.5 Z"/></g>
<g><path style="opacity:1" fill="#212121" d="M 139.5,63.5 C 140.5,63.5 141.5,63.5 142.5,63.5C 142.662,65.5273 142.495,67.5273 142,69.5C 141.586,69.9574 141.086,70.2907 140.5,70.5C 139.526,68.2573 139.192,65.924 139.5,63.5 Z"/></g>
<g><path style="opacity:1" fill="#1d1d1d" d="M 134.5,71.5 C 135.756,71.4614 136.756,71.9614 137.5,73C 135.759,74.6196 133.925,76.1196 132,77.5C 131.308,76.9747 130.808,76.3081 130.5,75.5C 131.549,73.7844 132.882,72.4511 134.5,71.5 Z"/></g>
<g><path style="opacity:1" fill="#1f1f1f" d="M 125.5,76.5 C 126.995,76.4148 127.995,77.0815 128.5,78.5C 126.711,79.8772 124.711,80.8772 122.5,81.5C 121.417,80.635 121.251,79.635 122,78.5C 123.302,77.9152 124.469,77.2485 125.5,76.5 Z"/></g>
<g><path style="opacity:1" fill="#121212" d="M 110.5,78.5 C 112.426,79.2423 114.259,80.2423 116,81.5C 116.563,82.7248 116.23,83.7248 115,84.5C 113.846,83.2567 112.512,82.2567 111,81.5C 110.517,80.552 110.351,79.552 110.5,78.5 Z"/></g>
<g><path style="opacity:1" fill="#171717" d="M 109.5,87.5 C 110.675,87.281 111.675,87.6143 112.5,88.5C 111.167,90.5 109.5,92.1667 107.5,93.5C 107.167,93 106.833,92.5 106.5,92C 107.315,90.3566 108.315,88.8566 109.5,87.5 Z"/></g>
<g><path style="opacity:1" fill="#1c1c1c" d="M 76.5,91.5 C 78.6491,92.7476 80.6491,94.2476 82.5,96C 79.5821,97.5675 77.2488,96.7342 75.5,93.5C 75.8627,92.8165 76.1961,92.1499 76.5,91.5 Z"/></g>
<g><path style="opacity:1" fill="#1e1e1e" d="M 100.5,92.5 C 101.5,92.5 102.5,92.5 103.5,92.5C 103.5,93.5 103.5,94.5 103.5,95.5C 101.323,95.5861 99.323,96.2528 97.5,97.5C 96.4173,96.635 96.2506,95.635 97,94.5C 98.3024,93.9152 99.469,93.2485 100.5,92.5 Z"/></g>
<g><path style="opacity:1" fill="#000000" d="M 86.5,96.5 C 94.5,97.1667 94.5,97.8333 86.5,98.5C 86.5,97.8333 86.5,97.1667 86.5,96.5 Z"/></g>
<g><path style="opacity:1" fill="#7a7a7a" d="M 86.5,96.5 C 88.6074,95.5318 90.9407,95.1984 93.5,95.5C 93.5,96.8333 93.5,98.1667 93.5,99.5C 90.9407,99.8016 88.6074,99.4682 86.5,98.5C 94.5,97.8333 94.5,97.1667 86.5,96.5 Z"/></g>
<g><path style="opacity:1" fill="#121212" d="M 10.5,101.5 C 11.552,101.351 12.552,101.517 13.5,102C 12.5769,104.041 12.2436,106.208 12.5,108.5C 11.5,108.5 10.5,108.5 9.5,108.5C 9.99255,106.194 10.3259,103.861 10.5,101.5 Z"/></g>
<g><path style="opacity:1" fill="#1d1d1d" d="M 80.5,102.5 C 81.5,102.5 82.5,102.5 83.5,102.5C 83.5,104.833 83.5,107.167 83.5,109.5C 82.5,109.5 81.5,109.5 80.5,109.5C 80.5,107.167 80.5,104.833 80.5,102.5 Z"/></g>
<g><path style="opacity:1" fill="#1e1e1e" d="M 9.5,111.5 C 10.5,111.5 11.5,111.5 12.5,111.5C 12.5,113.833 12.5,116.167 12.5,118.5C 11.5,118.5 10.5,118.5 9.5,118.5C 9.5,116.167 9.5,113.833 9.5,111.5 Z"/></g>
<g><path style="opacity:0.694" fill="#171717" d="M 83.5,112.5 C 83.702,114.95 83.3686,117.283 82.5,119.5C 81.5,119.5 80.5,119.5 79.5,119.5C 79.3184,117.409 79.6518,115.409 80.5,113.5C 81.325,112.614 82.325,112.281 83.5,112.5 Z"/></g>
<g><path style="opacity:1" fill="#0d0d0d" d="M 10.5,122.5 C 13.2921,123.392 14.6254,125.392 14.5,128.5C 13.5,128.5 12.5,128.5 11.5,128.5C 11.1667,126.5 10.8333,124.5 10.5,122.5 Z"/></g>
<g><path style="opacity:1" fill="#161616" d="M 76.5,121.5 C 77.6946,121.866 78.3613,122.699 78.5,124C 77.7297,125.775 76.563,127.275 75,128.5C 74.3076,127.975 73.8076,127.308 73.5,126.5C 74.7629,124.971 75.7629,123.305 76.5,121.5 Z"/></g>
<g><path style="opacity:1" fill="#191919" d="M 68.5,129.5 C 70.3547,129.272 71.1881,129.939 71,131.5C 69.0782,134.089 66.9115,134.589 64.5,133C 65.7305,131.595 67.0639,130.429 68.5,129.5 Z"/></g>
<g><path style="opacity:1" fill="#111111" d="M 15.5,131.5 C 19.0187,132.309 20.352,134.309 19.5,137.5C 16.6282,136.059 15.2948,134.059 15.5,131.5 Z"/></g>
<g><path style="opacity:1" fill="#222222" d="M 60.5,133.5 C 61.4778,133.811 62.1445,134.478 62.5,135.5C 60.5101,136.498 58.5101,137.498 56.5,138.5C 55.5713,137.311 55.238,135.978 55.5,134.5C 57.4147,134.784 59.0813,134.451 60.5,133.5 Z"/></g>
<g><path style="opacity:1" fill="#1d1d1d" d="M 44.5,136.5 C 46.8333,136.5 49.1667,136.5 51.5,136.5C 51.5,137.5 51.5,138.5 51.5,139.5C 49.1667,139.5 46.8333,139.5 44.5,139.5C 44.5,138.5 44.5,137.5 44.5,136.5 Z"/></g>
<g><path style="opacity:1" fill="#121212" d="M 24.5,136.5 C 26.8543,136.91 28.8543,137.91 30.5,139.5C 28.0303,140.639 25.697,140.306 23.5,138.5C 23.8627,137.817 24.1961,137.15 24.5,136.5 Z"/></g>
<g><path style="opacity:1" fill="#090909" d="M 34.5,137.5 C 36.8333,137.5 39.1667,137.5 41.5,137.5C 41.5,138.5 41.5,139.5 41.5,140.5C 39.1667,140.5 36.8333,140.5 34.5,140.5C 34.5,139.5 34.5,138.5 34.5,137.5 Z"/></g>
</svg>
