<?xml version="1.0" encoding="UTF-8"?>
<!DOCTYPE svg PUBLIC "-//W3C//DTD SVG 1.1//EN" "http://www.w3.org/Graphics/SVG/1.1/DTD/svg11.dtd">
<svg xmlns="http://www.w3.org/2000/svg" version="1.1" width="160px" height="160px" style="shape-rendering:geometricPrecision; text-rendering:geometricPrecision; image-rendering:optimizeQuality; fill-rule:evenodd; clip-rule:evenodd" xmlns:xlink="http://www.w3.org/1999/xlink">
<g><path style="opacity:0.826" fill="#f9f9f9" d="M 92.5,44.5 C 101,42.8326 104.167,46.166 102,54.5C 99.1787,58.6629 95.3454,60.1629 90.5,59C 87.8334,53.827 88.5001,48.9937 92.5,44.5 Z"/></g>
<g><path style="opacity:0.902" fill="#f6f6f6" d="M 128.5,47.5 C 133.339,48.1715 136.505,50.8382 138,55.5C 139.101,70.8666 133.934,83.6999 122.5,94C 116.39,96.221 110.723,99.221 105.5,103C 92.5392,107.984 79.2058,111.484 65.5,113.5C 59.0066,113.569 52.34,113.402 45.5,113C 39.6667,109.945 33.6667,107.278 27.5,105C 15.4618,94.7097 13.2952,82.543 21,68.5C 21.3678,67.09 22.2011,66.09 23.5,65.5C 26.9251,65.9145 30.4251,66.9145 34,68.5C 34.5923,71.6944 34.4257,74.8611 33.5,78C 28.3255,82.6861 28.3255,87.3527 33.5,92C 48.3743,95.7952 63.7076,97.1285 79.5,96C 90.0816,94.0221 100.415,90.3554 110.5,85C 122.402,77.3056 126.902,66.4723 124,52.5C 125.025,50.313 126.525,48.6464 128.5,47.5 Z"/></g>
<g><path style="opacity:1" fill="#242424" d="M 96.5,49.5 C 97.5,49.5 98.5,49.5 99.5,49.5C 99.4048,52.2723 98.0715,54.2723 95.5,55.5C 94.5,55.1667 93.8333,54.5 93.5,53.5C 94.5244,52.1482 95.5244,50.8149 96.5,49.5 Z"/></g>
<g><path style="opacity:0.803" fill="#f4f4f4" d="M 64.5,50.5 C 66.5273,50.3379 68.5273,50.5045 70.5,51C 71.6105,53.7372 71.7772,56.5706 71,59.5C 68.8699,62.23 66.2032,64.23 63,65.5C 59.6607,65.1614 58.1607,63.3281 58.5,60C 58.6667,58.8333 58.8333,57.6667 59,56.5C 61.0396,54.6298 62.8729,52.6298 64.5,50.5 Z"/></g>
<g><path style="opacity:1" fill="#202020" d="M 126.5,51.5 C 127.675,51.281 128.675,51.6143 129.5,52.5C 130.348,54.4086 130.682,56.4086 130.5,58.5C 129.5,58.5 128.5,58.5 127.5,58.5C 127.326,56.139 126.993,53.8056 126.5,51.5 Z"/></g>
<g><path style="opacity:1" fill="#171717" d="M 66.5,54.5 C 67.675,54.281 68.675,54.6143 69.5,55.5C 68.396,57.3885 67.0627,59.0552 65.5,60.5C 64.6919,60.1924 64.0253,59.6924 63.5,59C 64.3862,57.3853 65.3862,55.8853 66.5,54.5 Z"/></g>
<g><path style="opacity:1" fill="#090909" d="M 129.5,62.5 C 130.5,62.5 131.5,62.5 132.5,62.5C 132.5,64.5 132.5,66.5 132.5,68.5C 131.5,68.5 130.5,68.5 129.5,68.5C 129.5,66.5 129.5,64.5 129.5,62.5 Z"/></g>
<g><path style="opacity:1" fill="#1b1b1b" d="M 128.5,72.5 C 129.5,72.5 130.5,72.5 131.5,72.5C 131.327,75.1795 130.327,77.5128 128.5,79.5C 127.5,79.1667 126.833,78.5 126.5,77.5C 127.456,75.9246 128.123,74.258 128.5,72.5 Z"/></g>
<g><path style="opacity:1" fill="#0b0b0b" d="M 23.5,73.5 C 24.675,73.281 25.675,73.6143 26.5,74.5C 23.3978,81.312 22.3978,80.9786 23.5,73.5 Z"/></g>
<g><path style="opacity:1" fill="#191919" d="M 123.5,81.5 C 124.995,81.4148 125.995,82.0815 126.5,83.5C 125.242,86.4995 123.242,87.4995 120.5,86.5C 121.952,85.0603 122.952,83.3936 123.5,81.5 Z"/></g>
<g><path style="opacity:1" fill="#060606" d="M 21.5,83.5 C 22.5,83.5 23.5,83.5 24.5,83.5C 24.0821,92.6914 23.0821,92.6914 21.5,83.5 Z"/></g>
<g><path style="opacity:1" fill="#1e1e1e" d="M 116.5,88.5 C 117.995,88.4148 118.995,89.0815 119.5,90.5C 117.833,91.8333 116.167,93.1667 114.5,94.5C 113.5,94.1667 112.833,93.5 112.5,92.5C 114.188,91.4787 115.521,90.1454 116.5,88.5 Z"/></g>
<g><path style="opacity:1" fill="#1a1a1a" d="M 24.5,93.5 C 28.4334,94.6958 29.6001,97.0291 28,100.5C 25.6088,98.3938 24.4421,96.0605 24.5,93.5 Z"/></g>
<g><path style="opacity:1" fill="#181818" d="M 107.5,94.5 C 108.995,94.4148 109.995,95.0815 110.5,96.5C 108.51,97.4981 106.51,98.4981 104.5,99.5C 104.167,99 103.833,98.5 103.5,98C 104.686,96.5879 106.019,95.4212 107.5,94.5 Z"/></g>
<g><path style="opacity:1" fill="#1b1b1b" d="M 94.5,98.5 C 96.604,98.2011 98.604,98.5344 100.5,99.5C 98.5128,101.327 96.1795,102.327 93.5,102.5C 93.4326,101.041 93.7659,99.7079 94.5,98.5 Z"/></g>
<g><path style="opacity:1" fill="#191919" d="M 32.5,100.5 C 34.3084,100.491 35.9751,100.991 37.5,102C 38.731,103.183 38.731,104.349 37.5,105.5C 34.5943,104.913 32.9276,103.246 32.5,100.5 Z"/></g>
<g><path style="opacity:1" fill="#242424" d="M 87.5,100.5 C 88.9953,100.415 89.9953,101.081 90.5,102.5C 88.5128,104.327 86.1795,105.327 83.5,105.5C 83.4078,102.6 84.7411,100.933 87.5,100.5 Z"/></g>
<g><path style="opacity:1" fill="#252525" d="M 41.5,104.5 C 43.5273,104.338 45.5273,104.505 47.5,105C 48.3366,106.011 48.67,107.178 48.5,108.5C 46.4357,108.313 44.4357,107.813 42.5,107C 41.7476,106.329 41.4142,105.496 41.5,104.5 Z"/></g>
<g><path style="opacity:1" fill="#232323" d="M 77.5,103.5 C 79.6859,103.511 80.5192,104.511 80,106.5C 77.9592,107.423 75.7925,107.756 73.5,107.5C 73.5,106.5 73.5,105.5 73.5,104.5C 75.099,104.768 76.4324,104.434 77.5,103.5 Z"/></g>
<g><path style="opacity:1" fill="#1c1c1c" d="M 52.5,106.5 C 54.8333,106.5 57.1667,106.5 59.5,106.5C 59.5,107.5 59.5,108.5 59.5,109.5C 57.1667,109.5 54.8333,109.5 52.5,109.5C 52.5,108.5 52.5,107.5 52.5,106.5 Z"/></g>
<g><path style="opacity:1" fill="#101010" d="M 67.5,105.5 C 69.0481,105.821 69.7148,106.821 69.5,108.5C 67.076,108.808 64.7427,108.474 62.5,107.5C 64.2914,106.83 65.9581,106.163 67.5,105.5 Z"/></g>
</svg>
