<?xml version="1.0" encoding="UTF-8"?>
<!DOCTYPE svg PUBLIC "-//W3C//DTD SVG 1.1//EN" "http://www.w3.org/Graphics/SVG/1.1/DTD/svg11.dtd">
<svg xmlns="http://www.w3.org/2000/svg" version="1.1" width="160px" height="160px" style="shape-rendering:geometricPrecision; text-rendering:geometricPrecision; image-rendering:optimizeQuality; fill-rule:evenodd; clip-rule:evenodd" xmlns:xlink="http://www.w3.org/1999/xlink">
<g><path style="opacity:0.917" fill="#f5f5f5" d="M 54.5,22.5 C 53.5,22.5 52.5,22.5 51.5,22.5C 51.5,24.8333 51.5,27.1667 51.5,29.5C 52.5,29.5 53.5,29.5 54.5,29.5C 54.5,27.5 54.5,25.5 54.5,23.5C 56.2679,26.6057 57.7679,29.9391 59,33.5C 59.4341,43.2582 59.2674,53.0915 58.5,63C 60.2903,75.7779 61.7903,88.6112 63,101.5C 64.913,103.187 67.0797,103.687 69.5,103C 73.5689,99.9368 77.9022,97.2701 82.5,95C 95.6525,93.3801 108.819,91.8801 122,90.5C 125.72,90.4272 129.054,91.4272 132,93.5C 134.72,98.6574 136.553,103.824 137.5,109C 128.095,126.299 113.762,135.465 94.5,136.5C 85.0998,138.696 75.5998,140.363 66,141.5C 58.8934,140.682 52.0601,138.848 45.5,136C 39.1574,132.163 32.824,128.33 26.5,124.5C 22.9477,121.27 21.6144,117.436 22.5,113C 23.5768,112.53 24.5768,112.697 25.5,113.5C 24.2511,115.829 24.9177,117.662 27.5,119C 29.0738,119.699 30.4071,119.365 31.5,118C 30.2899,116.961 29.2899,115.794 28.5,114.5C 33.2076,115.125 37.7076,116.458 42,118.5C 46.1757,117.655 49.1757,115.322 51,111.5C 51.6667,104.5 51.6667,97.5 51,90.5C 48.1772,81.8819 47.0105,73.2153 47.5,64.5C 47.0648,56.5422 46.0648,48.7088 44.5,41C 44.8333,40.6667 45.1667,40.3333 45.5,40C 42.5487,34.0146 42.0487,27.8479 44,21.5C 48.3239,15.8473 51.8239,16.1806 54.5,22.5 Z M 111.5,104.5 C 119.244,104.048 121.577,107.215 118.5,114C 103.989,118.209 89.656,122.876 75.5,128C 67.5,129 65.5,126 69.5,119C 83.5104,113.841 97.5104,109.008 111.5,104.5 Z"/></g>
<g><path style="opacity:1" fill="#0f0f0f" d="M 54.5,22.5 C 54.5,22.8333 54.5,23.1667 54.5,23.5C 54.5,25.5 54.5,27.5 54.5,29.5C 53.5,29.5 52.5,29.5 51.5,29.5C 51.5,27.1667 51.5,24.8333 51.5,22.5C 52.5,22.5 53.5,22.5 54.5,22.5 Z"/></g>
<g><path style="opacity:1" fill="#151515" d="M 51.5,33.5 C 52.5,33.5 53.5,33.5 54.5,33.5C 54.5,35.8333 54.5,38.1667 54.5,40.5C 53.5,40.5 52.5,40.5 51.5,40.5C 51.5,38.1667 51.5,35.8333 51.5,33.5 Z"/></g>
<g><path style="opacity:1" fill="#202020" d="M 52.5,43.5 C 53.5,43.5 54.5,43.5 55.5,43.5C 55.5,45.8333 55.5,48.1667 55.5,50.5C 54.5,50.5 53.5,50.5 52.5,50.5C 52.5,48.1667 52.5,45.8333 52.5,43.5 Z"/></g>
<g><path style="opacity:1" fill="#090909" d="M 52.5,54.5 C 53.5,54.5 54.5,54.5 55.5,54.5C 55.5,56.5 55.5,58.5 55.5,60.5C 54.5,60.5 53.5,60.5 52.5,60.5C 52.5,58.5 52.5,56.5 52.5,54.5 Z"/></g>
<g><path style="opacity:1" fill="#101010" d="M 52.5,64.5 C 53.5,64.5 54.5,64.5 55.5,64.5C 55.5,66.8333 55.5,69.1667 55.5,71.5C 54.5,71.5 53.5,71.5 52.5,71.5C 52.5,69.1667 52.5,66.8333 52.5,64.5 Z"/></g>
<g><path style="opacity:1" fill="#000000" d="M 55.5,75.5 C 55.9746,78.0821 55.3079,80.0821 53.5,81.5C 53.0254,78.9179 53.6921,76.9179 55.5,75.5 Z"/></g>
<g><path style="opacity:1" fill="#636363" d="M 55.5,75.5 C 56.4682,77.6074 56.8016,79.9407 56.5,82.5C 55.209,82.7373 54.209,82.404 53.5,81.5C 55.3079,80.0821 55.9746,78.0821 55.5,75.5 Z"/></g>
<g><path style="opacity:1" fill="#131313" d="M 53.5,85.5 C 54.5,85.5 55.5,85.5 56.5,85.5C 56.5,87.8333 56.5,90.1667 56.5,92.5C 55.5,92.5 54.5,92.5 53.5,92.5C 53.5,90.1667 53.5,87.8333 53.5,85.5 Z"/></g>
<g><path style="opacity:1" fill="#171717" d="M 100.5,95.5 C 102.5,95.5 104.5,95.5 106.5,95.5C 106.5,96.5 106.5,97.5 106.5,98.5C 104.5,98.5 102.5,98.5 100.5,98.5C 100.5,97.5 100.5,96.5 100.5,95.5 Z"/></g>
<g><path style="opacity:1" fill="#171717" d="M 110.5,94.5 C 112.806,94.9926 115.139,95.3259 117.5,95.5C 117.5,96.5 117.5,97.5 117.5,98.5C 115.409,98.6816 113.409,98.3482 111.5,97.5C 110.614,96.675 110.281,95.675 110.5,94.5 Z"/></g>
<g><path style="opacity:1" fill="#0a0a0a" d="M 54.5,96.5 C 56.6138,97.784 57.6138,99.784 57.5,102.5C 56.5,102.5 55.5,102.5 54.5,102.5C 54.5,100.5 54.5,98.5 54.5,96.5 Z"/></g>
<g><path style="opacity:1" fill="#1c1c1c" d="M 91.5,97.5 C 97.8975,98.1018 97.8975,99.4352 91.5,101.5C 88.8753,100.135 88.8753,98.802 91.5,97.5 Z"/></g>
<g><path style="opacity:1" fill="#1a1a1a" d="M 120.5,97.5 C 123.14,97.954 125.473,99.1207 127.5,101C 123.877,102.937 121.543,101.77 120.5,97.5 Z"/></g>
<g><path style="opacity:1" fill="#0e0e0e" d="M 84.5,100.5 C 85.4972,100.47 86.1639,100.97 86.5,102C 85.2139,103.649 83.5473,104.815 81.5,105.5C 81.1667,105 80.8333,104.5 80.5,104C 81.6856,102.588 83.019,101.421 84.5,100.5 Z"/></g>
<g><path style="opacity:1" fill="#161616" d="M 74.5,105.5 C 75.5,105.5 76.5,105.5 77.5,105.5C 77.1484,108.114 75.6484,109.781 73,110.5C 72.5,110.167 72,109.833 71.5,109.5C 72.5244,108.148 73.5244,106.815 74.5,105.5 Z"/></g>
<g><path style="opacity:1" fill="#191919" d="M 127.5,105.5 C 128.5,105.5 129.5,105.5 130.5,105.5C 130.5,107.833 130.5,110.167 130.5,112.5C 129.5,112.5 128.5,112.5 127.5,112.5C 127.5,110.167 127.5,107.833 127.5,105.5 Z"/></g>
<g><path style="opacity:1" fill="#1c1c1c" d="M 55.5,106.5 C 56.5,106.5 57.5,106.5 58.5,106.5C 58.5,108.833 58.5,111.167 58.5,113.5C 57.5,113.5 56.5,113.5 55.5,113.5C 55.5,111.167 55.5,108.833 55.5,106.5 Z"/></g>
<g><path style="opacity:0.894" fill="#222222" d="M 25.5,113.5 C 26.609,113.557 27.609,113.89 28.5,114.5C 29.2899,115.794 30.2899,116.961 31.5,118C 30.4071,119.365 29.0738,119.699 27.5,119C 24.9177,117.662 24.2511,115.829 25.5,113.5 Z"/></g>
<g><path style="opacity:1" fill="#1b1b1b" d="M 67.5,112.5 C 68.7562,112.461 69.7562,112.961 70.5,114C 68.7585,115.62 66.9252,117.12 65,118.5C 64.3076,117.975 63.8076,117.308 63.5,116.5C 64.5487,114.784 65.882,113.451 67.5,112.5 Z"/></g>
<g><path style="opacity:1" fill="#1a1a1a" d="M 125.5,114.5 C 126.756,114.461 127.756,114.961 128.5,116C 126.957,117.878 125.124,119.378 123,120.5C 122.308,119.975 121.808,119.308 121.5,118.5C 122.867,117.16 124.2,115.827 125.5,114.5 Z"/></g>
<g><path style="opacity:1" fill="#1e1e1e" d="M 54.5,117.5 C 57.09,118.128 59.4234,119.295 61.5,121C 59.2894,122.839 57.1227,122.672 55,120.5C 54.5172,119.552 54.3505,118.552 54.5,117.5 Z"/></g>
<g><path style="opacity:1" fill="#1e1e1e" d="M 116.5,120.5 C 117.995,120.415 118.995,121.081 119.5,122.5C 117.513,124.327 115.179,125.327 112.5,125.5C 112.281,124.325 112.614,123.325 113.5,122.5C 114.739,122.058 115.739,121.391 116.5,120.5 Z"/></g>
<g><path style="opacity:1" fill="#1d1d1d" d="M 33.5,120.5 C 36.1678,120.834 38.1678,122.167 39.5,124.5C 37.4122,125.489 35.4122,125.156 33.5,123.5C 32.4376,122.575 32.4376,121.575 33.5,120.5 Z"/></g>
<g><path style="opacity:1" fill="#191919" d="M 107.5,124.5 C 109.465,124.948 109.798,125.948 108.5,127.5C 106.922,128.64 105.256,129.14 103.5,129C 103.043,128.586 102.709,128.086 102.5,127.5C 104.36,126.675 106.026,125.675 107.5,124.5 Z"/></g>
<g><path style="opacity:1" fill="#181818" d="M 42.5,125.5 C 44.9237,126.03 47.257,126.864 49.5,128C 47.9685,130.813 45.9685,130.979 43.5,128.5C 42.6143,127.675 42.281,126.675 42.5,125.5 Z"/></g>
<g><path style="opacity:1" fill="#1c1c1c" d="M 52.5,128.5 C 54.5914,128.318 56.5914,128.652 58.5,129.5C 59.3857,130.325 59.719,131.325 59.5,132.5C 57.1944,132.007 54.861,131.674 52.5,131.5C 52.5,130.5 52.5,129.5 52.5,128.5 Z"/></g>
<g><path style="opacity:1" fill="#181818" d="M 95.5,128.5 C 96.8333,128.5 98.1667,128.5 99.5,128.5C 99.5,129.5 99.5,130.5 99.5,131.5C 97.5,131.833 95.5,132.167 93.5,132.5C 93.5271,130.801 94.1938,129.467 95.5,128.5 Z"/></g>
<g><path style="opacity:1" fill="#131313" d="M 62.5,130.5 C 64.8333,130.5 67.1667,130.5 69.5,130.5C 69.5,131.5 69.5,132.5 69.5,133.5C 67.1667,133.5 64.8333,133.5 62.5,133.5C 62.5,132.5 62.5,131.5 62.5,130.5 Z"/></g>
<g><path style="opacity:1" fill="#606060" d="M 73.5,131.5 C 75.6074,130.532 77.9407,130.198 80.5,130.5C 80.7373,131.791 80.404,132.791 79.5,133.5C 78.0821,131.692 76.0821,131.025 73.5,131.5 Z"/></g>
<g><path style="opacity:1" fill="#0a0a0a" d="M 83.5,130.5 C 85.8333,130.5 88.1667,130.5 90.5,130.5C 90.5,131.5 90.5,132.5 90.5,133.5C 88.1667,133.5 85.8333,133.5 83.5,133.5C 83.5,132.5 83.5,131.5 83.5,130.5 Z"/></g>
<g><path style="opacity:1" fill="#000000" d="M 73.5,131.5 C 76.0821,131.025 78.0821,131.692 79.5,133.5C 76.9179,133.975 74.9179,133.308 73.5,131.5 Z"/></g>
</svg>
