<?xml version="1.0" encoding="UTF-8"?>
<!DOCTYPE svg PUBLIC "-//W3C//DTD SVG 1.1//EN" "http://www.w3.org/Graphics/SVG/1.1/DTD/svg11.dtd">
<svg xmlns="http://www.w3.org/2000/svg" version="1.1" width="160px" height="160px" style="shape-rendering:geometricPrecision; text-rendering:geometricPrecision; image-rendering:optimizeQuality; fill-rule:evenodd; clip-rule:evenodd" xmlns:xlink="http://www.w3.org/1999/xlink">
<g><path style="opacity:0.82" fill="#f6f6f6" d="M 75.5,36.5 C 80.1234,35.7811 82.79,37.7811 83.5,42.5C 83.1366,45.5944 81.8032,48.5944 79.5,51.5C 76.6272,50.2251 73.6272,49.3918 70.5,49C 67.9925,45.7927 68.1592,42.626 71,39.5C 72.6516,38.6006 74.1516,37.6006 75.5,36.5 Z"/></g>
<g><path style="opacity:1" fill="#1a1a1a" d="M 77.5,40.5 C 78.7562,40.4614 79.7562,40.9614 80.5,42C 78.9825,43.6851 77.3159,45.1851 75.5,46.5C 74.5,46.1667 73.8333,45.5 73.5,44.5C 75.188,43.4787 76.5213,42.1454 77.5,40.5 Z"/></g>
<g><path style="opacity:0.916" fill="#f5f5f5" d="M 105.5,107.5 C 104.106,109.708 102.106,111.208 99.5,112C 81.4561,116.413 63.7894,118.913 46.5,119.5C 39.7722,118.792 33.1055,117.626 26.5,116C 18.6241,111.851 14.6241,105.518 14.5,97C 11.6199,89.2172 11.9533,81.5505 15.5,74C 19.0962,70.8316 22.9295,70.6649 27,73.5C 28.0505,77.3036 28.8838,81.1369 29.5,85C 28.903,92.7902 32.2364,98.4569 39.5,102C 43.9865,103.666 48.4865,105.166 53,106.5C 54.0674,105.809 55.2341,105.309 56.5,105C 67.5,104.667 78.5,104.333 89.5,104C 96.3104,101.197 102.644,97.5301 108.5,93C 121.372,89.4712 128.372,81.1379 129.5,68C 128.665,63.7812 128.332,59.4479 128.5,55C 129.191,53.9326 129.691,52.7659 130,51.5C 133.177,50.5763 136.677,49.9096 140.5,49.5C 142.079,56.9027 143.079,64.4027 143.5,72C 143.983,79.3673 141.65,85.7007 136.5,91C 131.833,94.3333 127.167,97.6667 122.5,101C 117.023,103.742 111.356,105.908 105.5,107.5 Z"/></g>
<g><path style="opacity:1" fill="#202020" d="M 134.5,54.5 C 135.5,54.5 136.5,54.5 137.5,54.5C 137.5,56.8333 137.5,59.1667 137.5,61.5C 136.5,61.5 135.5,61.5 134.5,61.5C 134.5,59.1667 134.5,56.8333 134.5,54.5 Z"/></g>
<g><path style="opacity:0.819" fill="#f4f4f4" d="M 95.5,55.5 C 104.33,57.513 105.33,61.6797 98.5,68C 90.9155,70.0848 88.7488,67.5848 92,60.5C 92.6695,58.4098 93.8361,56.7432 95.5,55.5 Z"/></g>
<g><path style="opacity:1" fill="#292929" d="M 96.5,59.5 C 98.1033,59.3118 99.4366,59.8118 100.5,61C 98.9825,62.6851 97.3159,64.1851 95.5,65.5C 94.5,65.1667 93.8333,64.5 93.5,63.5C 94.5244,62.1482 95.5244,60.8149 96.5,59.5 Z"/></g>
<g><path style="opacity:0.611" fill="#f0f0f0" d="M 64.5,63.5 C 63.1182,65.5486 61.4516,67.2153 59.5,68.5C 59.5,66.8333 59.5,65.1667 59.5,63.5C 61.1667,63.5 62.8333,63.5 64.5,63.5 Z"/></g>
<g><path style="opacity:0.7" fill="#f2f2f2" d="M 67.5,63.5 C 69.81,66.2585 69.4767,69.0919 66.5,72C 65,72.5 63.5,73 62,73.5C 60.2509,73.2517 59.4176,72.2517 59.5,70.5C 60.4959,70.4142 61.3292,70.7476 62,71.5C 64.4613,68.6677 66.2946,66.0011 67.5,63.5 Z"/></g>
<g><path style="opacity:0.999" fill="#2a2a2a" d="M 64.5,63.5 C 65.5,63.5 66.5,63.5 67.5,63.5C 66.2946,66.0011 64.4613,68.6677 62,71.5C 61.3292,70.7476 60.4959,70.4142 59.5,70.5C 59.5,69.8333 59.5,69.1667 59.5,68.5C 61.4516,67.2153 63.1182,65.5486 64.5,63.5 Z"/></g>
<g><path style="opacity:1" fill="#141414" d="M 135.5,64.5 C 136.5,64.5 137.5,64.5 138.5,64.5C 138.5,66.8333 138.5,69.1667 138.5,71.5C 137.5,71.5 136.5,71.5 135.5,71.5C 135.5,69.1667 135.5,66.8333 135.5,64.5 Z"/></g>
<g><path style="opacity:1" fill="#1d1d1d" d="M 133.5,74.5 C 134.995,74.4148 135.995,75.0815 136.5,76.5C 136.134,78.84 134.967,80.5067 133,81.5C 132.5,81.1667 132,80.8333 131.5,80.5C 132.747,78.677 133.414,76.677 133.5,74.5 Z"/></g>
<g><path style="opacity:1" fill="#1f1f1f" d="M 18.5,77.5 C 19.5,77.5 20.5,77.5 21.5,77.5C 21.5,79.8333 21.5,82.1667 21.5,84.5C 20.5,84.5 19.5,84.5 18.5,84.5C 18.5,82.1667 18.5,79.8333 18.5,77.5 Z"/></g>
<g><path style="opacity:1" fill="#1c1c1c" d="M 129.5,83.5 C 131.709,86.2033 131.043,88.5366 127.5,90.5C 126.692,90.1924 126.025,89.6924 125.5,89C 126.965,87.2258 128.298,85.3925 129.5,83.5 Z"/></g>
<g><path style="opacity:1" fill="#212121" d="M 19.5,87.5 C 20.675,87.281 21.675,87.6143 22.5,88.5C 23.3482,90.4086 23.6816,92.4086 23.5,94.5C 22.5,94.5 21.5,94.5 20.5,94.5C 20.0074,92.1944 19.6741,89.861 19.5,87.5 Z"/></g>
<g><path style="opacity:1" fill="#101010" d="M 121.5,92.5 C 122.675,92.281 123.675,92.6143 124.5,93.5C 123.242,96.4995 121.242,97.4995 118.5,96.5C 119.524,95.1482 120.524,93.8149 121.5,92.5 Z"/></g>
<g><path style="opacity:1" fill="#191919" d="M 21.5,98.5 C 24.5696,99.2429 26.2363,101.243 26.5,104.5C 23.4304,103.757 21.7637,101.757 21.5,98.5 Z"/></g>
<g><path style="opacity:1" fill="#1d1d1d" d="M 113.5,98.5 C 114.5,98.5 115.5,98.5 116.5,98.5C 116.148,101.114 114.648,102.781 112,103.5C 110.941,103.37 110.108,102.87 109.5,102C 111.093,101.051 112.426,99.8846 113.5,98.5 Z"/></g>
<g><path style="opacity:0.999" fill="#1a1a1a" d="M 105.5,107.5 C 98.9201,107.895 98.9201,106.562 105.5,103.5C 108.125,104.865 108.125,106.198 105.5,107.5 Z"/></g>
<g><path style="opacity:1" fill="#1b1b1b" d="M 29.5,105.5 C 31.6365,106.403 33.6365,107.569 35.5,109C 34.8742,109.75 34.3742,110.584 34,111.5C 32.3333,110.5 30.6667,109.5 29,108.5C 28.5304,107.423 28.6971,106.423 29.5,105.5 Z"/></g>
<g><path style="opacity:1" fill="#202020" d="M 92.5,107.5 C 94.1667,107.5 95.8333,107.5 97.5,107.5C 97.5,108.5 97.5,109.5 97.5,110.5C 95.1944,110.993 92.861,111.326 90.5,111.5C 90.5271,109.801 91.1938,108.467 92.5,107.5 Z"/></g>
<g><path style="opacity:1" fill="#111111" d="M 38.5,109.5 C 40.8056,109.993 43.139,110.326 45.5,110.5C 45.719,111.675 45.3857,112.675 44.5,113.5C 42.5914,112.652 40.5914,112.318 38.5,112.5C 38.5,111.5 38.5,110.5 38.5,109.5 Z"/></g>
<g><path style="opacity:1" fill="#191919" d="M 80.5,109.5 C 82.8333,109.5 85.1667,109.5 87.5,109.5C 87.5,110.5 87.5,111.5 87.5,112.5C 85.1667,112.5 82.8333,112.5 80.5,112.5C 80.5,111.5 80.5,110.5 80.5,109.5 Z"/></g>
<g><path style="opacity:1" fill="#1c1c1c" d="M 69.5,110.5 C 71.8333,110.5 74.1667,110.5 76.5,110.5C 76.5,111.5 76.5,112.5 76.5,113.5C 74.1667,113.5 71.8333,113.5 69.5,113.5C 69.5,112.5 69.5,111.5 69.5,110.5 Z"/></g>
<g><path style="opacity:1" fill="#181818" d="M 48.5,110.5 C 50.8333,110.5 53.1667,110.5 55.5,110.5C 55.5,111.5 55.5,112.5 55.5,113.5C 53.1667,113.5 50.8333,113.5 48.5,113.5C 48.5,112.5 48.5,111.5 48.5,110.5 Z"/></g>
<g><path style="opacity:1" fill="#1a1a1a" d="M 59.5,110.5 C 61.8333,110.5 64.1667,110.5 66.5,110.5C 66.5,111.5 66.5,112.5 66.5,113.5C 64.1667,113.5 61.8333,113.5 59.5,113.5C 59.5,112.5 59.5,111.5 59.5,110.5 Z"/></g>
</svg>
