<?xml version="1.0" encoding="UTF-8"?>
<!DOCTYPE svg PUBLIC "-//W3C//DTD SVG 1.1//EN" "http://www.w3.org/Graphics/SVG/1.1/DTD/svg11.dtd">
<svg xmlns="http://www.w3.org/2000/svg" version="1.1" width="160px" height="160px" style="shape-rendering:geometricPrecision; text-rendering:geometricPrecision; image-rendering:optimizeQuality; fill-rule:evenodd; clip-rule:evenodd" xmlns:xlink="http://www.w3.org/1999/xlink">
<g><path style="opacity:0.92" fill="#f6f6f6" d="M 134.5,58.5 C 132.418,58.472 130.584,59.1387 129,60.5C 128.406,63.2189 129.24,63.8856 131.5,62.5C 130.501,67.487 130.334,72.487 131,77.5C 128.056,81.7763 126.889,86.2763 127.5,91C 124.145,100.025 118.812,107.692 111.5,114C 104.305,117.761 97.3051,121.761 90.5,126C 78.372,126.717 66.7053,128.551 55.5,131.5C 34.144,126.989 22.644,113.989 21,92.5C 28.5639,88.7708 34.2306,90.7708 38,98.5C 40.9772,109.669 48.3105,115.336 60,115.5C 64.1328,116.136 68.1328,115.469 72,113.5C 92.542,114.36 106.875,105.027 115,85.5C 117.215,80.9302 115.882,77.9302 111,76.5C 102.401,79.834 93.7348,81.834 85,82.5C 81.799,79.2575 79.1323,75.5909 77,71.5C 75.112,56.6097 78.9453,42.9431 88.5,30.5C 93.6913,25.1375 99.6913,23.9708 106.5,27C 116.946,36.1125 126.779,45.9458 136,56.5C 136.528,57.816 136.028,58.4827 134.5,58.5 Z M 98.5,41.5 C 102.225,43.0575 105.558,45.2242 108.5,48C 116.096,52.5351 116.429,57.5351 109.5,63C 104.104,66.5992 98.4377,67.0992 92.5,64.5C 91.16,63.3122 90.4934,61.8122 90.5,60C 92.6995,55.4214 94.1995,50.5881 95,45.5C 95.6897,43.6498 96.8564,42.3164 98.5,41.5 Z"/></g>
<g><path style="opacity:1" fill="#171717" d="M 98.5,34.5 C 100.833,34.5 103.167,34.5 105.5,34.5C 105.5,35.5 105.5,36.5 105.5,37.5C 103.167,37.5 100.833,37.5 98.5,37.5C 98.5,36.5 98.5,35.5 98.5,34.5 Z"/></g>
<g><path style="opacity:1" fill="#1d1d1d" d="M 93.5,37.5 C 95.0847,38.0024 95.5847,39.0024 95,40.5C 93.7365,42.607 91.9032,43.607 89.5,43.5C 89.3505,42.448 89.5172,41.448 90,40.5C 91.5185,39.8366 92.6851,38.8366 93.5,37.5 Z"/></g>
<g><path style="opacity:1" fill="#222222" d="M 108.5,38.5 C 111.535,39.9558 112.869,42.1225 112.5,45C 111.833,45.6667 111.167,45.6667 110.5,45C 108.311,43.0894 107.644,40.9227 108.5,38.5 Z"/></g>
<g><path style="opacity:1" fill="#141414" d="M 86.5,45.5 C 87.6946,45.8656 88.3613,46.699 88.5,48C 87.7113,49.6255 86.7113,51.1255 85.5,52.5C 84.6919,52.1924 84.0253,51.6924 83.5,51C 84.6394,49.2196 85.6394,47.3863 86.5,45.5 Z"/></g>
<g><path style="opacity:1" fill="#121212" d="M 113.5,47.5 C 114.496,47.4142 115.329,47.7476 116,48.5C 116.707,50.0806 117.54,51.5806 118.5,53C 117.576,54.4892 116.576,54.6559 115.5,53.5C 114.253,51.677 113.586,49.677 113.5,47.5 Z"/></g>
<g><path style="opacity:1" fill="#1b1b1b" d="M 80.5,55.5 C 81.5,55.5 82.5,55.5 83.5,55.5C 83.6621,57.5273 83.4955,59.5273 83,61.5C 82.586,61.9574 82.086,62.2907 81.5,62.5C 80.5258,60.2573 80.1924,57.924 80.5,55.5 Z"/></g>
<g><path style="opacity:0.723" fill="#141414" d="M 134.5,58.5 C 133.488,59.8717 132.488,61.205 131.5,62.5C 129.24,63.8856 128.406,63.2189 129,60.5C 130.584,59.1387 132.418,58.472 134.5,58.5 Z"/></g>
<g><path style="opacity:1" fill="#131313" d="M 117.5,57.5 C 118.5,57.5 119.5,57.5 120.5,57.5C 120.456,61.0861 122.123,63.4194 125.5,64.5C 122.97,67.2698 121.97,70.6031 122.5,74.5C 121.5,74.5 120.5,74.5 119.5,74.5C 119.288,70.9853 119.288,67.652 119.5,64.5C 118.675,62.1987 118.008,59.8654 117.5,57.5 Z"/></g>
<g><path style="opacity:1" fill="#1f1f1f" d="M 81.5,65.5 C 83.6186,66.7912 85.2853,68.6246 86.5,71C 85.7248,72.2295 84.7248,72.5628 83.5,72C 81.3109,70.0894 80.6442,67.9227 81.5,65.5 Z"/></g>
<g><path style="opacity:1" fill="#1a1a1a" d="M 113.5,67.5 C 114.995,67.4148 115.995,68.0815 116.5,69.5C 114.513,71.3274 112.179,72.3274 109.5,72.5C 109.281,71.325 109.614,70.325 110.5,69.5C 111.739,69.0576 112.739,68.3909 113.5,67.5 Z"/></g>
<g><path style="opacity:1" fill="#202020" d="M 100.5,71.5 C 102.5,71.5 104.5,71.5 106.5,71.5C 106.5,72.5 106.5,73.5 106.5,74.5C 104.139,74.6741 101.806,75.0074 99.5,75.5C 99.4326,74.0413 99.7659,72.7079 100.5,71.5 Z"/></g>
<g><path style="opacity:1" fill="#171717" d="M 88.5,72.5 C 91.1569,72.162 93.4902,72.8287 95.5,74.5C 93.5787,75.641 91.5787,75.8077 89.5,75C 88.7476,74.3292 88.4142,73.4959 88.5,72.5 Z"/></g>
<g><path style="opacity:1" fill="#1d1d1d" d="M 119.5,77.5 C 121.344,79.2789 122.01,81.6122 121.5,84.5C 120.5,84.5 119.5,84.5 118.5,84.5C 118.298,82.0504 118.631,79.717 119.5,77.5 Z"/></g>
<g><path style="opacity:1" fill="#1d1d1d" d="M 117.5,88.5 C 118.675,88.281 119.675,88.6143 120.5,89.5C 119.877,91.7105 118.877,93.7105 117.5,95.5C 116.692,95.1924 116.025,94.6924 115.5,94C 116.244,92.1852 116.911,90.3519 117.5,88.5 Z"/></g>
<g><path style="opacity:1" fill="#1e1e1e" d="M 26.5,94.5 C 27.675,94.281 28.675,94.6143 29.5,95.5C 30.3482,97.4086 30.6816,99.4086 30.5,101.5C 29.5,101.5 28.5,101.5 27.5,101.5C 27.552,99.0971 27.2186,96.7638 26.5,94.5 Z"/></g>
<g><path style="opacity:1" fill="#1e1e1e" d="M 114.5,97.5 C 116.273,98.3143 116.773,99.6476 116,101.5C 115.092,103.439 113.592,104.439 111.5,104.5C 112.011,101.978 113.011,99.6451 114.5,97.5 Z"/></g>
<g><path style="opacity:1" fill="#121212" d="M 30.5,104.5 C 33.443,106.048 34.443,108.382 33.5,111.5C 31.0069,109.546 30.0069,107.213 30.5,104.5 Z"/></g>
<g><path style="opacity:1" fill="#1e1e1e" d="M 107.5,105.5 C 108.995,105.415 109.995,106.081 110.5,107.5C 108.833,108.833 107.167,110.167 105.5,111.5C 104.692,111.192 104.025,110.692 103.5,110C 105.041,108.629 106.375,107.129 107.5,105.5 Z"/></g>
<g><path style="opacity:1" fill="#1c1c1c" d="M 98.5,112.5 C 100.355,112.272 101.188,112.939 101,114.5C 98.8796,117.386 96.7129,117.719 94.5,115.5C 95.9014,114.479 97.2347,113.479 98.5,112.5 Z"/></g>
<g><path style="opacity:1" fill="#1f1f1f" d="M 35.5,113.5 C 37.8863,114.373 39.8863,115.873 41.5,118C 40.7248,119.23 39.7248,119.563 38.5,119C 37.3147,117.647 35.9814,116.48 34.5,115.5C 34.8627,114.817 35.1961,114.15 35.5,113.5 Z"/></g>
<g><path style="opacity:1" fill="#141414" d="M 88.5,117.5 C 90.1033,117.312 91.4366,117.812 92.5,119C 90.4308,120.523 88.0974,121.357 85.5,121.5C 85.5,120.5 85.5,119.5 85.5,118.5C 86.791,118.737 87.791,118.404 88.5,117.5 Z"/></g>
<g><path style="opacity:1" fill="#242424" d="M 44.5,119.5 C 46.3792,120.341 48.3792,120.675 50.5,120.5C 50.762,121.978 50.4287,123.311 49.5,124.5C 47.8333,123.833 46.1667,123.167 44.5,122.5C 43.4376,121.575 43.4376,120.575 44.5,119.5 Z"/></g>
<g><path style="opacity:1" fill="#1f1f1f" d="M 75.5,120.5 C 77.8333,120.5 80.1667,120.5 82.5,120.5C 82.5,121.5 82.5,122.5 82.5,123.5C 80.1667,123.5 77.8333,123.5 75.5,123.5C 75.5,122.5 75.5,121.5 75.5,120.5 Z"/></g>
<g><path style="opacity:1" fill="#181818" d="M 54.5,121.5 C 56.8333,121.5 59.1667,121.5 61.5,121.5C 61.5,122.5 61.5,123.5 61.5,124.5C 59.1667,124.5 56.8333,124.5 54.5,124.5C 54.5,123.5 54.5,122.5 54.5,121.5 Z"/></g>
<g><path style="opacity:1" fill="#1e1e1e" d="M 64.5,121.5 C 66.8333,121.5 69.1667,121.5 71.5,121.5C 71.5,122.5 71.5,123.5 71.5,124.5C 69.1667,124.5 66.8333,124.5 64.5,124.5C 64.5,123.5 64.5,122.5 64.5,121.5 Z"/></g>
</svg>
