<?xml version="1.0" encoding="UTF-8"?>
<!DOCTYPE svg PUBLIC "-//W3C//DTD SVG 1.1//EN" "http://www.w3.org/Graphics/SVG/1.1/DTD/svg11.dtd">
<svg xmlns="http://www.w3.org/2000/svg" version="1.1" width="160px" height="160px" style="shape-rendering:geometricPrecision; text-rendering:geometricPrecision; image-rendering:optimizeQuality; fill-rule:evenodd; clip-rule:evenodd" xmlns:xlink="http://www.w3.org/1999/xlink">
<g><path style="opacity:0.908" fill="#f4f4f4" d="M 70.5,103.5 C 70.5,104.5 70.5,105.5 70.5,106.5C 72.8333,106.5 75.1667,106.5 77.5,106.5C 77.5,105.5 77.5,104.5 77.5,103.5C 76.5,103.5 75.5,103.5 74.5,103.5C 75.9869,102.196 77.6536,101.03 79.5,100C 90.0251,99.3182 99.1917,95.4848 107,88.5C 109.134,86.1973 110.634,83.5307 111.5,80.5C 109.724,75.5569 106.391,72.0569 101.5,70C 88.5605,65.7979 75.5605,61.7979 62.5,58C 59.2716,56.4371 57.1049,53.9371 56,50.5C 53.3071,43.9003 52.9738,37.2336 55,30.5C 57.8922,27.9426 61.0589,25.776 64.5,24C 70.5745,21.7741 76.7412,19.9408 83,18.5C 89.344,18.2354 95.844,18.7354 102.5,20C 108.261,23.2294 108.927,27.2294 104.5,32C 96.5876,32.1834 88.7543,32.6834 81,33.5C 80.586,33.0426 80.086,32.7093 79.5,32.5C 76.7105,33.648 74.0439,34.9814 71.5,36.5C 70.1667,38.8333 70.1667,41.1667 71.5,43.5C 79.7916,50.2246 89.1249,53.558 99.5,53.5C 112.787,56.2895 121.453,64.1229 125.5,77C 124.718,79.7405 124.218,82.5738 124,85.5C 117.801,91.3644 111.968,97.5311 106.5,104C 93.1382,110.541 78.9715,114.041 64,114.5C 45.4463,113.498 34.2797,103.998 30.5,86C 32.4952,83.1239 35.1619,81.7906 38.5,82C 44.3245,91.4083 52.6578,97.075 63.5,99C 64.9354,101.941 67.2687,103.441 70.5,103.5 Z"/></g>
<g><path style="opacity:1" fill="#202020" d="M 77.5,24.5 C 83.8691,24.7902 84.0358,26.1235 78,28.5C 74.9484,27.4212 74.7817,26.0878 77.5,24.5 Z"/></g>
<g><path style="opacity:1" fill="#1d1d1d" d="M 86.5,23.5 C 88.8333,23.5 91.1667,23.5 93.5,23.5C 93.5,24.5 93.5,25.5 93.5,26.5C 91.1667,26.5 88.8333,26.5 86.5,26.5C 86.5,25.5 86.5,24.5 86.5,23.5 Z"/></g>
<g><path style="opacity:1" fill="#1b1b1b" d="M 96.5,25.5 C 99.1795,25.6726 101.513,26.6726 103.5,28.5C 99.7871,30.3109 97.4538,29.3109 96.5,25.5 Z"/></g>
<g><path style="opacity:1" fill="#1e1e1e" d="M 70.5,27.5 C 71.9953,27.4148 72.9953,28.0815 73.5,29.5C 71.8067,31.0267 69.9734,32.3601 68,33.5C 67.3076,32.9747 66.8076,32.3081 66.5,31.5C 67.8665,30.16 69.1999,28.8267 70.5,27.5 Z"/></g>
<g><path style="opacity:1" fill="#1e1e1e" d="M 61.5,34.5 C 62.5,34.5 63.5,34.5 64.5,34.5C 64.046,37.1398 62.8793,39.4732 61,41.5C 60.1301,40.8921 59.6301,40.0588 59.5,39C 60.4138,37.5936 61.0805,36.0936 61.5,34.5 Z"/></g>
<g><path style="opacity:1" fill="#1b1b1b" d="M 56.5,44.5 C 60.3948,44.8573 61.3948,46.8573 59.5,50.5C 57.4469,49.0606 56.4469,47.0606 56.5,44.5 Z"/></g>
<g><path style="opacity:1" fill="#131313" d="M 63.5,52.5 C 65.258,52.8769 66.9246,53.5435 68.5,54.5C 69.8333,55.5 69.8333,56.5 68.5,57.5C 66.8333,56.6667 65.1667,55.8333 63.5,55C 62.4019,54.2303 62.4019,53.397 63.5,52.5 Z"/></g>
<g><path style="opacity:1" fill="#151515" d="M 73.5,55.5 C 76.0558,55.1322 78.0558,55.9655 79.5,58C 79.1667,58.5 78.8333,59 78.5,59.5C 77.2054,58.9017 75.8721,58.4017 74.5,58C 73.7476,57.3292 73.4142,56.4959 73.5,55.5 Z"/></g>
<g><path style="opacity:1" fill="#131313" d="M 83.5,57.5 C 86.1569,57.162 88.4902,57.8287 90.5,59.5C 88.2573,60.4742 85.924,60.8076 83.5,60.5C 83.5,59.5 83.5,58.5 83.5,57.5 Z"/></g>
<g><path style="opacity:1" fill="#262626" d="M 93.5,59.5 C 95.5273,59.3379 97.5273,59.5045 99.5,60C 100.337,61.0113 100.67,62.1779 100.5,63.5C 98.1944,63.0074 95.861,62.6741 93.5,62.5C 93.5,61.5 93.5,60.5 93.5,59.5 Z"/></g>
<g><path style="opacity:1" fill="#1f1f1f" d="M 104.5,61.5 C 107.801,61.7922 109.801,63.4589 110.5,66.5C 108.323,66.4139 106.323,65.7472 104.5,64.5C 103.438,63.5754 103.438,62.5754 104.5,61.5 Z"/></g>
<g><path style="opacity:1" fill="#1b1b1b" d="M 113.5,66.5 C 117.061,67.4735 118.395,69.6402 117.5,73C 114.875,71.9715 113.541,69.8048 113.5,66.5 Z"/></g>
<g><path style="opacity:1" fill="#191919" d="M 116.5,76.5 C 117.5,76.5 118.5,76.5 119.5,76.5C 119.326,78.861 118.993,81.1944 118.5,83.5C 117.5,83.5 116.5,83.5 115.5,83.5C 115.993,81.1944 116.326,78.861 116.5,76.5 Z"/></g>
<g><path style="opacity:1" fill="#222222" d="M 112.5,85.5 C 115.21,88.4125 114.543,90.7459 110.5,92.5C 109.692,92.1924 109.025,91.6924 108.5,91C 109.965,89.2258 111.298,87.3925 112.5,85.5 Z"/></g>
<g><path style="opacity:1" fill="#181818" d="M 36.5,87.5 C 37.4959,87.4142 38.3292,87.7476 39,88.5C 39.813,90.4357 40.313,92.4357 40.5,94.5C 39.5,94.5 38.5,94.5 37.5,94.5C 37.0074,92.1944 36.6741,89.861 36.5,87.5 Z"/></g>
<g><path style="opacity:1" fill="#1c1c1c" d="M 105.5,92.5 C 106.267,93.172 106.934,94.0053 107.5,95C 105.631,96.6017 103.631,97.6017 101.5,98C 101.043,97.586 100.709,97.086 100.5,96.5C 102.21,95.1128 103.877,93.7794 105.5,92.5 Z"/></g>
<g><path style="opacity:1" fill="#1d1d1d" d="M 41.5,97.5 C 44.2602,98.4366 46.0936,100.103 47,102.5C 46.2825,103.451 45.4491,103.617 44.5,103C 43.1667,101.667 41.8333,100.333 40.5,99C 41.056,98.6174 41.3893,98.1174 41.5,97.5 Z"/></g>
<g><path style="opacity:1" fill="#0d0d0d" d="M 94.5,98.5 C 95.5,98.5 96.5,98.5 97.5,98.5C 97.5,99.5 97.5,100.5 97.5,101.5C 95.4012,102.231 93.4012,102.231 91.5,101.5C 92.3398,100.265 93.3398,99.265 94.5,98.5 Z"/></g>
<g><path style="opacity:1" fill="#070707" d="M 86.5,101.5 C 87.404,102.209 87.7373,103.209 87.5,104.5C 85.5,104.833 83.5,105.167 81.5,105.5C 81.5,104.5 81.5,103.5 81.5,102.5C 83.4147,102.784 85.0813,102.451 86.5,101.5 Z"/></g>
<g><path style="opacity:1" fill="#1e1e1e" d="M 49.5,103.5 C 51.5914,103.318 53.5914,103.652 55.5,104.5C 56.3857,105.325 56.719,106.325 56.5,107.5C 54.4357,107.313 52.4357,106.813 50.5,106C 49.7476,105.329 49.4142,104.496 49.5,103.5 Z"/></g>
<g><path style="opacity:0.914" fill="#090909" d="M 70.5,103.5 C 71.8333,103.5 73.1667,103.5 74.5,103.5C 75.5,103.5 76.5,103.5 77.5,103.5C 77.5,104.5 77.5,105.5 77.5,106.5C 75.1667,106.5 72.8333,106.5 70.5,106.5C 70.5,105.5 70.5,104.5 70.5,103.5 Z"/></g>
<g><path style="opacity:1" fill="#2c2c2c" d="M 60.5,104.5 C 62.8333,104.5 65.1667,104.5 67.5,104.5C 67.5,105.5 67.5,106.5 67.5,107.5C 65.1667,107.5 62.8333,107.5 60.5,107.5C 60.5,106.5 60.5,105.5 60.5,104.5 Z"/></g>
<g><path style="opacity:0.705" fill="#f0f0f0" d="M 62.5,128.5 C 64.1172,129.038 65.7839,129.371 67.5,129.5C 68.2801,136.382 65.2801,140.382 58.5,141.5C 56.8854,139.378 56.3854,137.045 57,134.5C 58.8034,132.377 60.6368,130.377 62.5,128.5 Z"/></g>
<g><path style="opacity:0.819" fill="#f9f9f9" d="M 87.5,129.5 C 91.8839,129.174 96.2172,129.508 100.5,130.5C 99.3596,135.438 97.1929,139.772 94,143.5C 87.54,142.374 84.3733,138.541 84.5,132C 85.5707,131.148 86.5707,130.315 87.5,129.5 Z"/></g>
<g><path style="opacity:1" fill="#353535" d="M 92.5,130.5 C 93.9953,130.415 94.9953,131.081 95.5,132.5C 94.1667,134.5 92.5,136.167 90.5,137.5C 89.5,137.167 88.8333,136.5 88.5,135.5C 89.8569,133.814 91.1902,132.148 92.5,130.5 Z"/></g>
<g><path style="opacity:1" fill="#181818" d="M 62.5,131.5 C 63.7562,131.461 64.7562,131.961 65.5,133C 63.9825,134.685 62.3159,136.185 60.5,137.5C 59.5,137.167 58.8333,136.5 58.5,135.5C 60.188,134.479 61.5213,133.145 62.5,131.5 Z"/></g>
</svg>
