<?xml version="1.0" encoding="UTF-8"?>
<!DOCTYPE svg PUBLIC "-//W3C//DTD SVG 1.1//EN" "http://www.w3.org/Graphics/SVG/1.1/DTD/svg11.dtd">
<svg xmlns="http://www.w3.org/2000/svg" version="1.1" width="160px" height="160px" style="shape-rendering:geometricPrecision; text-rendering:geometricPrecision; image-rendering:optimizeQuality; fill-rule:evenodd; clip-rule:evenodd" xmlns:xlink="http://www.w3.org/1999/xlink">
<g><path style="opacity:0.878" fill="#f4f4f4" d="M 97.5,14.5 C 102.475,15.1029 107.141,16.6029 111.5,19C 110.212,21.4665 110.212,23.9665 111.5,26.5C 108.43,29.4535 104.93,31.7868 101,33.5C 95.8172,32.1514 92.9839,28.8181 92.5,23.5C 93.3779,20.8702 94.0445,18.2035 94.5,15.5C 95.791,15.7373 96.791,15.404 97.5,14.5 Z"/></g>
<g><path style="opacity:1" fill="#181818" d="M 103.5,20.5 C 104.478,20.811 105.145,21.4777 105.5,22.5C 104.055,24.0627 102.389,25.396 100.5,26.5C 99.4173,25.635 99.2506,24.635 100,23.5C 101.145,22.3636 102.312,21.3636 103.5,20.5 Z"/></g>
<g><path style="opacity:0.879" fill="#f4f4f4" d="M 113.5,55.5 C 116.545,55.3418 119.379,56.0085 122,57.5C 123.526,64.383 126.026,70.883 129.5,77C 129.583,88.1659 126.917,98.6659 121.5,108.5C 117.833,110.667 114.167,112.833 110.5,115C 105.681,122.154 99.348,127.487 91.5,131C 83.9084,133.864 76.2418,136.531 68.5,139C 55.9292,141.123 43.4292,143.623 31,146.5C 30.1268,146.265 29.2935,145.931 28.5,145.5C 28.1667,143.833 27.8333,142.167 27.5,140.5C 27.288,137.989 27.9546,135.822 29.5,134C 35.3575,131.195 41.3575,130.029 47.5,130.5C 59.5034,127.863 71.1701,125.03 82.5,122C 93.7881,116.777 103.955,109.944 113,101.5C 123.364,87.5953 121.197,75.9286 106.5,66.5C 105.447,65.5617 104.78,64.395 104.5,63C 106.517,59.1352 109.517,56.6352 113.5,55.5 Z"/></g>
<g><path style="opacity:1" fill="#1d1d1d" d="M 109.5,60.5 C 112.282,61.4593 114.115,63.126 115,65.5C 114.586,65.9574 114.086,66.2907 113.5,66.5C 112.3,65.4688 110.966,64.6355 109.5,64C 108.316,62.8545 108.316,61.6879 109.5,60.5 Z"/></g>
<g><path style="opacity:1" fill="#171717" d="M 117.5,66.5 C 120.859,66.6981 122.692,68.3647 123,71.5C 122.586,71.9574 122.086,72.2907 121.5,72.5C 119.722,70.736 118.389,68.736 117.5,66.5 Z"/></g>
<g><path style="opacity:1" fill="#1e1e1e" d="M 122.5,75.5 C 123.675,75.281 124.675,75.6143 125.5,76.5C 126.348,78.4086 126.682,80.4086 126.5,82.5C 125.5,82.5 124.5,82.5 123.5,82.5C 123.326,80.139 122.993,77.8056 122.5,75.5 Z"/></g>
<g><path style="opacity:1" fill="#242424" d="M 122.5,85.5 C 123.756,85.4614 124.756,85.9614 125.5,87C 124.594,88.6995 124.261,90.5328 124.5,92.5C 123.022,92.762 121.689,92.4287 120.5,91.5C 121.747,89.677 122.414,87.677 122.5,85.5 Z"/></g>
<g><path style="opacity:1" fill="#1a1a1a" d="M 118.5,95.5 C 119.756,95.4614 120.756,95.9614 121.5,97C 120.521,99.1373 119.188,100.971 117.5,102.5C 116.692,102.192 116.025,101.692 115.5,101C 116.758,99.2591 117.758,97.4258 118.5,95.5 Z"/></g>
<g><path style="opacity:1" fill="#131313" d="M 113.5,104.5 C 114.497,104.47 115.164,104.97 115.5,106C 114.379,109.555 112.379,110.555 109.5,109C 111.041,107.629 112.375,106.129 113.5,104.5 Z"/></g>
<g><path style="opacity:1" fill="#1b1b1b" d="M 106.5,111.5 C 108.085,112.002 108.585,113.002 108,114.5C 106.078,117.089 103.911,117.589 101.5,116C 103.24,114.483 104.906,112.983 106.5,111.5 Z"/></g>
<g><path style="opacity:1" fill="#1d1d1d" d="M 97.5,117.5 C 99.2252,117.843 99.7252,118.843 99,120.5C 97.414,121.376 95.914,122.376 94.5,123.5C 93.4173,122.635 93.2506,121.635 94,120.5C 95.5185,119.837 96.6851,118.837 97.5,117.5 Z"/></g>
<g><path style="opacity:1" fill="#171717" d="M 88.5,122.5 C 89.4778,122.811 90.1445,123.478 90.5,124.5C 88.5128,126.327 86.1795,127.327 83.5,127.5C 83.281,126.325 83.6143,125.325 84.5,124.5C 86.0255,124.006 87.3588,123.339 88.5,122.5 Z"/></g>
<g><path style="opacity:1" fill="#1f1f1f" d="M 78.5,126.5 C 80.2252,126.843 80.7252,127.843 80,129.5C 78.2657,130.638 76.4324,131.138 74.5,131C 74.0426,130.586 73.7093,130.086 73.5,129.5C 75.3596,128.675 77.0262,127.675 78.5,126.5 Z"/></g>
<g><path style="opacity:1" fill="#232323" d="M 68.5,130.5 C 69.9953,130.415 70.9953,131.081 71.5,132.5C 69.5101,133.498 67.5101,134.498 65.5,135.5C 64.5713,134.311 64.238,132.978 64.5,131.5C 66.099,131.768 67.4324,131.434 68.5,130.5 Z"/></g>
<g><path style="opacity:1" fill="#0d0d0d" d="M 56.5,133.5 C 57.8333,133.5 59.1667,133.5 60.5,133.5C 60.5,134.5 60.5,135.5 60.5,136.5C 57.9272,136.852 55.5938,136.352 53.5,135C 54.7375,134.768 55.7375,134.268 56.5,133.5 Z"/></g>
<g><path style="opacity:1" fill="#1a1a1a" d="M 33.5,135.5 C 35.5,135.5 37.5,135.5 39.5,135.5C 39.5,136.5 39.5,137.5 39.5,138.5C 37.076,138.808 34.7427,138.474 32.5,137.5C 32.8627,136.817 33.1961,136.15 33.5,135.5 Z"/></g>
<g><path style="opacity:1" fill="#1c1c1c" d="M 43.5,134.5 C 45.8333,134.5 48.1667,134.5 50.5,134.5C 50.5,135.5 50.5,136.5 50.5,137.5C 48.1667,137.5 45.8333,137.5 43.5,137.5C 43.5,136.5 43.5,135.5 43.5,134.5 Z"/></g>
</svg>
