<?xml version="1.0" encoding="UTF-8"?>
<!DOCTYPE svg PUBLIC "-//W3C//DTD SVG 1.1//EN" "http://www.w3.org/Graphics/SVG/1.1/DTD/svg11.dtd">
<svg xmlns="http://www.w3.org/2000/svg" version="1.1" width="160px" height="160px" style="shape-rendering:geometricPrecision; text-rendering:geometricPrecision; image-rendering:optimizeQuality; fill-rule:evenodd; clip-rule:evenodd" xmlns:xlink="http://www.w3.org/1999/xlink">
<g><path style="opacity:0.911" fill="#f7f7f7" d="M 50.5,19.5 C 52.1667,19.5 53.8333,19.5 55.5,19.5C 56.0906,22.9399 57.0906,26.2732 58.5,29.5C 58.4752,34.3636 58.4752,39.1969 58.5,44C 59.836,46.8095 60.1694,49.6429 59.5,52.5C 61.6536,67.4427 62.3203,82.4427 61.5,97.5C 61.902,102.735 64.7353,105.402 70,105.5C 77.4301,102.203 84.9301,99.0359 92.5,96C 105.116,92.5054 117.783,91.5054 130.5,93C 135.682,98.8987 137.848,105.732 137,113.5C 132.798,117.367 128.965,121.533 125.5,126C 97.9032,140.907 68.9032,144.241 38.5,136C 33.0131,128.849 26.5131,122.682 19,117.5C 17.9363,111.942 20.103,108.609 25.5,107.5C 32.667,108.248 38.0004,111.748 41.5,118C 44.5282,119.14 46.6949,118.306 48,115.5C 47.1518,100.403 45.9852,85.5696 44.5,71C 45.2779,55.944 45.2779,40.6107 44.5,25C 45.7711,22.2227 47.7711,20.3894 50.5,19.5 Z M 98.5,105.5 C 104.499,105.123 110.499,105.623 116.5,107C 119.265,109.966 118.932,112.633 115.5,115C 101.515,123.683 86.0153,127.849 69,127.5C 67.1252,123.086 68.6252,120.253 73.5,119C 75.1341,118.506 76.8008,118.34 78.5,118.5C 78.3505,117.448 78.5172,116.448 79,115.5C 81.7395,112.882 84.5728,110.382 87.5,108C 91.2405,106.986 94.9072,106.153 98.5,105.5 Z"/></g>
<g><path style="opacity:1" fill="#727272" d="M 51.5,23.5 C 52.1667,31.5 52.8333,31.5 53.5,23.5C 54.4682,25.6074 54.8016,27.9407 54.5,30.5C 53.1667,30.5 51.8333,30.5 50.5,30.5C 50.1984,27.9407 50.5318,25.6074 51.5,23.5 Z"/></g>
<g><path style="opacity:1" fill="#000000" d="M 51.5,23.5 C 52.1667,23.5 52.8333,23.5 53.5,23.5C 52.8333,31.5 52.1667,31.5 51.5,23.5 Z"/></g>
<g><path style="opacity:1" fill="#1f1f1f" d="M 51.5,33.5 C 52.5,33.5 53.5,33.5 54.5,33.5C 54.5,35.8333 54.5,38.1667 54.5,40.5C 53.5,40.5 52.5,40.5 51.5,40.5C 51.5,38.1667 51.5,35.8333 51.5,33.5 Z"/></g>
<g><path style="opacity:1" fill="#151515" d="M 51.5,44.5 C 52.5,44.5 53.5,44.5 54.5,44.5C 54.5,46.8333 54.5,49.1667 54.5,51.5C 53.5,51.5 52.5,51.5 51.5,51.5C 51.5,49.1667 51.5,46.8333 51.5,44.5 Z"/></g>
<g><path style="opacity:0.905" fill="#f6f6f6" d="M 95.5,46.5 C 98.7871,47.1614 102.12,47.6614 105.5,48C 106,48.5 106.5,49 107,49.5C 107.667,53.5 107.667,57.5 107,61.5C 105.738,63.3028 104.071,64.6361 102,65.5C 100.333,64.1667 98.6667,64.1667 97,65.5C 95.3333,64.1667 93.6667,62.8333 92,61.5C 91.6745,57.384 90.8412,53.384 89.5,49.5C 91.2818,48.0159 93.2818,47.0159 95.5,46.5 Z"/></g>
<g><path style="opacity:1" fill="#0e0e0e" d="M 98.5,53.5 C 99.7562,53.4614 100.756,53.9614 101.5,55C 99.5219,57.864 97.1886,58.5307 94.5,57C 96.0931,56.0513 97.4264,54.8846 98.5,53.5 Z"/></g>
<g><path style="opacity:1" fill="#1e1e1e" d="M 51.5,54.5 C 52.5,54.5 53.5,54.5 54.5,54.5C 54.5,56.8333 54.5,59.1667 54.5,61.5C 53.5,61.5 52.5,61.5 51.5,61.5C 51.5,59.1667 51.5,56.8333 51.5,54.5 Z"/></g>
<g><path style="opacity:1" fill="#000000" d="M 54.5,65.5 C 54.9746,68.0821 54.3079,70.0821 52.5,71.5C 52.0254,68.9179 52.6921,66.9179 54.5,65.5 Z"/></g>
<g><path style="opacity:1" fill="#585858" d="M 54.5,65.5 C 55.4682,67.6074 55.8016,69.9407 55.5,72.5C 54.209,72.7373 53.209,72.404 52.5,71.5C 54.3079,70.0821 54.9746,68.0821 54.5,65.5 Z"/></g>
<g><path style="opacity:1" fill="#121212" d="M 52.5,75.5 C 53.5,75.5 54.5,75.5 55.5,75.5C 55.5,77.8333 55.5,80.1667 55.5,82.5C 54.5,82.5 53.5,82.5 52.5,82.5C 52.5,80.1667 52.5,77.8333 52.5,75.5 Z"/></g>
<g><path style="opacity:1" fill="#161616" d="M 53.5,86.5 C 54.5,86.5 55.5,86.5 56.5,86.5C 56.5,88.5 56.5,90.5 56.5,92.5C 55.5,92.5 54.5,92.5 53.5,92.5C 53.5,90.5 53.5,88.5 53.5,86.5 Z"/></g>
<g><path style="opacity:1" fill="#191919" d="M 99.5,95.5 C 101.833,95.5 104.167,95.5 106.5,95.5C 106.5,96.5 106.5,97.5 106.5,98.5C 104.167,98.5 101.833,98.5 99.5,98.5C 99.5,97.5 99.5,96.5 99.5,95.5 Z"/></g>
<g><path style="opacity:1" fill="#292929" d="M 109.5,95.5 C 112.167,95.5 114.833,95.5 117.5,95.5C 117.5,96.5 117.5,97.5 117.5,98.5C 114.833,98.5 112.167,98.5 109.5,98.5C 109.5,97.5 109.5,96.5 109.5,95.5 Z"/></g>
<g><path style="opacity:1" fill="#161616" d="M 53.5,96.5 C 54.5,96.5 55.5,96.5 56.5,96.5C 56.5,98.8333 56.5,101.167 56.5,103.5C 55.5,103.5 54.5,103.5 53.5,103.5C 53.5,101.167 53.5,98.8333 53.5,96.5 Z"/></g>
<g><path style="opacity:1" fill="#171717" d="M 94.5,97.5 C 96.0481,97.8212 96.7148,98.8212 96.5,100.5C 94.1944,100.993 91.861,101.326 89.5,101.5C 89.5,100.5 89.5,99.5 89.5,98.5C 91.4147,98.7845 93.0813,98.4511 94.5,97.5 Z"/></g>
<g><path style="opacity:1" fill="#171717" d="M 120.5,97.5 C 122.426,98.2423 124.259,99.2423 126,100.5C 126.563,101.725 126.23,102.725 125,103.5C 122.126,102.468 120.626,100.468 120.5,97.5 Z"/></g>
<g><path style="opacity:1" fill="#181818" d="M 83.5,101.5 C 84.675,101.281 85.675,101.614 86.5,102.5C 84.9706,104.188 83.1373,105.521 81,106.5C 80.3076,105.975 79.8076,105.308 79.5,104.5C 80.6243,103.141 81.9577,102.141 83.5,101.5 Z"/></g>
<g><path style="opacity:1" fill="#1c1c1c" d="M 75.5,105.5 C 77.0847,106.002 77.5847,107.002 77,108.5C 75.2897,109.945 73.4564,110.778 71.5,111C 71.0426,110.586 70.7093,110.086 70.5,109.5C 72.21,108.113 73.8767,106.779 75.5,105.5 Z"/></g>
<g><path style="opacity:1" fill="#1d1d1d" d="M 127.5,105.5 C 128.5,105.5 129.5,105.5 130.5,105.5C 130.5,107.833 130.5,110.167 130.5,112.5C 129.5,112.5 128.5,112.5 127.5,112.5C 127.5,110.167 127.5,107.833 127.5,105.5 Z"/></g>
<g><path style="opacity:1" fill="#1b1b1b" d="M 54.5,106.5 C 55.5,106.5 56.5,106.5 57.5,106.5C 57.5,108.833 57.5,111.167 57.5,113.5C 56.5,113.5 55.5,113.5 54.5,113.5C 54.5,111.167 54.5,108.833 54.5,106.5 Z"/></g>
<g><path style="opacity:1" fill="#1b1b1b" d="M 67.5,112.5 C 69.0847,113.002 69.5847,114.002 69,115.5C 67.0782,118.089 64.9115,118.589 62.5,117C 64.2395,115.483 65.9062,113.983 67.5,112.5 Z"/></g>
<g><path style="opacity:1" fill="#212121" d="M 24.5,114.5 C 27.8968,114.737 29.7301,116.404 30,119.5C 29.2825,120.451 28.4491,120.617 27.5,120C 25.393,118.736 24.393,116.903 24.5,114.5 Z"/></g>
<g><path style="opacity:1" fill="#1c1c1c" d="M 125.5,114.5 C 127.085,115.002 127.585,116.002 127,117.5C 125.263,120.533 123.097,121.033 120.5,119C 122.618,117.951 124.284,116.451 125.5,114.5 Z"/></g>
<g><path style="opacity:1" fill="#141414" d="M 54.5,118.5 C 57.8009,118.792 59.8009,120.459 60.5,123.5C 58.2166,123.392 56.2166,122.559 54.5,121C 53.4019,120.23 53.4019,119.397 54.5,118.5 Z"/></g>
<g><path style="opacity:1" fill="#1f1f1f" d="M 33.5,120.5 C 34.973,121.74 36.6396,122.74 38.5,123.5C 39.6869,124.824 39.3535,125.824 37.5,126.5C 33.9007,125.63 32.5674,123.63 33.5,120.5 Z"/></g>
<g><path style="opacity:1" fill="#1b1b1b" d="M 115.5,121.5 C 117.103,121.312 118.437,121.812 119.5,123C 117.63,124.366 115.63,125.533 113.5,126.5C 112.417,125.635 112.251,124.635 113,123.5C 113.995,122.934 114.828,122.267 115.5,121.5 Z"/></g>
<g><path style="opacity:1" fill="#151515" d="M 106.5,125.5 C 107.995,125.415 108.995,126.081 109.5,127.5C 107.303,129.306 104.97,129.639 102.5,128.5C 103.624,127.141 104.958,126.141 106.5,125.5 Z"/></g>
<g><path style="opacity:1" fill="#1b1b1b" d="M 41.5,126.5 C 43.861,126.674 46.1944,127.007 48.5,127.5C 48.5,128.5 48.5,129.5 48.5,130.5C 44.9983,130.924 42.665,129.59 41.5,126.5 Z"/></g>
<g><path style="opacity:1" fill="#171717" d="M 51.5,129.5 C 53.5273,129.338 55.5273,129.505 57.5,130C 57.9574,130.414 58.2907,130.914 58.5,131.5C 56.5787,132.641 54.5787,132.808 52.5,132C 51.7476,131.329 51.4142,130.496 51.5,129.5 Z"/></g>
<g><path style="opacity:1" fill="#1c1c1c" d="M 96.5,128.5 C 97.5,128.5 98.5,128.5 99.5,128.5C 99.719,129.675 99.3857,130.675 98.5,131.5C 96.8333,132.167 95.1667,132.833 93.5,133.5C 93.1667,133 92.8333,132.5 92.5,132C 93.6856,130.588 95.019,129.421 96.5,128.5 Z"/></g>
<g><path style="opacity:1" fill="#8a8a8a" d="M 83.5,131.5 C 85.6074,130.532 87.9407,130.198 90.5,130.5C 90.7373,131.791 90.404,132.791 89.5,133.5C 88.0821,131.692 86.0821,131.025 83.5,131.5 Z"/></g>
<g><path style="opacity:1" fill="#070707" d="M 64.5,130.5 C 69.9072,132.326 69.5739,133.326 63.5,133.5C 62.1148,132.053 62.4482,131.053 64.5,130.5 Z"/></g>
<g><path style="opacity:1" fill="#0b0b0b" d="M 72.5,131.5 C 74.8333,131.5 77.1667,131.5 79.5,131.5C 79.5,132.5 79.5,133.5 79.5,134.5C 77.1667,134.5 74.8333,134.5 72.5,134.5C 72.5,133.5 72.5,132.5 72.5,131.5 Z"/></g>
<g><path style="opacity:1" fill="#1f1f1f" d="M 83.5,131.5 C 86.0821,131.025 88.0821,131.692 89.5,133.5C 87.7354,134.461 85.7354,134.795 83.5,134.5C 83.5,133.5 83.5,132.5 83.5,131.5 Z"/></g>
<g><path style="opacity:1" fill="#828282" d="M 64.5,130.5 C 66.1667,130.5 67.8333,130.5 69.5,130.5C 69.5,131.833 69.5,133.167 69.5,134.5C 67.2646,134.795 65.2646,134.461 63.5,133.5C 69.5739,133.326 69.9072,132.326 64.5,130.5 Z"/></g>
</svg>
